SplineFontDB: 3.0
FontName: Jost-Bold
FullName: Jost* 700 Bold
FamilyName: Jost*
Weight: Bold
Copyright: Copyright (c) 2018, Owen Earl,,,
UComments: "2018-6-8: Created with FontForge (http://fontforge.org)"
Version: 003.300
ItalicAngle: 0
UnderlinePosition: -100
UnderlineWidth: 50
Ascent: 800
Descent: 200
InvalidEm: 0
LayerCount: 2
Layer: 0 0 "Back" 1
Layer: 1 0 "Fore" 0
XUID: [1021 69 1495626776 12280187]
FSType: 0
OS2Version: 0
OS2_WeightWidthSlopeOnly: 0
OS2_UseTypoMetrics: 0
CreationTime: 1528476916
ModificationTime: 1563288263
PfmFamily: 17
TTFWeight: 700
TTFWidth: 5
LineGap: 100
VLineGap: 0
OS2TypoAscent: 825
OS2TypoAOffset: 0
OS2TypoDescent: -225
OS2TypoDOffset: 0
OS2TypoLinegap: 100
OS2WinAscent: 900
OS2WinAOffset: 0
OS2WinDescent: 300
OS2WinDOffset: 0
HheadAscent: 1030
HheadAOffset: 0
HheadDescent: -350
HheadDOffset: 0
OS2CapHeight: 700
OS2XHeight: 460
OS2Vendor: 'PfEd'
Lookup: 1 0 0 "alt a" { "alt a"  } ['ss01' ('DFLT' <'dflt' > 'latn' <'dflt' > ) ]
Lookup: 1 0 0 "Tabular Numbers lookup" { "Tabular Numbers lookup"  } ['tnum' ('DFLT' <'dflt' > 'grek' <'dflt' > 'latn' <'dflt' > ) ]
Lookup: 258 0 0 "Lets get our kern on" { "kernin like nobodys business" [150,0,4] } ['kern' ('DFLT' <'dflt' > 'latn' <'dflt' > ) ]
MarkAttachClasses: 1
DEI: 91125
KernClass2: 16 14 "kernin like nobodys business"
 43 slash seven V W Wcircumflex uni040E uni0423
 175 quotedbl quotesingle asterisk grave dieresis ordfeminine macron degree acute ordmasculine circumflex breve dotaccent ring tilde quoteleft quoteright quotedblleft quotedblright
 25 nine question F P uni0420
 131 A L backslash Agrave Aacute Acircumflex Atilde Adieresis Aring Amacron Abreve Aogonek Lacute uni013B Lslash uni0410 uni0414 uni041C
 58 three eight B C germandbls uni0411 uni0412 uni0417 uni0421
 29 K X Z uni0416 uni041A uni0425
 157 at D G O Ograve Oacute Ocircumflex Otilde Odieresis Oslash Dcaron Dcroat Gcircumflex Gbreve Gdotaccent uni0122 Omacron Obreve uni041E uni0424 uni042D uni042E

StartChar: H
Encoding: 72 72 0
Width: 742
VWidth: 0
Flags: HMW
LayerCount: 2
Fore
SplineSet
156 292 m 1
 209 446 l 1
 716 446 l 1
 662 292 l 1
 156 292 l 1
693 700 m 1
 863 700 l 1
 622 0 l 1
 455 0 l 1
 693 700 l 1
251 700 m 1
 420 700 l 1
 179 0 l 1
 13 0 l 1
 251 700 l 1
EndSplineSet
EndChar

StartChar: O
Encoding: 79 79 1
Width: 773
VWidth: 0
Flags: HMW
LayerCount: 2
Fore
SplineSet
271 350 m 0
 237 259 255 146 372 143 c 0
 491 140 594 245 634 350 c 0
 668 441 650 555 533 557 c 0
 414 559 310 455 271 350 c 0
94 350 m 0
 157 549 354 717 567 717 c 0
 773 717 869 535 811 350 c 0
 748 150 551 -24 335 -23 c 0
 126 -22 36 165 94 350 c 0
EndSplineSet
EndChar

StartChar: I
Encoding: 73 73 2
Width: 303
VWidth: 0
Flags: HMW
LayerCount: 2
Fore
SplineSet
251 700 m 1
 423 700 l 1
 182 0 l 1
 13 0 l 1
 251 700 l 1
EndSplineSet
EndChar

StartChar: C
Encoding: 67 67 3
Width: 659
VWidth: 0
Flags: HMW
LayerCount: 2
Fore
SplineSet
276 350 m 0
 240 252 277 152 391 149 c 0
 477 147 556 192 625 238 c 1
 570 54 l 1
 501 13 426 -17 345 -17 c 0
 138 -16 34 160 94 350 c 0
 158 554 358 716 575 717 c 0
 649 717 710 692 766 645 c 1
 709 460 l 1
 671 518 619 551 548 551 c 0
 429 550 317 459 276 350 c 0
EndSplineSet
EndChar

StartChar: E
Encoding: 69 69 4
Width: 568
VWidth: 0
Flags: HMW
LayerCount: 2
Fore
SplineSet
121 0 m 1
 170 142 l 1
 508 142 l 1
 458 0 l 1
 121 0 l 1
312 558 m 1
 361 700 l 1
 698 700 l 1
 649 558 l 1
 312 558 l 1
222 298 m 1
 271 436 l 1
 589 436 l 1
 541 298 l 1
 222 298 l 1
251 700 m 1
 414 700 l 1
 173 0 l 1
 13 0 l 1
 251 700 l 1
EndSplineSet
EndChar

StartChar: F
Encoding: 70 70 6
Width: 521
VWidth: 0
Flags: HMW
LayerCount: 2
Fore
SplineSet
309 552 m 1
 361 700 l 1
 661 700 l 1
 609 552 l 1
 309 552 l 1
216 278 m 1
 264 417 l 1
 555 417 l 1
 506 278 l 1
 216 278 l 1
251 700 m 1
 414 700 l 1
 173 0 l 1
 13 0 l 1
 251 700 l 1
EndSplineSet
EndChar

StartChar: G
Encoding: 71 71 7
Width: 766
VWidth: 0
Flags: HMW
LayerCount: 2
Fore
SplineSet
424 252 m 1
 471 383 l 1
 806 383 l 1
 746 174 593 -23 348 -23 c 0
 138 -23 34 161 94 350 c 0
 159 555 361 717 579 717 c 0
 699 717 783 653 833 547 c 1
 666 471 l 1
 647 529 612 565 548 565 c 0
 423 565 311 461 269 350 c 0
 232 251 254 128 379 128 c 0
 473 128 535 179 586 252 c 1
 424 252 l 1
EndSplineSet
EndChar

StartChar: T
Encoding: 84 84 8
Width: 531
VWidth: 0
Flags: HMW
LayerCount: 2
Fore
SplineSet
131 545 m 1
 186 700 l 1
 717 700 l 1
 663 545 l 1
 482 545 l 1
 296 0 l 1
 127 0 l 1
 314 545 l 1
 131 545 l 1
EndSplineSet
EndChar

StartChar: L
Encoding: 76 76 9
Width: 499
VWidth: 0
Flags: HMW
LayerCount: 2
Fore
SplineSet
252 700 m 1
 420 700 l 1
 231 148 l 1
 496 148 l 1
 444 0 l 1
 12 0 l 1
 252 700 l 1
EndSplineSet
EndChar

StartChar: D
Encoding: 68 68 10
Width: 690
VWidth: 0
Flags: HMW
LayerCount: 2
Fore
SplineSet
251 700 m 1
 426 700 l 1
 185 0 l 1
 13 0 l 1
 251 700 l 1
262 0 m 2
 120 0 l 1
 174 153 l 1
 289 153 l 2
 411 153 512 236 555 350 c 0
 594 454 559 547 442 547 c 2
 306 547 l 1
 360 700 l 1
 481 700 l 2
 683 700 789 543 728 350 c 0
 664 146 475 0 262 0 c 2
EndSplineSet
EndChar

StartChar: Q
Encoding: 81 81 11
Width: 814
VWidth: 0
Flags: HMW
LayerCount: 2
Fore
SplineSet
271 350 m 0
 235 253 260 132 383 130 c 0
 502 128 605 225 645 330 c 0
 682 427 662 554 536 557 c 0
 417 559 311 455 271 350 c 0
94 350 m 0
 157 550 357 718 570 717 c 0
 776 716 869 534 811 350 c 0
 748 150 554 -24 338 -23 c 0
 129 -22 36 164 94 350 c 0
388 300 m 1
 545 300 l 1
 757 -13 l 1
 595 -13 l 1
 388 300 l 1
EndSplineSet
EndChar

StartChar: A
Encoding: 65 65 12
Width: 693
VWidth: 0
Flags: HMW
LayerCount: 2
Fore
SplineSet
163 132 m 1
 218 262 l 1
 552 262 l 1
 516 132 l 1
 163 132 l 1
443 438 m 1
 279 215 l 1
 275 175 l 1
 134 0 l 1
 -63 0 l 1
 545 749 l 1
 640 0 l 1
 459 0 l 1
 443 170 l 1
 459 214 l 1
 443 438 l 1
EndSplineSet
EndChar

StartChar: R
Encoding: 82 82 13
Width: 611
VWidth: 0
Flags: HMW
LayerCount: 2
Fore
SplineSet
291 316 m 1
 455 316 l 1
 552 0 l 1
 367 0 l 1
 291 316 l 1
251 700 m 1
 420 700 l 1
 179 0 l 1
 13 0 l 1
 251 700 l 1
305 553 m 1
 354 700 l 1
 487 700 l 2
 622 700 715 612 679 470 c 0
 642 324 495 241 350 241 c 2
 196 241 l 1
 244 375 l 1
 364 375 l 2
 421 375 483 408 504 465 c 0
 523 517 493 552 442 553 c 2
 305 553 l 1
EndSplineSet
EndChar

StartChar: V
Encoding: 86 86 14
Width: 693
VWidth: 0
Flags: HMW
LayerCount: 2
Fore
SplineSet
398 293 m 1
 682 699 l 1
 884 699 l 1
 301 -49 l 1
 182 700 l 1
 369 700 l 1
 398 293 l 1
EndSplineSet
EndChar

StartChar: M
Encoding: 77 77 15
Width: 841
VWidth: 0
Flags: HMW
LayerCount: 2
Fore
SplineSet
313 350 m 1
 152 0 l 1
 -28 0 l 1
 333 735 l 1
 468 315 l 1
 904 745 l 1
 757 0 l 1
 581 0 l 1
 662 338 l 1
 393 62 l 1
 313 350 l 1
EndSplineSet
EndChar

StartChar: W
Encoding: 87 87 16
Width: 1004
VWidth: 0
Flags: HMW
LayerCount: 2
Fore
SplineSet
740 295 m 1
 985 700 l 1
 1189 699 l 1
 671 -45 l 1
 588 371 l 1
 243 -47 l 1
 186 700 l 1
 378 700 l 1
 371 299 l 1
 694 740 l 1
 740 295 l 1
EndSplineSet
EndChar

StartChar: N
Encoding: 78 78 17
Width: 746
VWidth: 0
Flags: HMW
LayerCount: 2
Fore
SplineSet
705 700 m 1
 866 700 l 1
 616 -32 l 1
 308 390 l 1
 174 0 l 1
 11 0 l 1
 262 732 l 1
 570 310 l 1
 705 700 l 1
EndSplineSet
EndChar

StartChar: a
Encoding: 97 97 18
Width: 513
VWidth: 0
Flags: HMW
LayerCount: 2
Fore
SplineSet
161 136 m 0
 154 108 175 93 199 91 c 0
 261 86 303 139 333 186 c 1
 332 128 l 1
 294 47 225 -9 132 -9 c 0
 49 -9 -15 46 10 132 c 0
 39 229 146 278 241 278 c 0
 295 278 340 263 381 229 c 1
 360 159 l 1
 331 182 303 196 264 195 c 0
 224 194 170 176 161 136 c 0
169 316 m 1
 148 423 l 1
 215 450 286 473 359 473 c 0
 449 473 550 428 522 323 c 1
 412 0 l 1
 266 0 l 1
 372 293 l 1
 382 329 362 350 323 354 c 0
 271 359 216 335 169 316 c 1
EndSplineSet
Substitution2: "alt a" a.alt
EndChar

StartChar: X
Encoding: 88 88 19
Width: 649
VWidth: 0
Flags: HMW
LayerCount: 2
Fore
SplineSet
608 699 m 1
 822 699 l 1
 502 351 l 1
 610 0 l 1
 414 0 l 1
 368 225 l 1
 176 0 l 1
 -38 0 l 1
 307 366 l 1
 211 700 l 1
 408 700 l 1
 444 505 l 1
 608 699 l 1
EndSplineSet
EndChar

StartChar: K
Encoding: 75 75 20
Width: 662
VWidth: 0
Flags: HMW
LayerCount: 2
Fore
SplineSet
251 700 m 1
 426 700 l 1
 186 0 l 1
 13 0 l 1
 251 700 l 1
637 699 m 1
 845 699 l 1
 456 365 l 1
 607 0 l 1
 418 0 l 1
 262 375 l 1
 637 699 l 1
EndSplineSet
EndChar

StartChar: Y
Encoding: 89 89 21
Width: 624
VWidth: 0
Flags: HMW
LayerCount: 2
Fore
SplineSet
618 699 m 1
 819 699 l 1
 439 276 l 1
 344 0 l 1
 172 0 l 1
 274 293 l 1
 186 700 l 1
 369 700 l 1
 405 445 l 1
 618 699 l 1
EndSplineSet
EndChar

StartChar: B
Encoding: 66 66 22
Width: 628
VWidth: 0
Flags: HMW
LayerCount: 2
Fore
SplineSet
252 348 m 1
 278 422 l 1
 378 422 l 2
 424 422 479 449 496 497 c 0
 511 541 484 565 443 566 c 2
 376 566 l 1
 224 133 l 1
 295 133 l 2
 352 135 420 162 440 222 c 0
 458 277 417 299 369 301 c 2
 236 302 l 1
 269 396 l 1
 402 397 l 2
 519 396 642 332 603 196 c 0
 563 56 420 0 287 0 c 2
 12 0 l 1
 252 700 l 1
 489 700 l 2
 593 700 714 647 677 521 c 0
 641 399 505 349 389 348 c 2
 252 348 l 1
EndSplineSet
EndChar

StartChar: Z
Encoding: 90 90 23
Width: 585
VWidth: 0
Flags: HMW
LayerCount: 2
Fore
SplineSet
183 545 m 1
 237 700 l 1
 766 699 l 1
 268 149 l 1
 540 148 l 1
 487 0 l 1
 -54 0 l 1
 438 544 l 1
 183 545 l 1
EndSplineSet
EndChar

StartChar: o
Encoding: 111 111 24
Width: 555
VWidth: 0
Flags: HMW
LayerCount: 2
Fore
SplineSet
64 231 m 0
 101 368 238 470 380 470 c 0
 516 470 602 361 566 229 c 0
 529 92 392 -10 250 -10 c 0
 115 -10 28 99 64 231 c 0
217 229 m 0
 200 181 213 120 273 118 c 0
 335 116 394 176 413 231 c 0
 430 279 417 341 357 343 c 0
 295 345 236 284 217 229 c 0
EndSplineSet
EndChar

StartChar: J
Encoding: 74 74 25
Width: 314
VWidth: 0
Flags: HMW
LayerCount: 2
Fore
SplineSet
-152 -63 m 1
 -134 -79 -114 -96 -88 -95 c 0
 -44 -93 -7 -52 6 -14 c 2
 252 700 l 1
 434 700 l 1
 177 -54 l 2
 135 -173 22 -240 -102 -239 c 0
 -167 -239 -222 -216 -275 -180 c 1
 -152 -63 l 1
EndSplineSet
EndChar

StartChar: t
Encoding: 116 116 26
Width: 301
VWidth: 0
Flags: HMW
LayerCount: 2
Fore
SplineSet
107 460 m 1
 405 460 l 1
 360 333 l 1
 61 333 l 1
 107 460 l 1
236 620 m 1
 382 620 l 1
 168 0 l 1
 25 0 l 1
 236 620 l 1
EndSplineSet
EndChar

StartChar: d
Encoding: 100 100 27
Width: 581
VWidth: 0
Flags: HMW
LayerCount: 2
Fore
SplineSet
592 780 m 1
 745 780 l 1
 476 0 l 1
 326 0 l 1
 592 780 l 1
51 231 m 0
 87 350 200 471 332 470 c 0
 464 469 479 330 448 229 c 0
 413 115 318 -9 188 -9 c 0
 55 -9 18 123 51 231 c 0
208 229 m 0
 190 181 200 117 261 115 c 0
 324 113 384 177 405 231 c 0
 422 277 416 342 356 345 c 0
 292 348 229 284 208 229 c 0
EndSplineSet
EndChar

StartChar: l
Encoding: 108 108 28
Width: 255
VWidth: 0
Flags: HMW
LayerCount: 2
Fore
SplineSet
264 780 m 1
 417 780 l 1
 148 0 l 1
 -1 0 l 1
 264 780 l 1
EndSplineSet
EndChar

StartChar: i
Encoding: 105 105 29
Width: 260
VWidth: 0
Flags: HMW
LayerCount: 2
Fore
SplineSet
203 631 m 0
 203 680 242 714 292 714 c 0
 342 714 381 680 381 631 c 0
 381 582 342 548 292 548 c 0
 242 548 203 582 203 631 c 0
159 460 m 1
 307 460 l 1
 149 0 l 1
 3 0 l 1
 159 460 l 1
EndSplineSet
EndChar

StartChar: r
Encoding: 114 114 30
Width: 395
VWidth: 0
Flags: HMW
LayerCount: 2
Fore
SplineSet
304 460 m 1
 145 0 l 1
 -3 0 l 1
 156 460 l 1
 304 460 l 1
385 301 m 1
 372 313 360 326 340 327 c 0
 285 329 239 266 223 225 c 1
 215 282 l 1
 249 363 331 470 413 471 c 0
 446 471 466 452 487 429 c 1
 385 301 l 1
EndSplineSet
EndChar

StartChar: c
Encoding: 99 99 31
Width: 464
VWidth: 0
Flags: HMW
LayerCount: 2
Fore
SplineSet
216 229 m 0
 196 172 221 117 285 114 c 0
 342 111 394 146 437 179 c 1
 398 30 l 1
 352 6 304 -10 251 -10 c 0
 115 -10 25 97 62 231 c 0
 100 370 239 470 382 470 c 0
 432 470 475 456 516 430 c 1
 475 280 l 1
 453 320 422 347 373 347 c 0
 300 347 237 292 216 229 c 0
EndSplineSet
EndChar

StartChar: b
Encoding: 98 98 32
Width: 581
VWidth: 0
Flags: HMW
LayerCount: 2
Fore
SplineSet
415 780 m 1
 147 0 l 1
 -4 0 l 1
 263 780 l 1
 415 780 l 1
579 229 m 0
 543 110 432 -11 300 -10 c 0
 168 -9 152 130 183 231 c 0
 218 345 314 469 444 469 c 0
 577 469 612 337 579 229 c 0
424 231 m 0
 442 279 430 343 369 345 c 0
 306 347 247 283 226 229 c 0
 209 183 215 118 275 115 c 0
 339 112 403 176 424 231 c 0
EndSplineSet
EndChar

StartChar: p
Encoding: 112 112 33
Width: 581
VWidth: 0
Flags: HMW
LayerCount: 2
Fore
SplineSet
73 -220 m 1
 -79 -220 l 1
 155 460 l 1
 304 460 l 1
 73 -220 l 1
579 229 m 0
 542 109 432 -18 297 -17 c 0
 160 -16 158 130 189 230 c 0
 224 344 313 475 446 476 c 0
 582 477 612 337 579 229 c 0
424 231 m 0
 442 281 426 336 367 339 c 0
 306 342 245 283 226 229 c 0
 209 181 219 125 277 121 c 0
 339 117 404 176 424 231 c 0
EndSplineSet
EndChar

StartChar: q
Encoding: 113 113 34
Width: 581
VWidth: 0
Flags: HMW
LayerCount: 2
Fore
SplineSet
250 -220 m 1
 483 460 l 1
 635 460 l 1
 401 -220 l 1
 250 -220 l 1
51 231 m 0
 88 351 199 478 334 477 c 0
 471 476 473 330 442 230 c 0
 407 116 319 -15 186 -16 c 0
 50 -17 18 123 51 231 c 0
208 229 m 0
 190 179 205 124 264 121 c 0
 325 118 386 177 405 231 c 0
 422 279 411 335 353 339 c 0
 291 343 228 284 208 229 c 0
EndSplineSet
EndChar

StartChar: h
Encoding: 104 104 35
Width: 535
VWidth: 0
Flags: HMW
LayerCount: 2
Fore
SplineSet
417 780 m 1
 149 0 l 1
 -2 0 l 1
 265 780 l 1
 417 780 l 1
378 280 m 2
 388 311 396 355 352 361 c 0
 304 367 267 315 245 281 c 1
 216 282 l 1
 253 377 319 476 432 477 c 0
 540 478 560 390 532 303 c 1
 429 0 l 1
 279 0 l 1
 378 280 l 2
EndSplineSet
EndChar

StartChar: n
Encoding: 110 110 36
Width: 542
VWidth: 0
Flags: HMW
LayerCount: 2
Fore
SplineSet
307 460 m 1
 149 0 l 1
 -3 0 l 1
 156 460 l 1
 307 460 l 1
378 280 m 2
 388 311 395 355 351 361 c 0
 303 367 267 315 245 281 c 1
 215 275 l 1
 251 370 317 469 430 470 c 0
 537 471 565 386 536 297 c 1
 435 0 l 1
 279 0 l 1
 378 280 l 2
EndSplineSet
EndChar

StartChar: m
Encoding: 109 109 37
Width: 773
VWidth: 0
Flags: HMW
LayerCount: 2
Fore
SplineSet
353 281 m 2
 361 308 375 355 334 361 c 0
 290 368 256 312 238 281 c 1
 209 275 l 1
 245 367 308 468 418 470 c 0
 522 472 531 385 507 303 c 2
 404 0 l 1
 254 0 l 1
 353 281 l 2
301 460 m 1
 143 0 l 1
 -3 0 l 1
 156 460 l 1
 301 460 l 1
767 297 m 2
 667 0 l 1
 515 0 l 1
 615 280 l 2
 623 307 637 355 596 361 c 0
 552 368 518 312 500 281 c 1
 448 275 l 1
 488 371 566 469 680 470 c 0
 786 471 791 379 767 297 c 2
EndSplineSet
EndChar

StartChar: k
Encoding: 107 107 38
Width: 547
VWidth: 0
Flags: HMW
LayerCount: 2
Fore
SplineSet
263 780 m 1
 409 780 l 1
 141 0 l 1
 -3 0 l 1
 263 780 l 1
445 459 m 1
 636 459 l 1
 373 261 l 1
 484 0 l 1
 322 0 l 1
 204 278 l 1
 445 459 l 1
EndSplineSet
EndChar

StartChar: u
Encoding: 117 117 39
Width: 542
VWidth: 0
Flags: HMW
LayerCount: 2
Fore
SplineSet
284 0 m 1
 443 460 l 1
 594 460 l 1
 436 0 l 1
 284 0 l 1
214 180 m 1
 205 149 196 105 240 99 c 0
 288 93 325 145 347 179 c 1
 376 185 l 1
 340 90 274 -9 161 -10 c 0
 54 -11 30 73 55 163 c 1
 156 460 l 1
 312 460 l 1
 214 180 l 1
EndSplineSet
EndChar

StartChar: e
Encoding: 101 101 40
Width: 541
VWidth: 0
Flags: HMW
LayerCount: 2
Fore
SplineSet
139 198 m 1
 164 281 l 1
 411 281 l 1
 418 321 406 365 357 366 c 0
 292 367 248 305 224 253 c 2
 214 229 l 1
 197 177 196 107 264 102 c 0
 312 98 354 130 388 159 c 1
 517 124 l 1
 448 45 358 -11 250 -10 c 0
 111 -9 29 95 64 230 c 0
 68 247 74 263 81 279 c 0
 133 394 250 470 376 470 c 0
 515 470 584 369 552 237 c 0
 549 224 544 211 540 198 c 1
 139 198 l 1
EndSplineSet
EndChar

StartChar: g
Encoding: 103 103 41
Width: 575
VWidth: 0
Flags: HMW
LayerCount: 2
Fore
SplineSet
-31 -33 m 1
 109 -34 l 1
 108 -81 119 -114 173 -115 c 0
 246 -117 306 -52 328 11 c 2
 483 460 l 1
 629 460 l 1
 475 9 l 2
 426 -131 319 -238 162 -239 c 0
 30 -240 -45 -163 -31 -33 c 1
54 237 m 0
 90 356 201 471 332 470 c 0
 463 469 482 339 450 236 c 0
 415 122 321 3 192 3 c 0
 61 3 21 128 54 237 c 0
210 235 m 0
 192 185 207 131 266 128 c 0
 327 125 388 184 407 238 c 0
 424 286 414 344 356 345 c 0
 287 346 230 290 210 235 c 0
EndSplineSet
EndChar

StartChar: f
Encoding: 102 102 42
Width: 325
VWidth: 0
Flags: HMW
LayerCount: 2
Fore
SplineSet
117 460 m 1
 422 460 l 1
 377 333 l 1
 72 333 l 1
 117 460 l 1
468 634 m 1
 460 645 451 658 434 659 c 0
 399 659 373 618 363 590 c 2
 158 0 l 1
 13 0 l 1
 227 631 l 2
 262 723 341 798 445 796 c 0
 493 796 526 774 559 742 c 1
 468 634 l 1
EndSplineSet
EndChar

StartChar: s
Encoding: 115 115 43
Width: 430
VWidth: 0
Flags: HMW
LayerCount: 2
Fore
SplineSet
90 175 m 1
 119 139 158 90 212 95 c 0
 232 96 263 110 269 131 c 0
 279 169 228 183 203 194 c 0
 141 221 98 270 117 341 c 0
 140 427 228 468 315 469 c 0
 384 470 441 440 490 400 c 1
 414 304 l 1
 388 334 357 363 313 363 c 0
 294 363 260 354 253 333 c 0
 240 295 310 281 333 271 c 0
 392 245 433 194 417 127 c 0
 394 33 310 -18 214 -19 c 0
 128 -20 61 23 5 76 c 1
 90 175 l 1
EndSplineSet
EndChar

StartChar: y
Encoding: 121 121 44
Width: 492
VWidth: 0
Flags: HMW
LayerCount: 2
Fore
SplineSet
613 459 m 1
 97 -219 l 1
 -62 -219 l 1
 139 45 l 1
 96 460 l 1
 250 460 l 1
 266 90 l 1
 186 93 l 1
 451 459 l 1
 613 459 l 1
EndSplineSet
EndChar

StartChar: w
Encoding: 119 119 45
Width: 718
VWidth: 0
Flags: HMW
LayerCount: 2
Fore
SplineSet
98 460 m 1
 247 460 l 1
 254 234 l 1
 471 500 l 1
 504 232 l 1
 672 459 l 1
 837 459 l 1
 441 -32 l 1
 392 237 l 1
 155 -33 l 1
 98 460 l 1
EndSplineSet
EndChar

StartChar: v
Encoding: 118 118 46
Width: 498
VWidth: 0
Flags: HMW
LayerCount: 2
Fore
SplineSet
106 460 m 1
 262 460 l 1
 280 215 l 1
 453 459 l 1
 617 459 l 1
 201 -59 l 1
 106 460 l 1
EndSplineSet
EndChar

StartChar: x
Encoding: 120 120 47
Width: 504
VWidth: 0
Flags: HMW
LayerCount: 2
Fore
SplineSet
436 460 m 1
 612 460 l 1
 368 228 l 1
 468 0 l 1
 313 0 l 1
 260 137 l 1
 139 0 l 1
 -43 0 l 1
 212 252 l 1
 120 460 l 1
 280 460 l 1
 322 343 l 1
 436 460 l 1
EndSplineSet
EndChar

StartChar: z
Encoding: 122 122 48
Width: 492
VWidth: 0
Flags: HMW
LayerCount: 2
Fore
SplineSet
287 321 m 1
 106 321 l 1
 155 459 l 1
 591 459 l 1
 267 139 l 1
 446 139 l 1
 397 0 l 1
 -48 0 l 1
 287 321 l 1
EndSplineSet
EndChar

StartChar: j
Encoding: 106 106 49
Width: 256
VWidth: 0
Flags: HMW
LayerCount: 2
Fore
SplineSet
199 631 m 0
 199 680 238 714 288 714 c 0
 338 714 378 680 378 631 c 0
 378 582 338 548 288 548 c 0
 238 548 199 582 199 631 c 0
-120 -77 m 1
 -112 -89 -96 -102 -79 -102 c 0
 -45 -103 -22 -58 -13 -33 c 2
 157 460 l 1
 303 460 l 1
 122 -74 l 2
 87 -166 13 -241 -91 -239 c 0
 -139 -239 -176 -217 -210 -185 c 1
 -120 -77 l 1
EndSplineSet
EndChar

StartChar: P
Encoding: 80 80 50
Width: 588
VWidth: 0
Flags: HMW
LayerCount: 2
Fore
SplineSet
251 700 m 1
 420 700 l 1
 179 0 l 1
 13 0 l 1
 251 700 l 1
306 559 m 1
 354 700 l 1
 475 700 l 1
 612 697 698 614 667 470 c 0
 635 321 485 244 338 241 c 1
 196 241 l 1
 246 383 l 1
 367 383 l 1
 423 384 485 414 506 471 c 0
 525 523 495 557 444 558 c 2
 306 559 l 1
EndSplineSet
EndChar

StartChar: U
Encoding: 85 85 51
Width: 661
VWidth: 0
Flags: HMW
LayerCount: 2
Fore
SplineSet
247 700 m 1
 415 700 l 1
 256 243 l 2
 240 190 243 128 311 126 c 0
 388 124 437 184 460 244 c 1
 618 700 l 1
 786 700 l 1
 626 230 l 2
 573 80 451 -29 278 -29 c 0
 124 -29 42 84 87 230 c 1
 247 700 l 1
EndSplineSet
EndChar

StartChar: S
Encoding: 83 83 52
Width: 591
VWidth: 0
Flags: HMW
LayerCount: 2
Fore
SplineSet
171 252 m 1
 187 192 212 128 286 128 c 0
 329 128 378 153 395 195 c 0
 418 254 346 280 305 300 c 0
 217 342 159 417 189 518 c 0
 227 643 365 717 490 716 c 0
 593 715 658 655 686 560 c 1
 544 489 l 1
 528 531 507 569 456 569 c 0
 420 569 372 546 358 511 c 0
 335 455 432 431 467 414 c 0
 557 373 600 292 571 196 c 0
 530 62 392 -24 255 -23 c 0
 136 -22 56 57 32 169 c 1
 171 252 l 1
EndSplineSet
EndChar

StartChar: at
Encoding: 64 64 53
Width: 724
VWidth: 0
Flags: HMW
LayerCount: 2
Fore
SplineSet
354 319 m 0
 347 299 340 261 367 254 c 0
 411 242 466 330 478 364 c 0
 485 384 492 424 464 430 c 0
 419 441 366 353 354 319 c 0
235 313 m 0
 261 404 347 534 455 530 c 0
 539 527 545 432 527 369 c 0
 502 278 422 154 315 154 c 0
 225 154 215 244 235 313 c 0
70 320 m 0
 137 530 344 724 573 723 c 0
 763 722 840 554 789 390 c 0
 755 281 660 137 530 143 c 0
 454 147 449 203 456 264 c 1
 453 297 l 1
 550 520 l 1
 662 520 l 1
 566 309 l 2
 562 300 558 292 555 282 c 0
 551 271 546 249 561 243 c 0
 611 223 667 358 679 391 c 0
 718 498 697 620 558 621 c 0
 385 622 235 473 180 320 c 0
 135 197 172 79 318 76 c 0
 385 75 450 97 511 119 c 1
 521 25 l 1
 448 -7 370 -27 290 -26 c 0
 91 -23 14 143 70 320 c 0
EndSplineSet
EndChar

StartChar: period
Encoding: 46 46 54
Width: 303
VWidth: 0
Flags: HMW
LayerCount: 2
Fore
SplineSet
32 69 m 0
 32 120 72 163 128 163 c 0
 184 163 224 120 224 69 c 0
 224 18 184 -24 128 -24 c 0
 72 -24 32 18 32 69 c 0
EndSplineSet
EndChar

StartChar: comma
Encoding: 44 44 55
Width: 304
VWidth: 0
Flags: HMW
LayerCount: 2
Fore
SplineSet
90 108 m 1
 235 73 l 1
 32 -171 l 1
 -81 -146 l 1
 90 108 l 1
EndSplineSet
EndChar

StartChar: colon
Encoding: 58 58 56
Width: 303
VWidth: 0
Flags: HMW
LayerCount: 2
Fore
SplineSet
26 69 m 0
 26 120 65 163 121 163 c 0
 177 163 217 120 217 69 c 0
 217 18 177 -24 121 -24 c 0
 65 -24 26 18 26 69 c 0
153 442 m 0
 153 493 193 536 249 536 c 0
 305 536 345 493 345 442 c 0
 345 391 305 348 249 348 c 0
 193 348 153 391 153 442 c 0
EndSplineSet
EndChar

StartChar: semicolon
Encoding: 59 59 57
Width: 371
VWidth: 0
Flags: HMW
LayerCount: 2
Fore
SplineSet
201 436 m 0
 201 487 241 529 297 529 c 0
 353 529 392 487 392 436 c 0
 392 385 353 342 297 342 c 0
 241 342 201 385 201 436 c 0
111 108 m 1
 256 73 l 1
 53 -171 l 1
 -59 -146 l 1
 111 108 l 1
EndSplineSet
EndChar

StartChar: quotedbl
Encoding: 34 34 58
Width: 488
VWidth: 0
Flags: HMW
LayerCount: 2
Fore
SplineSet
276 700 m 1
 439 699 l 1
 239 382 l 1
 136 381 l 1
 276 700 l 1
476 700 m 1
 639 699 l 1
 438 382 l 1
 336 381 l 1
 476 700 l 1
EndSplineSet
EndChar

StartChar: exclam
Encoding: 33 33 59
Width: 324
VWidth: 0
Flags: HMW
LayerCount: 2
Fore
SplineSet
256 700 m 1
 440 700 l 1
 251 233 l 1
 126 233 l 1
 256 700 l 1
36 63 m 0
 36 114 76 150 132 150 c 0
 188 150 228 114 228 63 c 0
 228 12 188 -25 132 -25 c 0
 76 -25 36 12 36 63 c 0
EndSplineSet
EndChar

StartChar: quotesingle
Encoding: 39 39 60
Width: 289
VWidth: 0
Flags: HMW
LayerCount: 2
Fore
SplineSet
276 700 m 1
 439 699 l 1
 239 382 l 1
 136 381 l 1
 276 700 l 1
EndSplineSet
EndChar

StartChar: numbersign
Encoding: 35 35 61
Width: 629
VWidth: 0
Flags: HMW
LayerCount: 2
Fore
SplineSet
158 412 m 1
 197 534 l 1
 729 534 l 1
 686 411 l 1
 546 411 l 1
 521 417 l 1
 328 417 l 1
 300 411 l 1
 158 412 l 1
34 171 m 1
 77 294 l 1
 203 294 l 1
 231 288 l 1
 449 288 l 1
 479 294 l 1
 609 294 l 1
 566 171 l 1
 34 171 l 1
624 699 m 1
 764 699 l 1
 362 0 l 1
 226 0 l 1
 355 224 l 1
 376 249 l 1
 494 455 l 1
 504 488 l 1
 624 699 l 1
398 700 m 1
 535 699 l 1
 413 489 l 1
 388 456 l 1
 271 251 l 1
 263 225 l 1
 134 0 l 1
 -0 0 l 1
 398 700 l 1
EndSplineSet
EndChar

StartChar: hyphen
Encoding: 45 45 62
Width: 208
VWidth: 0
Flags: HMW
LayerCount: 2
Fore
SplineSet
6 171 m 1
 52 304 l 1
 259 304 l 1
 212 171 l 1
 6 171 l 1
EndSplineSet
EndChar

StartChar: dollar
Encoding: 36 36 63
Width: 585
VWidth: 0
Flags: HMW
LayerCount: 2
Fore
SplineSet
463 818 m 1
 587 818 l 1
 522 636 l 1
 411 636 l 1
 463 818 l 1
236 62 m 1
 346 62 l 1
 297 -112 l 1
 175 -112 l 1
 236 62 l 1
545 489 m 1
 532 533 515 581 461 582 c 0
 422 583 377 557 363 520 c 0
 339 456 432 433 473 414 c 0
 562 374 610 293 583 196 c 0
 546 61 404 -12 271 -10 c 0
 156 -8 79 65 46 169 c 1
 181 252 l 1
 200 192 227 128 301 128 c 0
 344 128 394 153 408 196 c 0
 428 255 353 281 312 301 c 0
 225 343 164 421 192 521 c 0
 225 640 361 710 478 710 c 0
 582 710 650 654 686 560 c 1
 545 489 l 1
EndSplineSet
EndChar

StartChar: bar
Encoding: 124 124 64
Width: 334
VWidth: 0
Flags: HMW
LayerCount: 2
Fore
SplineSet
299 785 m 1
 451 785 l 1
 143 -215 l 1
 -9 -215 l 1
 299 785 l 1
EndSplineSet
EndChar

StartChar: zero
Encoding: 48 48 65
Width: 624
VWidth: 0
Flags: HMW
LayerCount: 2
Fore
SplineSet
261 350 m 0
 241 294 195 140 295 136 c 0
 398 132 466 270 495 350 c 0
 515 406 561 560 461 564 c 0
 358 568 290 430 261 350 c 0
100 350 m 0
 155 521 294 713 492 713 c 0
 695 713 705 499 657 350 c 0
 602 178 463 -14 264 -13 c 0
 63 -12 52 202 100 350 c 0
EndSplineSet
Substitution2: "Tabular Numbers lookup" uniFF10
EndChar

StartChar: one
Encoding: 49 49 66
Width: 480
VWidth: 0
Flags: HMW
LayerCount: 2
Fore
SplineSet
173 493 m 1
 227 647 l 1
 577 716 l 1
 332 0 l 1
 169 0 l 1
 353 534 l 1
 173 493 l 1
EndSplineSet
Substitution2: "Tabular Numbers lookup" uniFF11
EndChar

StartChar: two
Encoding: 50 50 67
Width: 620
VWidth: 0
Flags: HMW
LayerCount: 2
Fore
SplineSet
-22 0 m 1
 369 322 l 2
 420 364 492 413 510 480 c 0
 522 523 505 563 457 565 c 0
 386 569 343 496 317 441 c 1
 152 441 l 1
 202 589 325 715 490 714 c 0
 614 714 719 620 684 490 c 0
 663 410 600 348 536 300 c 2
 342 159 l 1
 599 158 l 1
 550 0 l 1
 -22 0 l 1
EndSplineSet
Substitution2: "Tabular Numbers lookup" uniFF12
EndChar

StartChar: four
Encoding: 52 52 68
Width: 661
VWidth: 0
Flags: HMW
LayerCount: 2
Fore
SplineSet
-5 125 m 1
 573 699 l 1
 706 700 l 1
 466 0 l 1
 291 0 l 1
 351 175 l 1
 373 186 l 1
 461 436 l 1
 265 249 l 1
 491 248 l 1
 516 270 l 1
 663 270 l 1
 612 124 l 1
 -5 125 l 1
EndSplineSet
Substitution2: "Tabular Numbers lookup" uniFF14
EndChar

StartChar: slash
Encoding: 47 47 69
Width: 575
VWidth: 0
Flags: HMW
LayerCount: 2
Fore
SplineSet
600 699 m 1
 754 699 l 1
 60 -149 l 1
 -97 -149 l 1
 600 699 l 1
EndSplineSet
EndChar

StartChar: backslash
Encoding: 92 92 70
Width: 514
VWidth: 0
Flags: HMW
LayerCount: 2
Fore
SplineSet
200 700 m 1
 339 700 l 1
 445 0 l 1
 308 0 l 1
 200 700 l 1
EndSplineSet
EndChar

StartChar: eight
Encoding: 56 56 71
Width: 592
VWidth: 0
Flags: HMW
LayerCount: 2
Fore
SplineSet
197 532 m 0
 232 649 361 716 477 716 c 0
 584 716 684 647 650 530 c 0
 616 412 486 342 369 342 c 0
 261 342 163 415 197 532 c 0
347 513 m 0
 336 480 345 438 385 437 c 0
 433 436 477 479 490 516 c 0
 502 549 492 591 451 592 c 0
 402 593 360 551 347 513 c 0
57 191 m 0
 95 321 239 396 368 396 c 0
 486 396 596 318 558 189 c 0
 520 61 375 -16 247 -16 c 0
 130 -16 20 64 57 191 c 0
231 215 m 0
 216 174 229 126 278 125 c 0
 336 124 386 171 403 218 c 0
 416 258 401 304 354 305 c 0
 298 306 248 259 231 215 c 0
EndSplineSet
Substitution2: "Tabular Numbers lookup" uniFF18
EndChar

StartChar: nine
Encoding: 57 57 72
Width: 633
VWidth: 0
Flags: HMW
LayerCount: 2
Fore
SplineSet
531 454 m 0
 549 508 528 566 465 568 c 0
 399 570 334 513 314 453 c 0
 296 400 316 339 379 337 c 0
 445 335 511 394 531 454 c 0
294 4 m 1
 73 4 l 1
 366 252 l 1
 410 267 l 1
 375 245 338 227 295 227 c 0
 173 228 122 348 150 454 c 0
 190 606 338 716 494 716 c 0
 644 716 736 600 695 454 c 0
 673 376 618 312 561 257 c 2
 294 4 l 1
EndSplineSet
Substitution2: "Tabular Numbers lookup" uniFF19
EndChar

StartChar: three
Encoding: 51 51 73
Width: 586
VWidth: 0
Flags: HMW
LayerCount: 2
Fore
SplineSet
330 339 m 1
 350 415 l 1
 404 424 489 446 504 509 c 0
 513 544 495 574 458 575 c 0
 406 578 370 534 346 494 c 1
 190 495 l 1
 236 620 346 713 484 713 c 0
 595 713 703 641 670 518 c 0
 630 372 458 343 330 339 c 1
270 -16 m 0
 127 -15 54 88 75 224 c 1
 236 223 l 1
 230 171 239 126 301 123 c 0
 354 121 411 158 428 209 c 0
 453 284 376 299 320 305 c 1
 344 391 l 1
 465 386 629 348 587 191 c 0
 551 55 402 -17 270 -16 c 0
EndSplineSet
Substitution2: "Tabular Numbers lookup" uniFF13
EndChar

StartChar: five
Encoding: 53 53 74
Width: 609
VWidth: 0
Flags: HMW
LayerCount: 2
Fore
SplineSet
610 223 m 0
 570 78 423 -12 277 -13 c 0
 180 -14 97 22 28 77 c 1
 128 218 l 1
 166 178 210 146 271 145 c 0
 335 145 415 177 435 244 c 0
 453 305 400 335 346 337 c 0
 275 340 206 318 140 296 c 1
 352 700 l 1
 743 700 l 1
 696 550 l 1
 434 551 l 1
 350 428 l 1
 388 442 427 452 468 451 c 0
 593 448 640 332 610 223 c 0
EndSplineSet
Substitution2: "Tabular Numbers lookup" uniFF15
EndChar

StartChar: six
Encoding: 54 54 75
Width: 633
VWidth: 0
Flags: HMW
LayerCount: 2
Fore
SplineSet
250 246 m 0
 232 192 253 134 316 132 c 0
 382 130 447 187 467 247 c 0
 485 300 465 361 402 363 c 0
 336 365 270 306 250 246 c 0
487 696 m 1
 709 696 l 1
 415 448 l 1
 371 433 l 1
 406 455 443 473 486 473 c 0
 608 472 659 352 631 246 c 0
 591 94 443 -16 287 -16 c 0
 137 -16 45 100 86 246 c 0
 108 324 163 388 220 443 c 2
 487 696 l 1
EndSplineSet
Substitution2: "Tabular Numbers lookup" uniFF16
EndChar

StartChar: seven
Encoding: 55 55 76
Width: 569
VWidth: 0
Flags: HMW
LayerCount: 2
Fore
SplineSet
156 539 m 1
 207 699 l 1
 757 699 l 1
 221 0 l 1
 33 0 l 1
 456 538 l 1
 156 539 l 1
EndSplineSet
Substitution2: "Tabular Numbers lookup" uniFF17
EndChar

StartChar: plus
Encoding: 43 43 77
Width: 636
VWidth: 0
Flags: HMW
LayerCount: 2
Fore
SplineSet
71 196 m 1
 123 344 l 1
 643 344 l 1
 591 195 l 1
 71 196 l 1
371 542 m 1
 528 542 l 1
 340 -3 l 1
 185 -3 l 1
 371 542 l 1
EndSplineSet
EndChar

StartChar: equal
Encoding: 61 61 78
Width: 588
VWidth: 0
Flags: HMW
LayerCount: 2
Fore
SplineSet
23 82 m 1
 70 215 l 1
 561 215 l 1
 514 81 l 1
 23 82 l 1
94 290 m 1
 141 424 l 1
 632 424 l 1
 586 290 l 1
 94 290 l 1
EndSplineSet
EndChar

StartChar: percent
Encoding: 37 37 79
Width: 871
VWidth: 0
Flags: HMW
LayerCount: 2
Fore
SplineSet
146 535 m 0
 175 633 278 719 382 719 c 0
 484 719 537 626 510 533 c 0
 481 435 378 349 274 349 c 0
 172 349 119 442 146 535 c 0
268 532 m 0
 260 506 269 471 307 470 c 0
 340 469 379 506 388 536 c 0
 396 562 388 597 350 598 c 0
 317 599 277 562 268 532 c 0
493 168 m 0
 522 266 625 352 729 352 c 0
 831 352 883 259 856 166 c 0
 827 68 725 -18 621 -18 c 0
 519 -18 466 75 493 168 c 0
615 165 m 0
 606 139 619 104 650 103 c 0
 683 102 722 132 735 169 c 0
 744 195 731 230 700 231 c 0
 667 232 628 202 615 165 c 0
793 699 m 1
 959 699 l 1
 209 0 l 1
 45 0 l 1
 793 699 l 1
EndSplineSet
EndChar

StartChar: ampersand
Encoding: 38 38 80
Width: 710
VWidth: 0
Flags: HMW
LayerCount: 2
Fore
SplineSet
293 371 m 2
 262 425 233 480 250 544 c 0
 278 650 398 717 502 717 c 0
 597 717 677 646 652 546 c 0
 626 445 517 387 432 343 c 0
 364 308 245 285 219 201 c 0
 204 152 236 122 283 118 c 0
 422 106 549 252 636 341 c 1
 718 260 l 1
 595 130 429 -16 239 -13 c 0
 125 -12 26 66 59 188 c 0
 97 328 245 369 363 420 c 0
 411 442 500 475 513 534 c 0
 519 561 507 592 470 593 c 0
 436 594 401 569 390 533 c 0
 375 484 410 437 432 399 c 2
 657 0 l 1
 500 0 l 1
 293 371 l 2
EndSplineSet
EndChar

StartChar: question
Encoding: 63 63 81
Width: 591
VWidth: 0
Flags: HMW
LayerCount: 2
Fore
SplineSet
512 501 m 0
 530 553 498 586 446 588 c 0
 378 591 316 545 267 503 c 1
 189 593 l 1
 272 662 370 720 482 719 c 0
 605 718 700 625 662 499 c 0
 625 378 507 313 392 285 c 1
 358 203 l 1
 231 203 l 1
 270 381 l 1
 299 381 l 1
 375 385 485 421 512 501 c 0
145 61 m 0
 145 108 187 143 237 143 c 0
 288 143 330 108 330 61 c 0
 330 13 287 -24 237 -24 c 0
 186 -24 145 12 145 61 c 0
EndSplineSet
EndChar

StartChar: parenleft
Encoding: 40 40 82
Width: 321
VWidth: 0
Flags: HMW
LayerCount: 2
Fore
SplineSet
376 779 m 1
 516 778 l 1
 412 626 320 466 264 290 c 0
 214 132 192 -36 217 -201 c 1
 86 -201 l 1
 55 -37 69 130 116 290 c 0
 169 469 260 634 376 779 c 1
EndSplineSet
EndChar

StartChar: parenright
Encoding: 41 41 83
Width: 321
VWidth: 0
Flags: HMW
LayerCount: 2
Fore
SplineSet
55 -199 m 1
 -83 -198 l 1
 21 -46 113 114 169 290 c 0
 219 448 240 616 215 781 c 1
 347 781 l 1
 378 617 364 450 317 290 c 0
 264 111 171 -54 55 -199 c 1
EndSplineSet
EndChar

StartChar: asterisk
Encoding: 42 42 84
Width: 557
VWidth: 0
Flags: HMW
LayerCount: 2
Fore
SplineSet
618 603 m 1
 616 467 l 1
 380 426 l 1
 381 501 l 1
 618 603 l 1
518 309 m 1
 382 226 l 1
 347 447 l 1
 410 485 l 1
 518 309 l 1
233 231 m 1
 144 320 l 1
 355 483 l 1
 405 437 l 1
 233 231 l 1
151 471 m 1
 233 602 l 1
 409 493 l 1
 366 428 l 1
 151 471 l 1
392 700 m 1
 535 699 l 1
 420 464 l 1
 348 463 l 1
 392 700 l 1
EndSplineSet
EndChar

StartChar: less
Encoding: 60 60 85
Width: 602
VWidth: 0
Flags: HMW
LayerCount: 2
Fore
SplineSet
304 260 m 1
 541 141 l 1
 489 1 l 1
 78 216 l 1
 113 318 l 1
 674 534 l 1
 617 371 l 1
 304 260 l 1
EndSplineSet
EndChar

StartChar: greater
Encoding: 62 62 86
Width: 602
VWidth: 0
Flags: HMW
LayerCount: 2
Fore
SplineSet
370 268 m 1
 134 387 l 1
 184 527 l 1
 596 312 l 1
 561 210 l 1
 1 -6 l 1
 56 157 l 1
 370 268 l 1
EndSplineSet
EndChar

StartChar: bracketleft
Encoding: 91 91 87
Width: 342
VWidth: 0
Flags: HMW
LayerCount: 2
Fore
SplineSet
398 646 m 1
 172 -86 l 1
 267 -86 l 1
 225 -220 l 1
 -20 -220 l 1
 289 780 l 1
 534 780 l 1
 492 647 l 1
 398 646 l 1
EndSplineSet
EndChar

StartChar: bracketright
Encoding: 93 93 88
Width: 342
VWidth: 0
Flags: HMW
LayerCount: 2
Fore
SplineSet
50 -86 m 1
 276 646 l 1
 180 646 l 1
 223 780 l 1
 468 780 l 1
 159 -220 l 1
 -87 -220 l 1
 -45 -87 l 1
 50 -86 l 1
EndSplineSet
EndChar

StartChar: asciicircum
Encoding: 94 94 89
Width: 479
VWidth: 0
Flags: HMW
LayerCount: 2
Fore
SplineSet
388 574 m 1
 272 448 l 1
 127 448 l 1
 378 709 l 1
 468 710 l 1
 539 447 l 1
 414 447 l 1
 388 574 l 1
EndSplineSet
EndChar

StartChar: underscore
Encoding: 95 95 90
Width: 500
VWidth: 0
Flags: HMW
LayerCount: 2
Fore
SplineSet
-110 -154 m 1
 -76 -57 l 1
 430 -57 l 1
 396 -154 l 1
 -110 -154 l 1
EndSplineSet
EndChar

StartChar: grave
Encoding: 96 96 91
Width: 352
VWidth: 0
Flags: HMW
LayerCount: 2
Fore
SplineSet
217 658 m 1
 337 707 l 1
 434 542 l 1
 346 504 l 1
 217 658 l 1
EndSplineSet
EndChar

StartChar: braceleft
Encoding: 123 123 92
Width: 377
VWidth: 0
Flags: HMW
LayerCount: 2
Fore
SplineSet
410 607 m 2
 374 489 l 2
 339 378 288 300 168 281 c 1
 173 301 l 1
 286 277 276 184 247 89 c 2
 210 -28 l 2
 201 -56 208 -76 237 -77 c 2
 274 -78 l 1
 238 -199 l 1
 157 -200 l 2
 77 -198 14 -143 39 -60 c 2
 96 124 l 2
 110 173 114 204 71 234 c 1
 103 345 l 1
 153 369 177 404 195 457 c 2
 251 641 l 2
 278 725 355 777 442 780 c 1
 540 780 l 1
 504 659 l 1
 473 659 l 2
 442 659 419 638 410 607 c 2
EndSplineSet
EndChar

StartChar: braceright
Encoding: 125 125 93
Width: 377
VWidth: 0
Flags: HMW
LayerCount: 2
Fore
SplineSet
81 -28 m 2
 118 91 l 2
 153 202 204 280 324 299 c 1
 319 279 l 1
 206 303 215 396 244 491 c 2
 282 609 l 2
 291 636 282 656 254 657 c 2
 218 657 l 1
 254 780 l 1
 335 780 l 2
 415 778 477 723 452 640 c 2
 396 456 l 2
 382 407 377 376 420 346 c 1
 389 235 l 1
 339 211 315 176 297 123 c 2
 241 -61 l 2
 214 -146 136 -197 49 -200 c 1
 -49 -200 l 1
 -13 -79 l 1
 18 -79 l 2
 49 -79 72 -59 81 -28 c 2
EndSplineSet
EndChar

StartChar: asciitilde
Encoding: 126 126 94
Width: 541
VWidth: 0
Flags: HMW
LayerCount: 2
Fore
SplineSet
168 162 m 1
 52 168 l 1
 52 176 52 185 54 193 c 0
 62 228 84 262 109 288 c 0
 145 324 195 347 246 346 c 0
 287 345 321 323 351 297 c 0
 365 285 384 264 405 264 c 0
 424 264 444 287 451 303 c 0
 456 314 456 326 456 337 c 1
 573 331 l 1
 573 321 573 311 571 302 c 0
 563 267 543 231 518 205 c 0
 488 174 442 152 398 153 c 0
 357 154 325 178 294 203 c 0
 276 218 255 238 230 236 c 0
 205 234 180 213 171 191 c 0
 167 182 168 172 168 162 c 1
EndSplineSet
EndChar

StartChar: exclamdown
Encoding: 161 161 95
Width: 324
VWidth: 0
Flags: HMW
LayerCount: 2
Fore
SplineSet
122 -229 m 1
 -64 -229 l 1
 128 238 l 1
 251 238 l 1
 122 -229 l 1
340 406 m 0
 327 359 272 321 224 322 c 0
 176 323 143 361 156 410 c 0
 169 457 223 496 271 495 c 0
 319 494 353 455 340 406 c 0
EndSplineSet
EndChar

StartChar: cent
Encoding: 162 162 96
Width: 545
VWidth: 0
Flags: HMW
LayerCount: 2
Fore
SplineSet
177 38 m 1
 289 38 l 1
 244 -112 l 1
 115 -112 l 1
 177 38 l 1
220 229 m 0
 199 173 221 117 286 114 c 0
 344 111 397 148 441 180 c 1
 396 29 l 1
 350 5 302 -10 249 -10 c 0
 113 -9 27 98 67 231 c 0
 109 370 250 469 394 470 c 0
 444 470 486 456 527 430 c 1
 482 278 l 1
 461 319 431 347 382 347 c 0
 314 347 243 292 220 229 c 0
353 578 m 1
 483 578 l 1
 421 428 l 1
 310 428 l 1
 353 578 l 1
EndSplineSet
EndChar

StartChar: sterling
Encoding: 163 163 97
Width: 575
VWidth: 0
Flags: HMW
LayerCount: 2
Fore
SplineSet
133 370 m 1
 496 370 l 1
 459 269 l 1
 97 269 l 1
 133 370 l 1
517 467 m 1
 524 514 527 571 465 573 c 0
 415 575 367 537 348 493 c 0
 317 420 380 346 358 270 c 0
 325 156 199 85 94 53 c 1
 170 141 l 1
 506 142 l 1
 456 0 l 1
 -6 0 l 1
 79 85 184 168 220 288 c 0
 245 370 176 440 199 522 c 0
 232 640 370 710 486 709 c 0
 601 708 675 630 665 517 c 1
 517 467 l 1
EndSplineSet
EndChar

StartChar: currency
Encoding: 164 164 98
Width: 542
VWidth: 0
Flags: HMW
LayerCount: 2
Fore
SplineSet
137 507 m 1
 215 566 l 1
 279 457 l 1
 207 404 l 1
 137 507 l 1
45 34 m 1
 0 106 l 1
 124 197 l 1
 168 130 l 1
 45 34 l 1
518 404 m 1
 472 474 l 1
 597 566 l 1
 641 498 l 1
 518 404 l 1
358 138 m 1
 435 197 l 1
 500 89 l 1
 428 35 l 1
 358 138 l 1
93 301 m 0
 131 427 256 540 392 540 c 0
 525 540 582 416 546 299 c 0
 508 173 384 60 248 60 c 0
 115 60 57 184 93 301 c 0
227 299 m 0
 210 255 225 203 279 201 c 0
 336 199 394 251 412 301 c 0
 429 345 415 397 361 399 c 0
 304 401 245 349 227 299 c 0
EndSplineSet
EndChar

StartChar: yen
Encoding: 165 165 99
Width: 632
VWidth: 0
Flags: HMW
LayerCount: 2
Fore
SplineSet
76 264 m 1
 111 365 l 1
 662 365 l 1
 626 264 l 1
 76 264 l 1
25 114 m 1
 60 215 l 1
 611 215 l 1
 575 114 l 1
 25 114 l 1
622 699 m 1
 822 699 l 1
 444 278 l 1
 348 0 l 1
 175 0 l 1
 277 293 l 1
 189 700 l 1
 372 700 l 1
 408 445 l 1
 622 699 l 1
EndSplineSet
EndChar

StartChar: brokenbar
Encoding: 166 166 100
Width: 334
VWidth: 0
Flags: HMW
LayerCount: 2
Fore
SplineSet
275 695 m 1
 427 695 l 1
 335 429 l 1
 183 429 l 1
 275 695 l 1
283 271 m 1
 190 5 l 1
 38 5 l 1
 130 271 l 1
 283 271 l 1
EndSplineSet
EndChar

StartChar: section
Encoding: 167 167 101
Width: 549
VWidth: 0
Flags: HMW
LayerCount: 2
Fore
SplineSet
521 549 m 1
 499 574 474 598 438 597 c 0
 420 597 378 586 373 565 c 0
 366 536 426 528 444 520 c 0
 506 499 552 446 533 377 c 0
 502 267 378 236 278 230 c 1
 292 270 l 1
 329 283 376 303 389 344 c 0
 408 398 347 415 310 434 c 0
 253 463 217 513 236 579 c 0
 263 671 364 722 454 723 c 0
 522 724 578 699 617 646 c 1
 521 549 l 1
119 172 m 1
 147 136 184 102 238 104 c 0
 260 104 300 116 307 140 c 0
 317 173 262 183 241 193 c 0
 179 215 118 261 138 335 c 0
 168 445 300 472 398 478 c 1
 386 441 l 1
 350 427 301 409 287 368 c 0
 267 311 338 298 375 280 c 0
 434 251 472 195 453 129 c 0
 425 31 314 -22 219 -23 c 0
 134 -24 69 14 23 76 c 1
 119 172 l 1
EndSplineSet
EndChar

StartChar: dieresis
Encoding: 168 168 102
Width: 482
VWidth: 0
Flags: HMW
LayerCount: 2
Fore
SplineSet
430 633 m 0
 440 676 493 714 537 713 c 0
 582 712 614 674 603 629 c 0
 593 586 541 548 497 549 c 0
 452 550 419 588 430 633 c 0
199 633 m 0
 209 676 262 714 306 713 c 0
 351 712 383 674 372 629 c 0
 362 586 310 548 266 549 c 0
 221 550 188 588 199 633 c 0
EndSplineSet
EndChar

StartChar: copyright
Encoding: 169 169 103
Width: 752
VWidth: 0
Flags: HMW
LayerCount: 2
Fore
SplineSet
348 349 m 0
 328 290 354 233 421 230 c 0
 472 228 519 257 560 283 c 1
 531 172 l 1
 490 149 448 131 400 131 c 0
 276 131 206 235 238 351 c 0
 271 473 390 569 518 570 c 0
 564 570 601 554 637 527 c 1
 607 416 l 1
 582 449 554 471 510 471 c 0
 439 471 371 415 348 349 c 0
165 350 m 0
 117 206 176 43 346 41 c 0
 522 39 682 190 735 350 c 0
 783 494 724 657 554 659 c 0
 378 661 218 510 165 350 c 0
108 350 m 0
 162 541 347 711 551 710 c 0
 749 709 841 527 791 350 c 0
 737 159 552 -11 348 -10 c 0
 150 -9 58 173 108 350 c 0
EndSplineSet
EndChar

StartChar: registered
Encoding: 174 174 104
Width: 752
VWidth: 0
Flags: HMW
LayerCount: 2
Fore
SplineSet
422 327 m 1
 508 327 l 1
 566 150 l 1
 455 150 l 1
 422 327 l 1
377 570 m 1
 479 570 l 1
 349 150 l 1
 247 150 l 1
 377 570 l 1
413 483 m 1
 439 569 l 1
 517 570 l 1
 593 567 662 523 641 438 c 0
 619 351 534 306 450 302 c 1
 354 301 l 1
 380 380 l 1
 453 381 l 1
 483 384 525 401 535 434 c 0
 544 464 521 479 495 482 c 1
 413 483 l 1
165 350 m 0
 117 206 176 43 346 41 c 0
 522 39 682 190 735 350 c 0
 783 494 724 657 554 659 c 0
 378 661 218 510 165 350 c 0
108 350 m 0
 162 541 347 711 551 710 c 0
 749 709 841 527 791 350 c 0
 737 159 552 -11 348 -10 c 0
 150 -9 58 173 108 350 c 0
EndSplineSet
EndChar

StartChar: ordfeminine
Encoding: 170 170 105
Width: 254
VWidth: 0
Flags: HMW
LayerCount: 2
Fore
SplineSet
217 528 m 0
 214 516 222 507 234 506 c 0
 265 505 285 532 302 552 c 1
 300 522 l 1
 277 486 249 455 202 456 c 0
 161 457 128 487 140 530 c 0
 154 576 211 601 255 602 c 0
 284 603 305 592 328 577 c 1
 316 543 l 1
 302 552 288 563 269 562 c 0
 252 562 222 547 217 528 c 0
222 623 m 1
 213 681 l 1
 246 693 279 705 315 705 c 0
 361 705 407 682 398 629 c 1
 342 460 l 1
 267 461 l 1
 323 610 l 1
 320 627 321 638 301 642 c 0
 276 647 245 632 222 623 c 1
EndSplineSet
EndChar

StartChar: ordmasculine
Encoding: 186 186 106
Width: 261
VWidth: 0
Flags: HMW
LayerCount: 2
Fore
SplineSet
159 582 m 0
 178 648 249 699 318 699 c 0
 386 699 431 645 412 578 c 0
 393 511 321 461 252 461 c 0
 184 461 140 515 159 582 c 0
236 579 m 0
 228 558 233 527 260 525 c 0
 289 523 326 556 335 581 c 0
 343 602 337 634 310 636 c 0
 281 638 245 604 236 579 c 0
EndSplineSet
EndChar

StartChar: guillemotleft
Encoding: 171 171 107
Width: 509
VWidth: 0
Flags: HMW
LayerCount: 2
Fore
SplineSet
367 253 m 1
 442 59 l 1
 335 -1 l 1
 252 264 l 1
 498 509 l 1
 575 438 l 1
 367 253 l 1
174 253 m 1
 249 59 l 1
 142 -1 l 1
 58 264 l 1
 305 509 l 1
 381 438 l 1
 174 253 l 1
EndSplineSet
EndChar

StartChar: guillemotright
Encoding: 187 187 108
Width: 509
VWidth: 0
Flags: HMW
LayerCount: 2
Fore
SplineSet
209 257 m 1
 133 451 l 1
 241 511 l 1
 324 246 l 1
 78 1 l 1
 1 72 l 1
 209 257 l 1
403 257 m 1
 327 451 l 1
 434 511 l 1
 518 246 l 1
 271 1 l 1
 195 72 l 1
 403 257 l 1
EndSplineSet
EndChar

StartChar: uni00AD
Encoding: 173 173 109
Width: 197
VWidth: 0
Flags: HMW
LayerCount: 2
Fore
SplineSet
20 201 m 1
 44 275 l 1
 237 275 l 1
 213 201 l 1
 20 201 l 1
EndSplineSet
EndChar

StartChar: logicalnot
Encoding: 172 172 110
Width: 612
VWidth: 0
Flags: HMW
LayerCount: 2
Fore
SplineSet
100 271 m 1
 143 404 l 1
 640 404 l 1
 560 175 l 1
 454 175 l 1
 492 271 l 1
 100 271 l 1
EndSplineSet
EndChar

StartChar: macron
Encoding: 175 175 111
Width: 500
VWidth: 0
Flags: HMW
LayerCount: 2
Fore
SplineSet
214 571 m 1
 256 704 l 1
 612 704 l 1
 570 571 l 1
 214 571 l 1
EndSplineSet
EndChar

StartChar: degree
Encoding: 176 176 112
Width: 278
VWidth: 0
Flags: HMW
LayerCount: 2
Fore
SplineSet
163 598 m 0
 182 664 254 719 323 719 c 0
 392 719 435 662 416 595 c 0
 397 528 325 474 255 474 c 0
 186 474 144 532 163 598 c 0
236 595 m 0
 228 573 237 542 264 540 c 0
 294 538 332 572 342 598 c 0
 350 620 341 652 314 654 c 0
 284 656 246 621 236 595 c 0
EndSplineSet
EndChar

StartChar: plusminus
Encoding: 177 177 113
Width: 595
VWidth: 0
Flags: HMW
LayerCount: 2
Fore
SplineSet
27 7 m 1
 68 139 l 1
 548 139 l 1
 506 7 l 1
 27 7 l 1
127 332 m 1
 170 471 l 1
 650 471 l 1
 606 332 l 1
 127 332 l 1
379 620 m 1
 533 620 l 1
 396 183 l 1
 244 183 l 1
 379 620 l 1
EndSplineSet
EndChar

StartChar: uni00B2
Encoding: 178 178 114
Width: 385
VWidth: 0
Flags: HMW
LayerCount: 2
Fore
SplineSet
58 283 m 1
 300 475 l 2
 331 499 380 529 391 570 c 0
 397 593 390 618 364 621 c 0
 322 626 294 577 276 547 c 1
 174 548 l 1
 210 634 281 711 381 710 c 0
 457 710 518 652 495 574 c 0
 481 527 444 491 406 463 c 2
 287 378 l 1
 438 376 l 1
 405 282 l 1
 58 283 l 1
EndSplineSet
EndChar

StartChar: uni00B3
Encoding: 179 179 115
Width: 344
VWidth: 0
Flags: HMW
LayerCount: 2
Fore
SplineSet
256 484 m 1
 271 528 l 1
 305 535 354 547 366 586 c 0
 372 605 361 623 341 624 c 0
 310 625 289 599 272 578 c 1
 175 579 l 1
 209 650 269 706 353 707 c 0
 420 707 486 664 464 590 c 0
 438 503 332 489 256 484 c 1
217 270 m 0
 128 271 91 332 100 414 c 1
 196 414 l 1
 196 385 196 357 232 354 c 0
 261 351 302 379 311 407 c 0
 326 452 277 458 246 464 c 1
 263 514 l 1
 335 509 436 488 409 393 c 0
 387 313 294 269 217 270 c 0
EndSplineSet
EndChar

StartChar: acute
Encoding: 180 180 116
Width: 352
VWidth: 0
Flags: HMW
LayerCount: 2
Fore
SplineSet
470 648 m 1
 259 505 l 1
 180 552 l 1
 366 706 l 1
 470 648 l 1
EndSplineSet
EndChar

StartChar: mu
Encoding: 181 181 117
Width: 542
VWidth: 0
Flags: HMW
LayerCount: 2
Fore
SplineSet
284 0 m 1
 443 460 l 1
 594 460 l 1
 436 0 l 1
 284 0 l 1
214 180 m 1
 205 149 196 105 240 99 c 0
 288 93 325 145 347 179 c 1
 380 185 l 1
 343 90 274 -9 161 -10 c 0
 54 -11 30 73 55 163 c 1
 156 460 l 1
 312 460 l 1
 214 180 l 1
155 460 m 1
 301 460 l 1
 33 -320 l 1
 -110 -320 l 1
 155 460 l 1
EndSplineSet
EndChar

StartChar: paragraph
Encoding: 182 182 118
Width: 634
VWidth: 0
Flags: HMW
LayerCount: 2
Fore
SplineSet
421 606 m 1
 453 700 l 1
 677 700 l 1
 644 606 l 1
 421 606 l 1
635 700 m 1
 767 700 l 1
 452 -220 l 1
 320 -220 l 1
 635 700 l 1
453 700 m 1
 586 700 l 1
 271 -220 l 1
 139 -220 l 1
 453 700 l 1
315 271 m 1
 196 284 128 366 165 486 c 0
 206 617 322 700 453 700 c 1
 315 271 l 1
EndSplineSet
EndChar

StartChar: periodcentered
Encoding: 183 183 119
Width: 303
VWidth: 0
Flags: HMW
LayerCount: 2
Fore
SplineSet
97 271 m 0
 110 318 165 363 215 362 c 0
 266 361 296 314 283 267 c 0
 270 220 214 175 164 176 c 0
 113 177 84 224 97 271 c 0
EndSplineSet
EndChar

StartChar: uni00B9
Encoding: 185 185 120
Width: 453
VWidth: 0
Flags: HMW
LayerCount: 2
Fore
SplineSet
262 569 m 1
 294 662 l 1
 507 704 l 1
 359 274 l 1
 259 274 l 1
 369 593 l 1
 262 569 l 1
EndSplineSet
EndChar

StartChar: cedilla
Encoding: 184 184 121
Width: 371
VWidth: 0
Flags: HMW
LayerCount: 2
Fore
SplineSet
136 70 m 1
 254 66 l 1
 121 -55 l 1
 131 -53 142 -50 152 -51 c 0
 204 -56 229 -102 215 -151 c 0
 197 -216 124 -256 60 -258 c 0
 10 -260 -32 -242 -74 -216 c 1
 -13 -151 l 1
 7 -163 27 -177 53 -176 c 0
 72 -175 119 -160 123 -137 c 0
 127 -116 97 -109 83 -108 c 0
 54 -106 22 -116 -7 -122 c 1
 136 70 l 1
EndSplineSet
EndChar

StartChar: questiondown
Encoding: 191 191 122
Width: 591
VWidth: 0
Flags: HMW
LayerCount: 2
Fore
SplineSet
211 199 m 0
 193 147 225 114 277 112 c 0
 345 109 407 155 456 197 c 1
 535 107 l 1
 452 38 353 -20 241 -19 c 0
 118 -18 24 75 62 201 c 0
 99 322 216 387 331 415 c 1
 366 497 l 1
 492 497 l 1
 453 319 l 1
 425 319 l 1
 349 315 238 279 211 199 c 0
572 638 m 0
 560 593 502 556 457 557 c 0
 411 558 375 595 387 642 c 0
 399 687 456 725 501 724 c 0
 547 723 584 685 572 638 c 0
EndSplineSet
EndChar

StartChar: multiply
Encoding: 215 215 123
Width: 560
VWidth: 0
Flags: HMW
LayerCount: 2
Fore
SplineSet
84 2 m 1
 22 106 l 1
 229 262 l 1
 129 420 l 1
 245 509 l 1
 338 348 l 1
 542 508 l 1
 605 404 l 1
 397 248 l 1
 497 90 l 1
 381 1 l 1
 289 162 l 1
 84 2 l 1
EndSplineSet
EndChar

StartChar: Oslash
Encoding: 216 216 124
Width: 743
VWidth: 0
Flags: HMW
LayerCount: 2
Fore
SplineSet
271 350 m 0
 237 259 255 145 372 143 c 0
 492 140 594 245 634 350 c 0
 668 441 650 555 533 557 c 0
 413 560 311 455 271 350 c 0
94 350 m 0
 157 550 353 718 567 717 c 0
 773 716 869 535 811 350 c 0
 748 150 550 -24 335 -23 c 0
 127 -22 36 165 94 350 c 0
852 756 m 1
 911 696 l 1
 46 -56 l 1
 -11 -2 l 1
 852 756 l 1
EndSplineSet
EndChar

StartChar: Thorn
Encoding: 222 222 125
Width: 577
VWidth: 0
Flags: HMW
LayerCount: 2
Fore
SplineSet
257 700 m 1
 405 700 l 1
 164 0 l 1
 19 0 l 1
 257 700 l 1
259 444 m 1
 307 580 l 1
 427 580 l 0
 562 576 665 496 621 352 c 0
 577 206 438 131 293 127 c 0
 150 127 l 1
 199 262 l 1
 320 262 l 1
 383 265 449 291 473 354 c 0
 496 415 455 439 400 443 c 1
 259 444 l 1
EndSplineSet
EndChar

StartChar: divide
Encoding: 247 247 126
Width: 602
VWidth: 0
Flags: HMW
LayerCount: 2
Fore
SplineSet
345 559 m 0
 358 606 412 652 462 651 c 0
 513 650 542 602 529 555 c 0
 516 508 462 463 412 464 c 0
 361 465 332 512 345 559 c 0
188 101 m 0
 201 148 256 193 306 192 c 0
 357 191 386 144 373 97 c 0
 360 50 305 5 255 6 c 0
 204 7 175 54 188 101 c 0
55 261 m 1
 103 399 l 1
 665 399 l 1
 617 261 l 1
 55 261 l 1
EndSplineSet
EndChar

StartChar: oslash
Encoding: 248 248 127
Width: 513
VWidth: 0
Flags: HMW
LayerCount: 2
Fore
SplineSet
51 231 m 0
 93 368 231 470 375 470 c 0
 513 470 594 361 554 229 c 0
 512 92 374 -10 230 -10 c 0
 92 -10 11 99 51 231 c 0
193 229 m 0
 173 175 188 114 254 112 c 0
 322 110 391 169 413 231 c 0
 432 283 415 346 351 348 c 0
 284 350 216 289 193 229 c 0
539 505 m 1
 593 467 l 1
 52 -49 l 1
 1 -14 l 1
 539 505 l 1
EndSplineSet
EndChar

StartChar: circumflex
Encoding: 710 710 128
Width: 451
VWidth: 0
Flags: HMW
LayerCount: 2
Fore
SplineSet
393 626 m 1
 279 544 l 1
 194 622 l 1
 422 756 l 1
 569 611 l 1
 449 543 l 1
 393 626 l 1
EndSplineSet
EndChar

StartChar: ogonek
Encoding: 731 731 129
Width: 244
VWidth: 0
Flags: HMW
LayerCount: 2
Fore
SplineSet
112 -110 m 1
 126 -183 l 1
 95 -204 61 -220 23 -220 c 0
 -35 -219 -79 -178 -65 -118 c 0
 -47 -42 43 -5 106 25 c 1
 145 0 l 1
 110 -24 52 -49 40 -94 c 0
 36 -109 39 -126 57 -129 c 0
 74 -132 98 -117 112 -110 c 1
EndSplineSet
EndChar

StartChar: tilde
Encoding: 732 732 130
Width: 498
VWidth: 0
Flags: HMW
LayerCount: 2
Fore
SplineSet
229 641 m 1
 260 686 306 735 365 732 c 0
 409 730 435 679 479 682 c 0
 511 684 537 714 559 734 c 1
 612 655 l 1
 576 615 523 568 465 573 c 0
 422 577 393 630 349 624 c 0
 320 620 303 596 287 575 c 1
 229 641 l 1
EndSplineSet
EndChar

StartChar: ring
Encoding: 730 730 131
Width: 309
VWidth: 0
Flags: HMW
LayerCount: 2
Fore
SplineSet
242 771 m 0
 260 833 330 884 395 884 c 0
 460 884 502 830 484 767 c 0
 466 704 397 653 331 653 c 0
 266 653 224 708 242 771 c 0
319 767 m 0
 314 750 321 725 341 723 c 0
 364 720 400 750 407 770 c 0
 412 787 404 814 384 816 c 0
 361 819 326 787 319 767 c 0
EndSplineSet
EndChar

StartChar: dotaccent
Encoding: 729 729 132
Width: 282
VWidth: 0
Flags: HMW
LayerCount: 2
Fore
SplineSet
279 817 m 0
 291 860 343 897 387 896 c 0
 432 895 463 856 451 811 c 0
 439 768 387 731 343 732 c 0
 298 733 267 772 279 817 c 0
EndSplineSet
EndChar

StartChar: uni2010
Encoding: 8208 8208 133
Width: 208
VWidth: 0
Flags: HMW
LayerCount: 2
Fore
SplineSet
6 171 m 1
 52 304 l 1
 259 304 l 1
 212 171 l 1
 6 171 l 1
EndSplineSet
EndChar

StartChar: endash
Encoding: 8211 8211 134
Width: 738
VWidth: 0
Flags: HMW
LayerCount: 2
Fore
SplineSet
67 171 m 1
 113 304 l 1
 721 304 l 1
 674 171 l 1
 67 171 l 1
EndSplineSet
EndChar

StartChar: figuredash
Encoding: 8210 8210 135
Width: 591
VWidth: 0
Flags: HMW
LayerCount: 2
Fore
SplineSet
67 171 m 1
 113 304 l 1
 570 304 l 1
 524 171 l 1
 67 171 l 1
EndSplineSet
EndChar

StartChar: emdash
Encoding: 8212 8212 136
Width: 885
VWidth: 0
Flags: HMW
LayerCount: 2
Fore
SplineSet
67 171 m 1
 113 304 l 1
 871 304 l 1
 824 171 l 1
 67 171 l 1
EndSplineSet
EndChar

StartChar: minus
Encoding: 8722 8722 137
Width: 557
VWidth: 0
Flags: HMW
LayerCount: 2
Fore
SplineSet
55 171 m 1
 101 304 l 1
 558 304 l 1
 512 171 l 1
 55 171 l 1
EndSplineSet
EndChar

StartChar: quoteright
Encoding: 8217 8217 138
Width: 312
VWidth: 0
Flags: HMW
LayerCount: 2
Fore
SplineSet
278 700 m 1
 440 699 l 1
 253 445 l 1
 140 445 l 1
 278 700 l 1
EndSplineSet
EndChar

StartChar: quoteleft
Encoding: 8216 8216 139
Width: 312
VWidth: 0
Flags: HMW
LayerCount: 2
Fore
SplineSet
318 444 m 1
 156 445 l 1
 343 699 l 1
 457 699 l 1
 318 444 l 1
EndSplineSet
EndChar

StartChar: quotesinglbase
Encoding: 8218 8218 140
Width: 312
VWidth: 0
Flags: HMW
LayerCount: 2
Fore
SplineSet
76 80 m 1
 238 79 l 1
 51 -175 l 1
 -62 -175 l 1
 76 80 l 1
EndSplineSet
EndChar

StartChar: quotedblleft
Encoding: 8220 8220 141
Width: 531
VWidth: 0
Flags: HMW
LayerCount: 2
Fore
SplineSet
318 444 m 1
 156 445 l 1
 343 699 l 1
 457 699 l 1
 318 444 l 1
536 444 m 1
 374 445 l 1
 561 699 l 1
 675 699 l 1
 536 444 l 1
EndSplineSet
EndChar

StartChar: quotedblright
Encoding: 8221 8221 142
Width: 531
VWidth: 0
Flags: HMW
LayerCount: 2
Fore
SplineSet
278 700 m 1
 440 699 l 1
 253 445 l 1
 140 445 l 1
 278 700 l 1
497 700 m 1
 659 699 l 1
 472 445 l 1
 358 445 l 1
 497 700 l 1
EndSplineSet
EndChar

StartChar: perthousand
Encoding: 8240 8240 143
Width: 1302
VWidth: 0
Flags: HMW
LayerCount: 2
Fore
SplineSet
924 168 m 0
 953 266 1056 352 1160 352 c 0
 1262 352 1315 259 1288 166 c 0
 1259 68 1156 -18 1052 -18 c 0
 950 -18 897 75 924 168 c 0
1046 165 m 0
 1038 139 1047 106 1078 103 c 0
 1111 100 1156 139 1165 169 c 0
 1173 195 1165 228 1134 231 c 0
 1101 234 1055 195 1046 165 c 0
146 535 m 0
 175 633 278 719 382 719 c 0
 484 719 537 626 510 533 c 0
 481 435 378 349 274 349 c 0
 172 349 119 442 146 535 c 0
268 532 m 0
 260 506 269 473 300 470 c 0
 333 467 379 506 388 536 c 0
 396 562 387 595 356 598 c 0
 323 601 277 562 268 532 c 0
493 168 m 0
 522 266 625 352 729 352 c 0
 831 352 883 259 856 166 c 0
 827 68 725 -18 621 -18 c 0
 519 -18 466 75 493 168 c 0
615 165 m 0
 607 139 616 106 647 103 c 0
 680 100 726 139 735 169 c 0
 743 195 734 228 703 231 c 0
 670 234 624 195 615 165 c 0
793 699 m 1
 959 699 l 1
 209 0 l 1
 45 0 l 1
 793 699 l 1
EndSplineSet
EndChar

StartChar: guilsinglleft
Encoding: 8249 8249 144
Width: 329
VWidth: 0
Flags: HMW
LayerCount: 2
Fore
SplineSet
174 253 m 1
 249 59 l 1
 142 -1 l 1
 58 264 l 1
 305 509 l 1
 381 438 l 1
 174 253 l 1
EndSplineSet
EndChar

StartChar: guilsinglright
Encoding: 8250 8250 145
Width: 329
VWidth: 0
Flags: HMW
LayerCount: 2
Fore
SplineSet
221 257 m 1
 146 451 l 1
 253 511 l 1
 337 246 l 1
 90 1 l 1
 14 72 l 1
 221 257 l 1
EndSplineSet
EndChar

StartChar: uni2031
Encoding: 8241 8241 146
Width: 1733
VWidth: 0
Flags: HMW
LayerCount: 2
Fore
SplineSet
1355 168 m 0
 1384 266 1487 352 1591 352 c 0
 1693 352 1746 259 1719 166 c 0
 1690 68 1587 -18 1483 -18 c 0
 1381 -18 1328 75 1355 168 c 0
1477 165 m 0
 1469 139 1478 106 1509 103 c 0
 1542 100 1588 139 1597 169 c 0
 1605 195 1596 228 1565 231 c 0
 1532 234 1486 195 1477 165 c 0
924 168 m 0
 953 266 1056 352 1160 352 c 0
 1262 352 1315 259 1288 166 c 0
 1259 68 1156 -18 1052 -18 c 0
 950 -18 897 75 924 168 c 0
1046 165 m 0
 1038 139 1047 106 1078 103 c 0
 1111 100 1156 139 1165 169 c 0
 1173 195 1165 228 1134 231 c 0
 1101 234 1055 195 1046 165 c 0
146 535 m 0
 175 633 278 719 382 719 c 0
 484 719 537 626 510 533 c 0
 481 435 378 349 274 349 c 0
 172 349 119 442 146 535 c 0
268 532 m 0
 260 506 269 473 300 470 c 0
 333 467 379 506 388 536 c 0
 396 562 387 595 356 598 c 0
 323 601 277 562 268 532 c 0
493 168 m 0
 522 266 625 352 729 352 c 0
 831 352 883 259 856 166 c 0
 827 68 725 -18 621 -18 c 0
 519 -18 466 75 493 168 c 0
615 165 m 0
 607 139 616 106 647 103 c 0
 680 100 726 139 735 169 c 0
 743 195 734 228 703 231 c 0
 670 234 624 195 615 165 c 0
793 699 m 1
 959 699 l 1
 209 0 l 1
 45 0 l 1
 793 699 l 1
EndSplineSet
EndChar

StartChar: uni203D
Encoding: 8253 8253 147
Width: 591
VWidth: 0
Flags: HMW
LayerCount: 2
Fore
SplineSet
518 481 m 0
 542 545 505 587 440 588 c 0
 371 590 314 550 267 504 c 1
 189 593 l 1
 267 667 370 719 480 718 c 0
 603 717 700 625 662 499 c 0
 618 353 460 287 320 277 c 1
 322 348 l 1
 401 360 488 400 518 481 c 0
319 503 m 1
 465 502 l 1
 333 203 l 1
 242 203 l 1
 319 503 l 1
152 65 m 0
 165 112 221 150 268 149 c 0
 316 148 352 109 339 61 c 0
 326 14 269 -25 222 -24 c 0
 174 -23 139 17 152 65 c 0
EndSplineSet
EndChar

StartChar: Euro
Encoding: 8364 8364 148
Width: 618
VWidth: 0
Flags: HMW
LayerCount: 2
Fore
SplineSet
125 381 m 1
 155 466 l 1
 622 466 l 1
 592 381 l 1
 125 381 l 1
66 249 m 1
 96 334 l 1
 559 334 l 1
 529 249 l 1
 66 249 l 1
305 350 m 0
 277 273 250 129 370 124 c 0
 430 121 488 153 538 182 c 1
 490 21 l 1
 443 -1 393 -19 340 -19 c 0
 137 -19 110 196 159 350 c 0
 215 527 370 721 573 720 c 0
 623 720 667 703 710 679 c 1
 660 516 l 1
 629 553 594 579 544 578 c 0
 423 577 342 450 305 350 c 0
EndSplineSet
EndChar

StartChar: fraction
Encoding: 8260 8260 149
Width: 686
VWidth: 0
Flags: HMW
LayerCount: 2
Fore
SplineSet
723 699 m 1
 853 698 l 1
 126 0 l 1
 -5 0 l 1
 723 699 l 1
EndSplineSet
EndChar

StartChar: onequarter
Encoding: 188 188 150
Width: 775
VWidth: 0
Flags: HMW
LayerCount: 2
Fore
SplineSet
771 699 m 1
 877 698 l 1
 149 0 l 1
 43 0 l 1
 771 699 l 1
160 569 m 1
 191 662 l 1
 405 704 l 1
 256 274 l 1
 157 274 l 1
 266 593 l 1
 160 569 l 1
346 76 m 1
 451 147 l 1
 625 149 l 1
 640 162 l 1
 753 162 l 1
 721 75 l 1
 346 76 l 1
469 106 m 1
 340 69 l 1
 696 419 l 1
 779 420 l 1
 634 0 l 1
 527 0 l 1
 560 96 l 1
 573 102 l 1
 628 256 l 1
 469 106 l 1
EndSplineSet
EndChar

StartChar: onehalf
Encoding: 189 189 151
Width: 843
VWidth: 0
Flags: HMW
LayerCount: 2
Fore
SplineSet
771 699 m 1
 877 698 l 1
 149 0 l 1
 43 0 l 1
 771 699 l 1
160 569 m 1
 191 662 l 1
 405 704 l 1
 256 274 l 1
 157 274 l 1
 266 593 l 1
 160 569 l 1
415 3 m 1
 657 195 l 2
 688 219 738 249 749 290 c 0
 755 313 747 338 721 341 c 0
 679 346 651 297 633 267 c 1
 531 268 l 1
 567 354 638 431 738 430 c 0
 814 430 875 372 852 294 c 0
 838 247 801 211 763 183 c 2
 644 98 l 1
 795 96 l 1
 762 2 l 1
 415 3 l 1
EndSplineSet
EndChar

StartChar: threequarters
Encoding: 190 190 152
Width: 828
VWidth: 0
Flags: HMW
LayerCount: 2
Fore
SplineSet
831 699 m 1
 937 698 l 1
 209 0 l 1
 103 0 l 1
 831 699 l 1
265 484 m 1
 279 528 l 1
 313 535 361 547 373 586 c 0
 379 605 369 623 349 624 c 0
 318 625 296 599 279 578 c 1
 183 579 l 1
 217 650 277 706 361 707 c 0
 428 707 494 664 472 590 c 0
 446 503 341 489 265 484 c 1
224 270 m 0
 135 271 99 332 108 414 c 1
 204 414 l 1
 204 385 204 357 240 354 c 0
 269 351 310 379 319 407 c 0
 334 452 285 458 254 464 c 1
 271 514 l 1
 343 509 444 488 417 393 c 0
 395 313 301 269 224 270 c 0
400 76 m 1
 505 147 l 1
 679 149 l 1
 694 162 l 1
 806 162 l 1
 775 75 l 1
 400 76 l 1
523 106 m 1
 393 69 l 1
 750 419 l 1
 832 420 l 1
 688 0 l 1
 581 0 l 1
 614 96 l 1
 627 102 l 1
 682 256 l 1
 523 106 l 1
EndSplineSet
EndChar

StartChar: uni2150
Encoding: 8528 8528 153
Width: 889
VWidth: 0
Flags: HMW
LayerCount: 2
Fore
SplineSet
749 699 m 1
 879 698 l 1
 151 0 l 1
 21 0 l 1
 749 699 l 1
160 569 m 1
 191 662 l 1
 405 704 l 1
 256 274 l 1
 157 274 l 1
 266 593 l 1
 160 569 l 1
599 324 m 1
 632 420 l 1
 966 419 l 1
 631 0 l 1
 514 0 l 1
 776 322 l 1
 599 324 l 1
EndSplineSet
EndChar

StartChar: uni2151
Encoding: 8529 8529 154
Width: 834
VWidth: 0
Flags: HMW
LayerCount: 2
Fore
SplineSet
742 699 m 1
 873 698 l 1
 145 0 l 1
 15 0 l 1
 742 699 l 1
160 569 m 1
 191 662 l 1
 405 704 l 1
 256 274 l 1
 157 274 l 1
 266 593 l 1
 160 569 l 1
757 276 m 0
 767 306 757 340 722 343 c 0
 684 347 637 307 626 273 c 0
 616 243 627 208 662 205 c 0
 700 201 746 242 757 276 c 0
609 5 m 1
 470 6 l 1
 651 151 l 1
 680 160 l 1
 659 149 638 139 613 139 c 0
 539 140 511 211 528 275 c 0
 553 365 644 431 736 431 c 0
 826 431 883 361 856 273 c 0
 842 227 807 189 773 156 c 1
 609 5 l 1
EndSplineSet
EndChar

StartChar: uni2152
Encoding: 8530 8530 155
Width: 1143
VWidth: 0
Flags: HMW
LayerCount: 2
Fore
SplineSet
742 699 m 1
 873 698 l 1
 145 0 l 1
 15 0 l 1
 742 699 l 1
160 569 m 1
 191 662 l 1
 405 704 l 1
 256 274 l 1
 157 274 l 1
 266 593 l 1
 160 569 l 1
565 296 m 1
 597 389 l 1
 810 431 l 1
 661 1 l 1
 562 1 l 1
 671 320 l 1
 565 296 l 1
896 209 m 0
 884 176 857 87 915 82 c 0
 975 77 1019 166 1036 211 c 0
 1048 244 1076 333 1018 338 c 0
 958 343 913 254 896 209 c 0
798 211 m 0
 829 312 914 428 1031 428 c 0
 1152 428 1161 300 1133 209 c 0
 1101 107 1019 -8 901 -8 c 0
 781 -8 770 120 798 211 c 0
EndSplineSet
EndChar

StartChar: onethird
Encoding: 8531 8531 156
Width: 826
VWidth: 0
Flags: HMW
LayerCount: 2
Fore
SplineSet
742 699 m 1
 872 698 l 1
 145 0 l 1
 14 0 l 1
 742 699 l 1
160 569 m 1
 191 662 l 1
 405 704 l 1
 256 274 l 1
 157 274 l 1
 266 593 l 1
 160 569 l 1
638 204 m 1
 652 248 l 1
 686 255 736 267 748 306 c 0
 754 325 743 343 723 344 c 0
 692 345 671 319 654 298 c 1
 557 299 l 1
 591 370 651 426 735 427 c 0
 802 427 869 384 847 310 c 0
 821 223 714 209 638 204 c 1
599 -10 m 0
 510 -9 473 52 482 134 c 1
 578 134 l 1
 578 105 578 77 614 74 c 0
 643 71 684 99 693 127 c 0
 708 172 660 178 629 184 c 1
 645 234 l 1
 717 229 818 208 791 113 c 0
 769 33 676 -11 599 -10 c 0
EndSplineSet
EndChar

StartChar: twothirds
Encoding: 8532 8532 157
Width: 951
VWidth: 0
Flags: HMW
LayerCount: 2
Fore
SplineSet
881 699 m 1
 1011 698 l 1
 282 0 l 1
 152 0 l 1
 881 699 l 1
63 283 m 1
 305 475 l 2
 336 499 385 529 396 570 c 0
 402 593 395 618 369 621 c 0
 327 626 299 577 281 547 c 1
 179 548 l 1
 215 634 286 711 386 710 c 0
 462 710 523 652 500 574 c 0
 486 527 448 491 410 463 c 2
 292 378 l 1
 443 376 l 1
 410 282 l 1
 63 283 l 1
764 204 m 1
 778 248 l 1
 812 255 862 267 874 306 c 0
 880 325 869 343 849 344 c 0
 818 345 796 319 779 298 c 1
 683 299 l 1
 717 370 777 426 861 427 c 0
 928 427 994 384 972 310 c 0
 946 223 840 209 764 204 c 1
724 -10 m 0
 635 -9 598 52 607 134 c 1
 704 134 l 1
 704 105 704 77 740 74 c 0
 769 71 810 99 819 127 c 0
 834 172 785 178 754 184 c 1
 771 234 l 1
 843 229 944 208 917 113 c 0
 895 33 801 -11 724 -10 c 0
EndSplineSet
EndChar

StartChar: uni2155
Encoding: 8533 8533 158
Width: 815
VWidth: 0
Flags: HMW
LayerCount: 2
Fore
SplineSet
742 699 m 1
 873 698 l 1
 145 0 l 1
 15 0 l 1
 742 699 l 1
160 569 m 1
 191 662 l 1
 405 704 l 1
 256 274 l 1
 157 274 l 1
 266 593 l 1
 160 569 l 1
788 131 m 0
 763 45 672 -8 586 -9 c 0
 526 -10 477 13 435 46 c 1
 496 128 l 1
 519 106 544 85 580 85 c 0
 615 85 675 106 684 146 c 0
 692 179 664 197 634 200 c 0
 591 203 548 188 508 177 c 1
 584 225 l 1
 619 248 660 271 704 269 c 0
 779 266 807 197 788 131 c 0
693 327 m 1
 621 222 l 1
 495 167 l 1
 641 417 l 1
 879 418 l 1
 847 328 l 1
 693 327 l 1
EndSplineSet
EndChar

StartChar: uni2156
Encoding: 8534 8534 159
Width: 949
VWidth: 0
Flags: HMW
LayerCount: 2
Fore
SplineSet
881 699 m 1
 1011 698 l 1
 282 0 l 1
 152 0 l 1
 881 699 l 1
63 283 m 1
 305 475 l 2
 336 499 385 529 396 570 c 0
 402 593 395 618 369 621 c 0
 327 626 299 577 281 547 c 1
 179 548 l 1
 215 634 286 711 386 710 c 0
 462 710 523 652 500 574 c 0
 486 527 448 491 410 463 c 2
 292 378 l 1
 443 376 l 1
 410 282 l 1
 63 283 l 1
914 131 m 0
 889 45 798 -8 712 -9 c 0
 652 -10 603 13 561 46 c 1
 622 128 l 1
 645 106 669 85 705 85 c 0
 740 85 800 106 809 146 c 0
 817 179 790 197 760 200 c 0
 717 203 673 188 633 177 c 1
 709 225 l 1
 744 248 785 271 829 269 c 0
 904 266 933 197 914 131 c 0
819 327 m 1
 747 222 l 1
 621 167 l 1
 767 417 l 1
 1004 418 l 1
 972 328 l 1
 819 327 l 1
EndSplineSet
EndChar

StartChar: uni2157
Encoding: 8535 8535 160
Width: 878
VWidth: 0
Flags: HMW
LayerCount: 2
Fore
SplineSet
812 699 m 1
 942 698 l 1
 215 0 l 1
 84 0 l 1
 812 699 l 1
261 484 m 1
 275 528 l 1
 309 535 358 547 370 586 c 0
 376 605 365 623 345 624 c 0
 314 625 293 599 276 578 c 1
 179 579 l 1
 213 650 274 706 358 707 c 0
 425 707 491 664 469 590 c 0
 443 503 337 489 261 484 c 1
222 270 m 0
 133 271 96 332 105 414 c 1
 201 414 l 1
 201 385 200 357 236 354 c 0
 265 351 307 379 316 407 c 0
 331 452 282 458 251 464 c 1
 268 514 l 1
 340 509 441 488 414 393 c 0
 392 313 299 269 222 270 c 0
840 131 m 0
 815 45 724 -8 638 -9 c 0
 578 -10 529 13 487 46 c 1
 547 128 l 1
 570 106 595 85 631 85 c 0
 666 85 726 106 735 146 c 0
 743 179 715 197 685 200 c 0
 642 203 598 188 558 177 c 1
 635 225 l 1
 670 248 711 271 755 269 c 0
 830 266 859 197 840 131 c 0
744 327 m 1
 672 222 l 1
 546 167 l 1
 692 417 l 1
 929 418 l 1
 898 328 l 1
 744 327 l 1
EndSplineSet
EndChar

StartChar: uni2158
Encoding: 8536 8536 161
Width: 960
VWidth: 0
Flags: HMW
LayerCount: 2
Fore
SplineSet
869 698 m 1
 1000 698 l 1
 272 0 l 1
 141 0 l 1
 869 698 l 1
79 356 m 1
 183 427 l 1
 357 429 l 1
 373 442 l 1
 485 442 l 1
 454 355 l 1
 79 356 l 1
202 386 m 1
 72 349 l 1
 428 699 l 1
 511 700 l 1
 367 280 l 1
 260 280 l 1
 293 376 l 1
 305 382 l 1
 361 536 l 1
 202 386 l 1
928 130 m 0
 903 44 811 -9 725 -10 c 0
 665 -11 616 12 574 45 c 1
 635 128 l 1
 658 106 683 85 719 85 c 0
 754 85 814 105 823 145 c 0
 831 178 803 197 773 200 c 0
 730 203 687 188 647 177 c 1
 723 225 l 1
 758 248 799 271 843 269 c 0
 918 266 947 196 928 130 c 0
832 327 m 1
 760 222 l 1
 634 166 l 1
 780 416 l 1
 1018 417 l 1
 986 328 l 1
 832 327 l 1
EndSplineSet
EndChar

StartChar: uni2159
Encoding: 8537 8537 162
Width: 824
VWidth: 0
Flags: HMW
LayerCount: 2
Fore
SplineSet
761 699 m 1
 891 698 l 1
 163 0 l 1
 33 0 l 1
 761 699 l 1
160 569 m 1
 191 662 l 1
 405 704 l 1
 256 274 l 1
 157 274 l 1
 266 593 l 1
 160 569 l 1
567 144 m 0
 557 114 567 80 602 77 c 0
 640 73 686 113 697 147 c 0
 707 177 698 211 663 215 c 0
 625 219 578 178 567 144 c 0
715 415 m 1
 855 414 l 1
 674 269 l 1
 645 260 l 1
 666 270 685 281 710 281 c 0
 784 282 814 208 797 145 c 0
 773 55 680 -11 588 -11 c 0
 498 -11 441 59 468 147 c 0
 482 193 516 231 550 264 c 1
 715 415 l 1
EndSplineSet
EndChar

StartChar: uni215A
Encoding: 8538 8538 163
Width: 878
VWidth: 0
Flags: HMW
LayerCount: 2
Fore
SplineSet
833 699 m 1
 963 698 l 1
 235 0 l 1
 105 0 l 1
 833 699 l 1
436 411 m 0
 411 325 320 272 234 271 c 0
 174 270 126 293 84 326 c 1
 144 408 l 1
 167 386 192 365 228 365 c 0
 263 365 323 386 332 426 c 0
 340 459 312 477 282 480 c 0
 239 483 195 468 155 457 c 1
 232 505 l 1
 267 528 307 551 351 549 c 0
 426 546 455 477 436 411 c 0
340 607 m 1
 268 502 l 1
 143 447 l 1
 288 697 l 1
 526 698 l 1
 494 608 l 1
 340 607 l 1
620 144 m 0
 610 114 621 80 656 77 c 0
 694 73 740 113 751 147 c 0
 761 177 751 211 716 215 c 0
 678 219 631 178 620 144 c 0
768 415 m 1
 907 414 l 1
 728 269 l 1
 699 260 l 1
 720 270 739 281 764 281 c 0
 838 282 867 208 850 145 c 0
 826 55 734 -11 642 -11 c 0
 552 -11 495 59 522 147 c 0
 536 193 570 231 604 264 c 1
 768 415 l 1
EndSplineSet
EndChar

StartChar: oneeighth
Encoding: 8539 8539 164
Width: 842
VWidth: 0
Flags: HMW
LayerCount: 2
Fore
SplineSet
761 699 m 1
 891 698 l 1
 163 0 l 1
 33 0 l 1
 761 699 l 1
160 569 m 1
 191 662 l 1
 405 704 l 1
 256 274 l 1
 157 274 l 1
 266 593 l 1
 160 569 l 1
584 321 m 0
 603 390 683 429 750 429 c 0
 814 429 878 388 858 317 c 0
 839 248 758 206 690 206 c 0
 625 206 565 250 584 321 c 0
675 307 m 0
 669 290 674 264 696 262 c 0
 720 260 753 290 760 311 c 0
 766 329 760 353 738 355 c 0
 714 357 683 328 675 307 c 0
499 116 m 0
 520 192 609 237 684 237 c 0
 755 237 824 190 802 112 c 0
 781 37 692 -9 617 -9 c 0
 547 -9 477 39 499 116 c 0
605 128 m 0
 596 106 604 77 631 75 c 0
 660 73 698 105 707 131 c 0
 714 153 706 181 680 183 c 0
 652 185 614 153 605 128 c 0
EndSplineSet
EndChar

StartChar: threeeighths
Encoding: 8540 8540 165
Width: 899
VWidth: 0
Flags: HMW
LayerCount: 2
Fore
SplineSet
818 699 m 1
 949 698 l 1
 221 0 l 1
 90 0 l 1
 818 699 l 1
261 484 m 1
 275 528 l 1
 309 535 358 547 370 586 c 0
 376 605 365 623 345 624 c 0
 314 625 293 599 276 578 c 1
 180 579 l 1
 214 650 274 706 358 707 c 0
 425 707 491 664 469 590 c 0
 443 503 337 489 261 484 c 1
222 270 m 0
 133 271 96 332 105 414 c 1
 201 414 l 1
 201 385 200 357 236 354 c 0
 265 351 307 379 316 407 c 0
 331 452 282 458 251 464 c 1
 268 514 l 1
 340 509 441 488 414 393 c 0
 392 313 299 269 222 270 c 0
640 321 m 0
 659 390 741 429 808 429 c 0
 872 429 935 388 915 317 c 0
 896 248 815 206 747 206 c 0
 682 206 621 250 640 321 c 0
732 307 m 0
 726 290 731 264 753 262 c 0
 777 260 810 290 817 311 c 0
 823 329 818 353 796 355 c 0
 772 357 740 328 732 307 c 0
556 116 m 0
 577 192 667 237 742 237 c 0
 813 237 881 190 859 112 c 0
 838 37 749 -9 674 -9 c 0
 604 -9 534 39 556 116 c 0
662 128 m 0
 653 106 662 77 689 75 c 0
 718 73 756 105 765 131 c 0
 772 153 763 181 737 183 c 0
 709 185 671 153 662 128 c 0
EndSplineSet
EndChar

StartChar: fiveeighths
Encoding: 8541 8541 166
Width: 914
VWidth: 0
Flags: HMW
LayerCount: 2
Fore
SplineSet
833 699 m 1
 963 698 l 1
 235 0 l 1
 105 0 l 1
 833 699 l 1
430 411 m 0
 405 325 314 272 228 271 c 0
 168 270 119 293 77 326 c 1
 137 408 l 1
 160 386 185 365 221 365 c 0
 256 365 316 386 325 426 c 0
 333 459 306 477 276 480 c 0
 233 483 189 468 149 457 c 1
 225 505 l 1
 260 528 301 551 345 549 c 0
 420 546 449 477 430 411 c 0
335 607 m 1
 262 502 l 1
 137 447 l 1
 282 697 l 1
 520 698 l 1
 488 608 l 1
 335 607 l 1
655 321 m 0
 674 390 755 429 822 429 c 0
 886 429 950 388 930 317 c 0
 911 248 830 206 762 206 c 0
 697 206 636 250 655 321 c 0
746 307 m 0
 740 290 746 264 768 262 c 0
 792 260 825 290 832 311 c 0
 838 329 832 353 810 355 c 0
 786 357 754 328 746 307 c 0
571 116 m 0
 592 192 681 237 756 237 c 0
 827 237 896 190 874 112 c 0
 853 37 764 -9 689 -9 c 0
 619 -9 549 39 571 116 c 0
677 128 m 0
 668 106 676 77 703 75 c 0
 732 73 770 105 779 131 c 0
 786 153 778 181 752 183 c 0
 724 185 686 153 677 128 c 0
EndSplineSet
EndChar

StartChar: seveneighths
Encoding: 8542 8542 167
Width: 811
VWidth: 0
Flags: HMW
LayerCount: 2
Fore
SplineSet
723 699 m 1
 853 698 l 1
 126 0 l 1
 -5 0 l 1
 723 699 l 1
170 604 m 1
 204 700 l 1
 538 699 l 1
 202 281 l 1
 85 281 l 1
 348 602 l 1
 170 604 l 1
552 321 m 0
 571 390 652 429 719 429 c 0
 783 429 846 388 826 317 c 0
 807 248 727 206 659 206 c 0
 594 206 533 250 552 321 c 0
643 307 m 0
 637 290 642 264 664 262 c 0
 688 260 722 290 729 311 c 0
 735 329 729 353 707 355 c 0
 683 357 651 328 643 307 c 0
468 116 m 0
 489 192 578 237 653 237 c 0
 724 237 792 190 770 112 c 0
 749 37 661 -9 586 -9 c 0
 516 -9 446 39 468 116 c 0
573 128 m 0
 564 106 573 77 600 75 c 0
 629 73 667 105 676 131 c 0
 683 153 675 181 649 183 c 0
 621 185 582 153 573 128 c 0
EndSplineSet
EndChar

StartChar: uni2074
Encoding: 8308 8308 168
Width: 402
VWidth: 0
Flags: HMW
LayerCount: 2
Fore
SplineSet
73 356 m 1
 177 427 l 1
 352 429 l 1
 366 442 l 1
 479 442 l 1
 449 355 l 1
 73 356 l 1
197 386 m 1
 66 349 l 1
 422 699 l 1
 505 700 l 1
 361 280 l 1
 254 280 l 1
 287 376 l 1
 299 382 l 1
 355 536 l 1
 197 386 l 1
EndSplineSet
EndChar

StartChar: uni2075
Encoding: 8309 8309 169
Width: 364
VWidth: 0
Flags: HMW
LayerCount: 2
Fore
SplineSet
430 411 m 0
 405 325 314 272 228 271 c 0
 168 270 119 293 77 326 c 1
 137 408 l 1
 160 386 185 365 221 365 c 0
 256 365 316 386 325 426 c 0
 333 459 306 477 276 480 c 0
 233 483 189 468 149 457 c 1
 225 505 l 1
 260 528 301 551 345 549 c 0
 420 546 449 477 430 411 c 0
335 607 m 1
 262 502 l 1
 137 447 l 1
 282 697 l 1
 520 698 l 1
 488 608 l 1
 335 607 l 1
EndSplineSet
EndChar

StartChar: uni2076
Encoding: 8310 8310 170
Width: 361
VWidth: 0
Flags: HMW
LayerCount: 2
Fore
SplineSet
208 424 m 0
 198 394 209 360 244 357 c 0
 282 353 327 393 338 427 c 0
 348 457 339 491 304 495 c 0
 266 499 219 458 208 424 c 0
356 695 m 1
 495 694 l 1
 315 549 l 1
 286 540 l 1
 307 550 327 561 352 561 c 0
 426 562 455 488 438 425 c 0
 414 335 321 269 229 269 c 0
 139 269 82 339 109 427 c 0
 123 473 157 511 191 544 c 1
 356 695 l 1
EndSplineSet
EndChar

StartChar: uni2077
Encoding: 8311 8311 171
Width: 356
VWidth: 0
Flags: HMW
LayerCount: 2
Fore
SplineSet
170 604 m 1
 204 700 l 1
 538 699 l 1
 202 281 l 1
 85 281 l 1
 348 602 l 1
 170 604 l 1
EndSplineSet
EndChar

StartChar: uni2078
Encoding: 8312 8312 172
Width: 341
VWidth: 0
Flags: HMW
LayerCount: 2
Fore
SplineSet
183 601 m 0
 202 670 283 709 350 709 c 0
 414 709 477 668 457 597 c 0
 438 528 358 486 290 486 c 0
 225 486 164 530 183 601 c 0
274 587 m 0
 268 570 273 544 295 542 c 0
 319 540 353 570 360 591 c 0
 366 609 360 633 338 635 c 0
 314 637 282 608 274 587 c 0
99 396 m 0
 120 472 209 517 284 517 c 0
 355 517 423 470 401 392 c 0
 380 317 292 271 217 271 c 0
 147 271 77 319 99 396 c 0
205 408 m 0
 196 386 204 357 231 355 c 0
 260 353 298 385 307 411 c 0
 314 433 306 461 280 463 c 0
 252 465 214 433 205 408 c 0
EndSplineSet
EndChar

StartChar: uni2079
Encoding: 8313 8313 173
Width: 358
VWidth: 0
Flags: HMW
LayerCount: 2
Fore
SplineSet
383 556 m 0
 393 586 383 620 348 623 c 0
 310 627 264 587 253 553 c 0
 243 523 253 488 288 485 c 0
 326 481 372 522 383 556 c 0
236 285 m 1
 96 286 l 1
 276 431 l 1
 306 440 l 1
 285 429 265 419 240 419 c 0
 166 420 137 491 154 555 c 0
 179 645 271 711 363 711 c 0
 453 711 510 641 483 553 c 0
 469 507 434 469 400 436 c 1
 236 285 l 1
EndSplineSet
EndChar

StartChar: uni2070
Encoding: 8304 8304 174
Width: 367
VWidth: 0
Flags: HMW
LayerCount: 2
Fore
SplineSet
227 489 m 0
 215 456 188 367 246 362 c 0
 306 357 351 446 368 491 c 0
 380 524 407 613 349 618 c 0
 289 623 244 534 227 489 c 0
129 491 m 0
 160 592 245 708 362 708 c 0
 483 708 493 580 465 489 c 0
 433 387 350 272 232 272 c 0
 112 272 101 400 129 491 c 0
EndSplineSet
EndChar

StartChar: uni2080
Encoding: 8320 8320 175
Width: 367
VWidth: 0
Flags: HMW
LayerCount: 2
Fore
SplineSet
131 209 m 0
 119 176 92 87 150 82 c 0
 210 77 255 166 272 211 c 0
 284 244 311 333 253 338 c 0
 193 343 148 254 131 209 c 0
34 211 m 0
 65 312 150 428 267 428 c 0
 388 428 398 300 370 209 c 0
 338 107 254 -8 136 -8 c 0
 16 -8 6 120 34 211 c 0
EndSplineSet
EndChar

StartChar: uni2084
Encoding: 8324 8324 176
Width: 406
VWidth: 0
Flags: HMW
LayerCount: 2
Fore
SplineSet
-23 76 m 1
 81 147 l 1
 255 149 l 1
 270 162 l 1
 383 162 l 1
 351 75 l 1
 -23 76 l 1
99 106 m 1
 -31 69 l 1
 326 419 l 1
 408 420 l 1
 264 0 l 1
 157 0 l 1
 190 96 l 1
 203 102 l 1
 259 256 l 1
 99 106 l 1
EndSplineSet
EndChar

StartChar: uni2085
Encoding: 8325 8325 177
Width: 373
VWidth: 0
Flags: HMW
LayerCount: 2
Fore
SplineSet
337 131 m 0
 312 45 221 -8 135 -9 c 0
 75 -10 26 13 -16 46 c 1
 45 128 l 1
 68 106 93 85 129 85 c 0
 164 85 224 106 233 146 c 0
 241 179 213 197 183 200 c 0
 140 203 97 188 57 177 c 1
 133 225 l 1
 168 248 209 271 253 269 c 0
 328 266 356 197 337 131 c 0
242 327 m 1
 170 222 l 1
 44 167 l 1
 190 417 l 1
 428 418 l 1
 396 328 l 1
 242 327 l 1
EndSplineSet
EndChar

StartChar: uni2086
Encoding: 8326 8326 178
Width: 372
VWidth: 0
Flags: HMW
LayerCount: 2
Fore
SplineSet
115 144 m 0
 105 114 117 80 152 77 c 0
 190 73 236 113 247 147 c 0
 257 177 247 211 212 215 c 0
 174 219 126 178 115 144 c 0
264 415 m 1
 403 414 l 1
 223 269 l 1
 193 260 l 1
 214 270 234 281 259 281 c 0
 333 282 363 208 346 145 c 0
 322 55 229 -11 137 -11 c 0
 47 -11 -11 59 16 147 c 0
 30 193 66 231 100 264 c 1
 264 415 l 1
EndSplineSet
EndChar

StartChar: uni2087
Encoding: 8327 8327 179
Width: 362
VWidth: 0
Flags: HMW
LayerCount: 2
Fore
SplineSet
79 324 m 1
 112 420 l 1
 446 419 l 1
 110 0 l 1
 -7 0 l 1
 256 322 l 1
 79 324 l 1
EndSplineSet
EndChar

StartChar: uni2088
Encoding: 8328 8328 180
Width: 347
VWidth: 0
Flags: HMW
LayerCount: 2
Fore
SplineSet
92 321 m 0
 111 390 191 429 258 429 c 0
 322 429 386 388 366 317 c 0
 347 248 266 206 198 206 c 0
 133 206 73 250 92 321 c 0
183 307 m 0
 177 290 182 264 204 262 c 0
 228 260 261 290 268 311 c 0
 274 329 269 353 247 355 c 0
 223 357 191 328 183 307 c 0
8 116 m 0
 29 192 117 237 192 237 c 0
 263 237 332 190 310 112 c 0
 289 37 200 -9 125 -9 c 0
 55 -9 -14 39 8 116 c 0
113 128 m 0
 104 106 113 77 140 75 c 0
 169 73 207 105 216 131 c 0
 223 153 215 181 189 183 c 0
 161 185 122 153 113 128 c 0
EndSplineSet
EndChar

StartChar: uni2089
Encoding: 8329 8329 181
Width: 375
VWidth: 0
Flags: HMW
LayerCount: 2
Fore
SplineSet
290 276 m 0
 300 306 290 340 255 343 c 0
 217 347 170 307 159 273 c 0
 149 243 160 208 195 205 c 0
 233 201 279 242 290 276 c 0
142 5 m 1
 3 6 l 1
 184 151 l 1
 213 160 l 1
 192 149 172 139 147 139 c 0
 73 140 43 211 60 275 c 0
 85 365 178 431 270 431 c 0
 360 431 417 361 390 273 c 0
 376 227 341 189 307 156 c 1
 142 5 l 1
EndSplineSet
EndChar

StartChar: uni2081
Encoding: 8321 8321 182
Width: 341
VWidth: 0
Flags: HMW
LayerCount: 2
Fore
SplineSet
128 296 m 1
 161 389 l 1
 374 431 l 1
 225 1 l 1
 126 1 l 1
 235 320 l 1
 128 296 l 1
EndSplineSet
EndChar

StartChar: uni2082
Encoding: 8322 8322 183
Width: 388
VWidth: 0
Flags: HMW
LayerCount: 2
Fore
SplineSet
-34 3 m 1
 208 195 l 2
 239 219 288 249 299 290 c 0
 305 313 298 338 272 341 c 0
 230 346 201 297 183 267 c 1
 82 268 l 1
 118 354 188 431 288 430 c 0
 364 430 426 372 403 294 c 0
 389 247 351 211 313 183 c 2
 195 98 l 1
 345 96 l 1
 313 2 l 1
 -34 3 l 1
EndSplineSet
EndChar

StartChar: uni2083
Encoding: 8323 8323 184
Width: 351
VWidth: 0
Flags: HMW
LayerCount: 2
Fore
SplineSet
165 204 m 1
 179 248 l 1
 213 255 262 267 274 306 c 0
 280 325 270 343 250 344 c 0
 219 345 197 319 180 298 c 1
 84 299 l 1
 118 370 178 426 262 427 c 0
 329 427 395 384 373 310 c 0
 347 223 241 209 165 204 c 1
125 -10 m 0
 36 -9 0 52 9 134 c 1
 105 134 l 1
 105 105 104 77 140 74 c 0
 169 71 211 99 220 127 c 0
 235 172 186 178 155 184 c 1
 172 234 l 1
 244 229 345 208 318 113 c 0
 296 33 202 -11 125 -10 c 0
EndSplineSet
EndChar

StartChar: Agrave
Encoding: 192 192 185
Width: 693
VWidth: 0
Flags: HMW
LayerCount: 2
Fore
SplineSet
163 133 m 1
 218 262 l 1
 552 263 l 1
 516 132 l 1
 163 133 l 1
449 438 m 1
 279 215 l 1
 275 175 l 1
 134 0 l 1
 -63 0 l 1
 545 749 l 1
 640 0 l 1
 459 0 l 1
 436 170 l 1
 459 214 l 1
 449 438 l 1
467 959 m 1
 589 1008 l 1
 680 843 l 1
 591 805 l 1
 467 959 l 1
EndSplineSet
EndChar

StartChar: Aacute
Encoding: 193 193 186
Width: 693
VWidth: 0
Flags: HMW
LayerCount: 2
Fore
SplineSet
163 133 m 1
 218 262 l 1
 552 263 l 1
 516 132 l 1
 163 133 l 1
449 438 m 1
 279 215 l 1
 275 175 l 1
 134 0 l 1
 -63 0 l 1
 545 749 l 1
 640 0 l 1
 459 0 l 1
 436 170 l 1
 459 214 l 1
 449 438 l 1
771 948 m 1
 557 806 l 1
 478 853 l 1
 669 1006 l 1
 771 948 l 1
EndSplineSet
EndChar

StartChar: Acircumflex
Encoding: 194 194 187
Width: 693
VWidth: 0
Flags: HMW
LayerCount: 2
Fore
SplineSet
163 133 m 1
 218 262 l 1
 552 263 l 1
 516 132 l 1
 163 133 l 1
449 438 m 1
 279 215 l 1
 275 175 l 1
 134 0 l 1
 -63 0 l 1
 545 749 l 1
 640 0 l 1
 459 0 l 1
 436 170 l 1
 459 214 l 1
 449 438 l 1
600 874 m 1
 485 791 l 1
 400 869 l 1
 628 1003 l 1
 776 858 l 1
 655 790 l 1
 600 874 l 1
EndSplineSet
EndChar

StartChar: Atilde
Encoding: 195 195 188
Width: 693
VWidth: 0
Flags: HMW
LayerCount: 2
Fore
SplineSet
163 133 m 1
 218 262 l 1
 552 263 l 1
 516 132 l 1
 163 133 l 1
449 438 m 1
 279 215 l 1
 275 175 l 1
 134 0 l 1
 -63 0 l 1
 545 749 l 1
 640 0 l 1
 459 0 l 1
 436 170 l 1
 459 214 l 1
 449 438 l 1
400 868 m 1
 432 912 479 962 539 959 c 0
 582 957 607 906 650 909 c 0
 683 911 709 940 732 960 c 1
 783 882 l 1
 747 843 692 795 634 800 c 0
 591 804 564 857 520 851 c 0
 491 847 472 823 455 802 c 1
 400 868 l 1
EndSplineSet
EndChar

StartChar: Adieresis
Encoding: 196 196 189
Width: 693
VWidth: 0
Flags: HMW
LayerCount: 2
Fore
SplineSet
163 133 m 1
 218 262 l 1
 552 263 l 1
 516 132 l 1
 163 133 l 1
449 438 m 1
 279 215 l 1
 275 175 l 1
 134 0 l 1
 -63 0 l 1
 545 749 l 1
 640 0 l 1
 459 0 l 1
 436 170 l 1
 459 214 l 1
 449 438 l 1
624 832 m 0
 636 875 688 912 732 911 c 0
 777 910 808 872 796 827 c 0
 784 784 732 746 688 747 c 0
 643 748 612 787 624 832 c 0
352 838 m 0
 364 881 417 919 461 918 c 0
 506 917 537 878 525 833 c 0
 513 790 460 753 416 754 c 0
 371 755 340 793 352 838 c 0
EndSplineSet
EndChar

StartChar: Aring
Encoding: 197 197 190
Width: 693
VWidth: 0
Flags: HMW
LayerCount: 2
Fore
SplineSet
163 133 m 1
 218 262 l 1
 552 263 l 1
 516 132 l 1
 163 133 l 1
449 438 m 1
 279 215 l 1
 275 175 l 1
 134 0 l 1
 -63 0 l 1
 545 749 l 1
 640 0 l 1
 459 0 l 1
 436 170 l 1
 459 214 l 1
 449 438 l 1
445 803 m 0
 463 865 532 916 597 916 c 0
 662 916 705 862 687 799 c 0
 669 736 600 685 534 685 c 0
 469 685 427 740 445 803 c 0
522 799 m 0
 517 782 524 756 544 754 c 0
 567 751 603 782 610 802 c 0
 615 819 607 845 587 847 c 0
 564 850 529 819 522 799 c 0
EndSplineSet
EndChar

StartChar: AE
Encoding: 198 198 191
Width: 1025
VWidth: 0
Flags: HMW
LayerCount: 2
Fore
SplineSet
249 148 m 1
 311 306 l 1
 598 306 l 1
 543 148 l 1
 249 148 l 1
604 700 m 1
 745 656 l 1
 172 0 l 1
 -47 0 l 1
 604 700 l 1
541 0 m 1
 589 142 l 1
 958 142 l 1
 908 0 l 1
 541 0 l 1
749 558 m 1
 604 700 l 1
 1148 700 l 1
 1099 558 l 1
 749 558 l 1
642 298 m 1
 690 436 l 1
 1040 436 l 1
 991 298 l 1
 642 298 l 1
701 700 m 1
 883 700 l 1
 642 0 l 1
 462 0 l 1
 701 700 l 1
EndSplineSet
EndChar

StartChar: Ccedilla
Encoding: 199 199 192
Width: 659
VWidth: 0
Flags: HMW
LayerCount: 2
Fore
SplineSet
276 350 m 0
 240 252 277 152 391 149 c 0
 477 147 556 192 625 238 c 1
 570 54 l 1
 501 13 426 -17 345 -17 c 0
 138 -16 34 160 94 350 c 0
 158 554 358 717 575 717 c 0
 649 717 710 692 766 645 c 1
 709 460 l 1
 671 518 619 551 548 551 c 0
 429 550 317 459 276 350 c 0
291 46 m 1
 409 43 l 1
 277 -79 l 1
 287 -77 298 -75 308 -76 c 0
 360 -81 385 -127 371 -175 c 0
 352 -240 280 -279 216 -282 c 0
 166 -284 123 -265 81 -240 c 1
 142 -175 l 1
 162 -187 183 -201 209 -200 c 0
 228 -199 275 -184 279 -161 c 0
 283 -140 253 -133 239 -132 c 0
 210 -130 178 -139 149 -145 c 1
 291 46 l 1
EndSplineSet
EndChar

StartChar: Egrave
Encoding: 200 200 193
Width: 568
VWidth: 0
Flags: HMW
LayerCount: 2
Fore
SplineSet
121 0 m 1
 170 142 l 1
 508 142 l 1
 458 0 l 1
 121 0 l 1
312 558 m 1
 361 700 l 1
 698 700 l 1
 649 558 l 1
 312 558 l 1
222 298 m 1
 271 436 l 1
 589 436 l 1
 541 298 l 1
 222 298 l 1
251 700 m 1
 414 700 l 1
 173 0 l 1
 13 0 l 1
 251 700 l 1
401 938 m 1
 523 987 l 1
 615 821 l 1
 526 783 l 1
 401 938 l 1
EndSplineSet
EndChar

StartChar: Eacute
Encoding: 201 201 194
Width: 568
VWidth: 0
Flags: HMW
LayerCount: 2
Fore
SplineSet
121 0 m 1
 170 142 l 1
 508 142 l 1
 458 0 l 1
 121 0 l 1
312 558 m 1
 361 700 l 1
 698 700 l 1
 649 558 l 1
 312 558 l 1
222 298 m 1
 271 436 l 1
 589 436 l 1
 541 298 l 1
 222 298 l 1
251 700 m 1
 414 700 l 1
 173 0 l 1
 13 0 l 1
 251 700 l 1
706 927 m 1
 492 784 l 1
 413 832 l 1
 604 984 l 1
 706 927 l 1
EndSplineSet
EndChar

StartChar: Ecircumflex
Encoding: 202 202 195
Width: 568
VWidth: 0
Flags: HMW
LayerCount: 2
Fore
SplineSet
121 0 m 1
 170 142 l 1
 508 142 l 1
 458 0 l 1
 121 0 l 1
312 558 m 1
 361 700 l 1
 698 700 l 1
 649 558 l 1
 312 558 l 1
222 298 m 1
 271 436 l 1
 589 436 l 1
 541 298 l 1
 222 298 l 1
251 700 m 1
 414 700 l 1
 173 0 l 1
 13 0 l 1
 251 700 l 1
549 883 m 1
 411 790 l 1
 369 834 l 1
 562 970 l 1
 674 826 l 1
 619 790 l 1
 549 883 l 1
EndSplineSet
EndChar

StartChar: Edieresis
Encoding: 203 203 196
Width: 568
VWidth: 0
Flags: HMW
LayerCount: 2
Fore
SplineSet
121 0 m 1
 170 142 l 1
 508 142 l 1
 458 0 l 1
 121 0 l 1
312 558 m 1
 361 700 l 1
 698 700 l 1
 649 558 l 1
 312 558 l 1
222 298 m 1
 271 436 l 1
 589 436 l 1
 541 298 l 1
 222 298 l 1
251 700 m 1
 414 700 l 1
 173 0 l 1
 13 0 l 1
 251 700 l 1
564 869 m 0
 576 912 628 949 672 948 c 0
 717 947 748 909 736 864 c 0
 724 821 672 783 628 784 c 0
 583 785 552 824 564 869 c 0
333 869 m 0
 345 912 397 949 441 948 c 0
 486 947 517 909 505 864 c 0
 493 821 441 783 397 784 c 0
 352 785 321 824 333 869 c 0
EndSplineSet
EndChar

StartChar: Igrave
Encoding: 204 204 197
Width: 303
VWidth: 0
Flags: HMW
LayerCount: 2
Fore
SplineSet
251 700 m 1
 423 700 l 1
 182 0 l 1
 13 0 l 1
 251 700 l 1
258 938 m 1
 380 987 l 1
 471 821 l 1
 382 783 l 1
 258 938 l 1
EndSplineSet
EndChar

StartChar: Iacute
Encoding: 205 205 198
Width: 303
VWidth: 0
Flags: HMW
LayerCount: 2
Fore
SplineSet
251 700 m 1
 423 700 l 1
 182 0 l 1
 13 0 l 1
 251 700 l 1
562 927 m 1
 348 784 l 1
 270 832 l 1
 460 984 l 1
 562 927 l 1
EndSplineSet
EndChar

StartChar: Icircumflex
Encoding: 206 206 199
Width: 303
VWidth: 0
Flags: HMW
LayerCount: 2
Fore
SplineSet
251 700 m 1
 423 700 l 1
 182 0 l 1
 13 0 l 1
 251 700 l 1
401 883 m 1
 263 790 l 1
 222 834 l 1
 416 970 l 1
 527 826 l 1
 472 790 l 1
 401 883 l 1
EndSplineSet
EndChar

StartChar: Idieresis
Encoding: 207 207 200
Width: 303
VWidth: 0
Flags: HMW
LayerCount: 2
Fore
SplineSet
251 700 m 1
 423 700 l 1
 182 0 l 1
 13 0 l 1
 251 700 l 1
421 862 m 0
 433 905 485 943 529 942 c 0
 574 941 606 902 594 857 c 0
 582 814 529 777 485 778 c 0
 439 779 409 817 421 862 c 0
190 862 m 0
 202 905 253 943 297 942 c 0
 342 941 375 902 363 857 c 0
 351 814 298 777 254 778 c 0
 208 779 178 817 190 862 c 0
EndSplineSet
EndChar

StartChar: Ntilde
Encoding: 209 209 201
Width: 746
VWidth: 0
Flags: HMW
LayerCount: 2
Fore
SplineSet
705 700 m 1
 866 700 l 1
 616 -32 l 1
 308 390 l 1
 174 0 l 1
 11 0 l 1
 262 732 l 1
 570 310 l 1
 705 700 l 1
388 839 m 1
 420 883 467 932 527 929 c 0
 570 927 594 876 637 879 c 0
 670 881 697 911 720 931 c 1
 771 852 l 1
 735 813 680 765 622 770 c 0
 579 774 552 827 508 821 c 0
 479 817 460 793 443 772 c 1
 388 839 l 1
EndSplineSet
EndChar

StartChar: Eth
Encoding: 208 208 202
Width: 690
VWidth: 0
Flags: HMW
LayerCount: 2
Fore
SplineSet
52 303 m 1
 87 403 l 1
 424 403 l 1
 388 302 l 1
 52 303 l 1
251 700 m 1
 426 700 l 1
 185 0 l 1
 13 0 l 1
 251 700 l 1
262 0 m 0
 120 0 l 1
 174 153 l 1
 289 153 l 0
 411 158 512 236 555 350 c 0
 594 454 559 540 442 546 c 1
 306 547 l 1
 360 700 l 1
 481 700 l 0
 683 694 789 543 728 350 c 0
 664 146 475 5 262 0 c 0
EndSplineSet
EndChar

StartChar: Ograve
Encoding: 210 210 203
Width: 773
VWidth: 0
Flags: HMW
LayerCount: 2
Fore
SplineSet
271 350 m 0
 237 259 255 146 372 143 c 0
 491 140 594 245 634 350 c 0
 668 441 650 555 533 557 c 0
 414 559 310 455 271 350 c 0
94 350 m 0
 157 549 354 717 567 717 c 0
 773 717 869 535 811 350 c 0
 748 150 551 -24 335 -23 c 0
 126 -22 36 165 94 350 c 0
512 938 m 1
 633 987 l 1
 725 821 l 1
 636 783 l 1
 512 938 l 1
EndSplineSet
EndChar

StartChar: Oacute
Encoding: 211 211 204
Width: 773
VWidth: 0
Flags: HMW
LayerCount: 2
Fore
SplineSet
271 350 m 0
 237 259 255 146 372 143 c 0
 491 140 594 245 634 350 c 0
 668 441 650 555 533 557 c 0
 414 559 310 455 271 350 c 0
94 350 m 0
 157 549 354 717 567 717 c 0
 773 717 869 535 811 350 c 0
 748 150 551 -24 335 -23 c 0
 126 -22 36 165 94 350 c 0
809 927 m 1
 594 784 l 1
 516 832 l 1
 706 984 l 1
 809 927 l 1
EndSplineSet
EndChar

StartChar: Ocircumflex
Encoding: 212 212 205
Width: 773
VWidth: 0
Flags: HMW
LayerCount: 2
Fore
SplineSet
271 350 m 0
 237 259 255 146 372 143 c 0
 491 140 594 245 634 350 c 0
 668 441 650 555 533 557 c 0
 414 559 310 455 271 350 c 0
94 350 m 0
 157 549 354 717 567 717 c 0
 773 717 869 535 811 350 c 0
 748 150 551 -24 335 -23 c 0
 126 -22 36 165 94 350 c 0
653 883 m 1
 515 790 l 1
 473 834 l 1
 667 970 l 1
 778 826 l 1
 723 790 l 1
 653 883 l 1
EndSplineSet
EndChar

StartChar: Otilde
Encoding: 213 213 206
Width: 773
VWidth: 0
Flags: HMW
LayerCount: 2
Fore
SplineSet
271 350 m 0
 237 259 255 146 372 143 c 0
 491 140 594 245 634 350 c 0
 668 441 650 555 533 557 c 0
 414 559 310 455 271 350 c 0
94 350 m 0
 157 549 354 717 567 717 c 0
 773 717 869 535 811 350 c 0
 748 150 551 -24 335 -23 c 0
 126 -22 36 165 94 350 c 0
467 847 m 1
 457 886 557 925 585 924 c 0
 624 923 647 877 686 880 c 0
 714 882 738 909 758 926 c 1
 794 879 l 1
 765 848 724 807 677 811 c 0
 639 814 618 858 580 856 c 0
 550 854 528 828 511 807 c 1
 467 847 l 1
EndSplineSet
EndChar

StartChar: Odieresis
Encoding: 214 214 207
Width: 773
VWidth: 0
Flags: HMW
LayerCount: 2
Fore
SplineSet
271 350 m 0
 237 259 255 146 372 143 c 0
 491 140 594 245 634 350 c 0
 668 441 650 555 533 557 c 0
 414 559 310 455 271 350 c 0
94 350 m 0
 157 549 354 717 567 717 c 0
 773 717 869 535 811 350 c 0
 748 150 551 -24 335 -23 c 0
 126 -22 36 165 94 350 c 0
656 862 m 0
 668 905 720 943 764 942 c 0
 809 941 840 902 828 857 c 0
 816 814 764 777 720 778 c 0
 675 779 644 817 656 862 c 0
425 862 m 0
 437 905 488 943 532 942 c 0
 577 941 609 902 597 857 c 0
 585 814 533 777 489 778 c 0
 444 779 413 817 425 862 c 0
EndSplineSet
EndChar

StartChar: Ugrave
Encoding: 217 217 208
Width: 661
VWidth: 0
Flags: HMW
LayerCount: 2
Fore
SplineSet
247 700 m 1
 415 700 l 1
 256 243 l 2
 240 190 243 129 311 126 c 0
 381 123 435 184 460 244 c 1
 618 700 l 1
 786 700 l 1
 626 230 l 2
 572 81 440 -29 277 -29 c 0
 123 -29 44 84 87 230 c 0
 247 700 l 1
441 931 m 1
 563 980 l 1
 654 814 l 1
 566 777 l 1
 441 931 l 1
EndSplineSet
EndChar

StartChar: Uacute
Encoding: 218 218 209
Width: 661
VWidth: 0
Flags: HMW
LayerCount: 2
Fore
SplineSet
247 700 m 1
 415 700 l 1
 256 243 l 2
 240 190 243 129 311 126 c 0
 381 123 435 184 460 244 c 1
 618 700 l 1
 786 700 l 1
 626 230 l 2
 572 81 440 -29 277 -29 c 0
 123 -29 44 84 87 230 c 0
 247 700 l 1
748 920 m 1
 534 778 l 1
 455 825 l 1
 646 978 l 1
 748 920 l 1
EndSplineSet
EndChar

StartChar: Ucircumflex
Encoding: 219 219 210
Width: 661
VWidth: 0
Flags: HMW
LayerCount: 2
Fore
SplineSet
247 700 m 1
 415 700 l 1
 256 243 l 2
 240 190 243 129 311 126 c 0
 381 123 435 184 460 244 c 1
 618 700 l 1
 786 700 l 1
 626 230 l 2
 572 81 440 -29 277 -29 c 0
 123 -29 44 84 87 230 c 0
 247 700 l 1
578 859 m 1
 464 777 l 1
 379 855 l 1
 607 989 l 1
 754 844 l 1
 634 776 l 1
 578 859 l 1
EndSplineSet
EndChar

StartChar: Udieresis
Encoding: 220 220 211
Width: 661
VWidth: 0
Flags: HMW
LayerCount: 2
Fore
SplineSet
247 700 m 1
 415 700 l 1
 256 243 l 2
 240 190 243 129 311 126 c 0
 381 123 435 184 460 244 c 1
 618 700 l 1
 786 700 l 1
 626 230 l 2
 572 81 440 -29 277 -29 c 0
 123 -29 44 84 87 230 c 0
 247 700 l 1
618 862 m 0
 630 905 682 943 726 942 c 0
 771 941 803 902 791 857 c 0
 779 814 727 777 683 778 c 0
 638 779 606 817 618 862 c 0
350 862 m 0
 362 905 414 943 458 942 c 0
 503 941 535 902 523 857 c 0
 511 814 458 777 414 778 c 0
 369 779 338 817 350 862 c 0
EndSplineSet
EndChar

StartChar: Yacute
Encoding: 221 221 212
Width: 624
VWidth: 0
Flags: HMW
LayerCount: 2
Fore
SplineSet
730 920 m 1
 515 778 l 1
 437 825 l 1
 627 978 l 1
 730 920 l 1
618 699 m 1
 819 699 l 1
 439 276 l 1
 344 0 l 1
 172 0 l 1
 274 293 l 1
 186 700 l 1
 369 700 l 1
 405 445 l 1
 618 699 l 1
EndSplineSet
EndChar

StartChar: agrave
Encoding: 224 224 213
Width: 513
VWidth: 0
Flags: HMW
LayerCount: 2
Fore
SplineSet
161 136 m 0
 153 108 174 93 199 91 c 0
 261 87 303 139 333 186 c 1
 332 128 l 1
 294 47 225 -9 132 -9 c 0
 50 -9 -16 43 9 129 c 0
 37 227 146 278 241 278 c 0
 295 279 340 263 381 229 c 1
 360 159 l 1
 331 182 303 197 264 195 c 0
 228 193 173 175 161 136 c 0
169 316 m 1
 148 423 l 1
 215 450 286 473 359 473 c 0
 449 473 548 429 522 323 c 1
 412 0 l 1
 266 0 l 1
 372 293 l 1
 378 330 362 350 323 354 c 0
 271 359 216 335 169 316 c 1
278 688 m 1
 400 737 l 1
 492 571 l 1
 403 533 l 1
 278 688 l 1
EndSplineSet
Substitution2: "alt a" agrave.alt
EndChar

StartChar: aacute
Encoding: 225 225 214
Width: 513
VWidth: 0
Flags: HMW
LayerCount: 2
Fore
SplineSet
161 136 m 0
 153 108 174 93 199 91 c 0
 261 87 303 139 333 186 c 1
 332 128 l 1
 294 47 225 -9 132 -9 c 0
 50 -9 -16 43 9 129 c 0
 37 227 146 278 241 278 c 0
 295 279 340 263 381 229 c 1
 360 159 l 1
 331 182 303 197 264 195 c 0
 228 193 173 175 161 136 c 0
169 316 m 1
 148 423 l 1
 215 450 286 473 359 473 c 0
 449 473 548 429 522 323 c 1
 412 0 l 1
 266 0 l 1
 372 293 l 1
 378 330 362 350 323 354 c 0
 271 359 216 335 169 316 c 1
605 677 m 1
 390 535 l 1
 312 582 l 1
 503 735 l 1
 605 677 l 1
EndSplineSet
Substitution2: "alt a" aacute.alt
EndChar

StartChar: acircumflex
Encoding: 226 226 215
Width: 513
VWidth: 0
Flags: HMW
LayerCount: 2
Fore
SplineSet
161 136 m 0
 153 108 174 93 199 91 c 0
 261 87 303 139 333 186 c 1
 332 128 l 1
 294 47 225 -9 132 -9 c 0
 50 -9 -16 43 9 129 c 0
 37 227 146 278 241 278 c 0
 295 279 340 263 381 229 c 1
 360 159 l 1
 331 182 303 197 264 195 c 0
 228 193 173 175 161 136 c 0
169 316 m 1
 148 423 l 1
 215 450 286 473 359 473 c 0
 449 473 548 429 522 323 c 1
 412 0 l 1
 266 0 l 1
 372 293 l 1
 378 330 362 350 323 354 c 0
 271 359 216 335 169 316 c 1
425 616 m 1
 311 534 l 1
 226 611 l 1
 454 746 l 1
 602 601 l 1
 480 532 l 1
 425 616 l 1
EndSplineSet
Substitution2: "alt a" acircumflex.alt
EndChar

StartChar: atilde
Encoding: 227 227 216
Width: 513
VWidth: 0
Flags: HMW
LayerCount: 2
Fore
SplineSet
161 136 m 0
 153 108 174 93 199 91 c 0
 261 87 303 139 333 186 c 1
 332 128 l 1
 294 47 225 -9 132 -9 c 0
 50 -9 -16 43 9 129 c 0
 37 227 146 278 241 278 c 0
 295 279 340 263 381 229 c 1
 360 159 l 1
 331 182 303 197 264 195 c 0
 228 193 173 175 161 136 c 0
169 316 m 1
 148 423 l 1
 215 450 286 473 359 473 c 0
 449 473 548 429 522 323 c 1
 412 0 l 1
 266 0 l 1
 372 293 l 1
 378 330 362 350 323 354 c 0
 271 359 216 335 169 316 c 1
224 604 m 1
 256 648 302 697 362 694 c 0
 405 692 431 642 474 645 c 0
 507 647 533 676 556 696 c 1
 606 617 l 1
 570 578 515 531 457 536 c 0
 414 540 387 593 343 587 c 0
 314 583 296 559 279 538 c 1
 224 604 l 1
EndSplineSet
Substitution2: "alt a" atilde.alt
EndChar

StartChar: adieresis
Encoding: 228 228 217
Width: 513
VWidth: 0
Flags: HMW
LayerCount: 2
Fore
SplineSet
161 136 m 0
 153 108 174 93 199 91 c 0
 261 87 303 139 333 186 c 1
 332 128 l 1
 294 47 225 -9 132 -9 c 0
 50 -9 -16 43 9 129 c 0
 37 227 146 278 241 278 c 0
 295 279 340 263 381 229 c 1
 360 159 l 1
 331 182 303 197 264 195 c 0
 228 193 173 175 161 136 c 0
169 316 m 1
 148 423 l 1
 215 450 286 473 359 473 c 0
 449 473 548 429 522 323 c 1
 412 0 l 1
 266 0 l 1
 372 293 l 1
 378 330 362 350 323 354 c 0
 271 359 216 335 169 316 c 1
447 619 m 0
 459 662 510 699 554 698 c 0
 599 697 630 659 618 614 c 0
 606 571 555 533 511 534 c 0
 466 535 435 574 447 619 c 0
216 619 m 0
 228 662 279 699 323 698 c 0
 368 697 399 659 387 614 c 0
 375 571 324 533 280 534 c 0
 235 535 204 574 216 619 c 0
EndSplineSet
Substitution2: "alt a" adieresis.alt
EndChar

StartChar: aring
Encoding: 229 229 218
Width: 513
VWidth: 0
Flags: HMW
LayerCount: 2
Fore
SplineSet
161 136 m 0
 153 108 174 93 199 91 c 0
 261 87 303 139 333 186 c 1
 332 128 l 1
 294 47 225 -9 132 -9 c 0
 50 -9 -16 43 9 129 c 0
 37 227 146 278 241 278 c 0
 295 279 340 263 381 229 c 1
 360 159 l 1
 331 182 303 197 264 195 c 0
 228 193 173 175 161 136 c 0
169 316 m 1
 148 423 l 1
 215 450 286 473 359 473 c 0
 449 473 548 429 522 323 c 1
 412 0 l 1
 266 0 l 1
 372 293 l 1
 378 330 362 350 323 354 c 0
 271 359 216 335 169 316 c 1
307 652 m 0
 325 714 394 765 459 765 c 0
 524 765 567 711 549 648 c 0
 531 585 462 534 396 534 c 0
 331 534 289 589 307 652 c 0
384 648 m 0
 379 631 387 605 407 603 c 0
 430 600 465 631 472 651 c 0
 477 668 469 694 449 696 c 0
 426 699 391 668 384 648 c 0
EndSplineSet
Substitution2: "alt a" aring.alt
EndChar

StartChar: germandbls
Encoding: 223 223 219
Width: 557
VWidth: 0
Flags: HMW
LayerCount: 2
Fore
SplineSet
251 129 m 1
 325 142 395 181 422 256 c 0
 450 334 387 358 322 366 c 1
 356 472 l 1
 494 462 607 375 562 224 c 0
 514 66 362 0 209 -9 c 1
 251 129 l 1
337 413 m 1
 366 505 l 1
 416 512 482 527 498 584 c 0
 510 624 487 656 445 656 c 0
 397 656 356 630 341 586 c 2
 138 0 l 1
 -7 0 l 1
 199 607 l 2
 239 722 352 796 477 796 c 0
 589 796 683 724 648 605 c 0
 608 467 467 420 337 413 c 1
EndSplineSet
EndChar

StartChar: ae
Encoding: 230 230 220
Width: 845
VWidth: 0
Flags: HMW
LayerCount: 2
Fore
SplineSet
160 136 m 0
 151 108 174 93 199 91 c 0
 261 87 301 138 329 186 c 1
 385 127 l 1
 341 35 258 -10 157 -9 c 0
 75 -9 -19 31 9 129 c 0
 37 227 146 278 241 278 c 0
 295 279 340 263 381 229 c 1
 360 159 l 1
 331 182 302 197 263 195 c 0
 227 193 172 175 160 136 c 0
169 316 m 1
 148 423 l 1
 214 450 286 474 359 473 c 0
 455 471 497 416 472 323 c 1
 408 130 l 1
 311 131 l 1
 371 289 l 1
 379 326 362 350 324 354 c 0
 272 360 216 335 169 316 c 1
409 198 m 1
 435 282 l 1
 841 282 l 1
 829 197 l 1
 409 198 l 1
691 243 m 2
 705 287 722 361 656 366 c 0
 590 371 543 305 517 253 c 2
 505 229 l 1
 486 178 481 108 550 102 c 0
 598 98 642 130 677 158 c 1
 805 123 l 1
 734 45 642 -11 534 -10 c 0
 393 -8 347 106 389 230 c 0
 395 247 403 263 411 279 c 0
 467 386 572 471 697 470 c 0
 832 469 876 354 844 237 c 0
 841 224 835 211 831 198 c 1
 682 219 l 1
 691 243 l 2
EndSplineSet
EndChar

StartChar: ccedilla
Encoding: 231 231 221
Width: 464
VWidth: 0
Flags: HMW
LayerCount: 2
Fore
SplineSet
203 229 m 0
 182 173 203 117 268 114 c 0
 326 111 379 145 423 178 c 1
 380 30 l 1
 334 6 285 -10 232 -10 c 0
 96 -10 10 98 50 231 c 0
 92 370 232 470 376 470 c 0
 426 470 469 456 510 430 c 1
 465 280 l 1
 444 321 415 348 366 347 c 0
 298 346 226 292 203 229 c 0
183 59 m 1
 300 56 l 1
 168 -66 l 1
 178 -64 189 -62 199 -63 c 0
 251 -68 276 -114 262 -162 c 0
 243 -227 170 -266 106 -269 c 0
 56 -271 14 -252 -28 -227 c 1
 34 -162 l 1
 54 -174 74 -188 100 -187 c 0
 119 -186 166 -171 170 -148 c 0
 174 -127 143 -120 129 -119 c 0
 100 -117 68 -126 39 -132 c 1
 183 59 l 1
EndSplineSet
EndChar

StartChar: egrave
Encoding: 232 232 222
Width: 541
VWidth: 0
Flags: HMW
LayerCount: 2
Fore
SplineSet
126 198 m 1
 153 281 l 1
 393 283 l 1
 398 322 399 363 350 366 c 0
 284 371 239 304 213 253 c 2
 201 229 l 1
 182 178 178 108 246 102 c 0
 294 98 338 130 373 158 c 1
 502 123 l 1
 431 44 339 -11 230 -10 c 0
 90 -9 13 96 52 230 c 0
 57 247 63 263 70 279 c 0
 125 394 244 470 371 470 c 0
 511 470 575 368 540 237 c 0
 537 224 531 211 527 198 c 1
 126 198 l 1
299 689 m 1
 421 738 l 1
 512 572 l 1
 424 534 l 1
 299 689 l 1
EndSplineSet
EndChar

StartChar: eacute
Encoding: 233 233 223
Width: 541
VWidth: 0
Flags: HMW
LayerCount: 2
Fore
SplineSet
126 198 m 1
 153 281 l 1
 393 283 l 1
 398 322 399 363 350 366 c 0
 284 371 239 304 213 253 c 2
 201 229 l 1
 182 178 178 108 246 102 c 0
 294 98 338 130 373 158 c 1
 502 123 l 1
 431 44 339 -11 230 -10 c 0
 90 -9 13 96 52 230 c 0
 57 247 63 263 70 279 c 0
 125 394 244 470 371 470 c 0
 511 470 575 368 540 237 c 0
 537 224 531 211 527 198 c 1
 126 198 l 1
619 678 m 1
 405 535 l 1
 326 583 l 1
 517 736 l 1
 619 678 l 1
EndSplineSet
EndChar

StartChar: ecircumflex
Encoding: 234 234 224
Width: 541
VWidth: 0
Flags: HMW
LayerCount: 2
Fore
SplineSet
126 198 m 1
 153 281 l 1
 393 283 l 1
 398 322 399 363 350 366 c 0
 284 371 239 304 213 253 c 2
 201 229 l 1
 182 178 178 108 246 102 c 0
 294 98 338 130 373 158 c 1
 502 123 l 1
 431 44 339 -11 230 -10 c 0
 90 -9 13 96 52 230 c 0
 57 247 63 263 70 279 c 0
 125 394 244 470 371 470 c 0
 511 470 575 368 540 237 c 0
 537 224 531 211 527 198 c 1
 126 198 l 1
438 614 m 1
 324 531 l 1
 239 609 l 1
 467 743 l 1
 614 598 l 1
 494 530 l 1
 438 614 l 1
EndSplineSet
EndChar

StartChar: edieresis
Encoding: 235 235 225
Width: 541
VWidth: 0
Flags: HMW
LayerCount: 2
Fore
SplineSet
126 198 m 1
 153 281 l 1
 393 283 l 1
 398 322 399 363 350 366 c 0
 284 371 239 304 213 253 c 2
 201 229 l 1
 182 178 178 108 246 102 c 0
 294 98 338 130 373 158 c 1
 502 123 l 1
 431 44 339 -11 230 -10 c 0
 90 -9 13 96 52 230 c 0
 57 247 63 263 70 279 c 0
 125 394 244 470 371 470 c 0
 511 470 575 368 540 237 c 0
 537 224 531 211 527 198 c 1
 126 198 l 1
459 616 m 0
 471 659 523 697 567 696 c 0
 612 695 644 656 632 611 c 0
 620 568 568 531 524 532 c 0
 479 533 447 571 459 616 c 0
228 616 m 0
 240 659 292 697 336 696 c 0
 381 695 413 656 401 611 c 0
 389 568 336 531 292 532 c 0
 247 533 216 571 228 616 c 0
EndSplineSet
EndChar

StartChar: igrave
Encoding: 236 236 226
Width: 260
VWidth: 0
Flags: HMW
LayerCount: 2
Fore
SplineSet
159 460 m 1
 307 460 l 1
 148 0 l 1
 3 0 l 1
 159 460 l 1
141 692 m 1
 263 741 l 1
 354 575 l 1
 265 538 l 1
 141 692 l 1
EndSplineSet
EndChar

StartChar: dotlessi
Encoding: 305 305 227
Width: 260
VWidth: 0
Flags: HMW
LayerCount: 2
Fore
SplineSet
159 460 m 1
 307 460 l 1
 148 0 l 1
 3 0 l 1
 159 460 l 1
EndSplineSet
EndChar

StartChar: kgreenlandic
Encoding: 312 312 228
Width: 547
VWidth: 0
Flags: HMW
LayerCount: 2
Fore
SplineSet
154 460 m 1
 300 460 l 1
 141 0 l 1
 -3 0 l 1
 154 460 l 1
445 459 m 1
 636 459 l 1
 375 263 l 1
 484 0 l 1
 322 0 l 1
 204 278 l 1
 445 459 l 1
EndSplineSet
EndChar

StartChar: iacute
Encoding: 237 237 229
Width: 260
VWidth: 0
Flags: HMW
LayerCount: 2
Fore
SplineSet
159 460 m 1
 307 460 l 1
 148 0 l 1
 3 0 l 1
 159 460 l 1
475 681 m 1
 261 539 l 1
 182 586 l 1
 373 739 l 1
 475 681 l 1
EndSplineSet
EndChar

StartChar: icircumflex
Encoding: 238 238 230
Width: 260
VWidth: 0
Flags: HMW
LayerCount: 2
Fore
SplineSet
159 460 m 1
 307 460 l 1
 148 0 l 1
 3 0 l 1
 159 460 l 1
294 617 m 1
 180 534 l 1
 95 612 l 1
 322 747 l 1
 470 601 l 1
 350 533 l 1
 294 617 l 1
EndSplineSet
EndChar

StartChar: idieresis
Encoding: 239 239 231
Width: 260
VWidth: 0
Flags: HMW
LayerCount: 2
Fore
SplineSet
159 460 m 1
 307 460 l 1
 148 0 l 1
 3 0 l 1
 159 460 l 1
318 627 m 0
 330 670 382 707 426 706 c 0
 471 705 503 666 491 621 c 0
 479 578 427 541 383 542 c 0
 338 543 306 582 318 627 c 0
87 627 m 0
 99 670 151 707 195 706 c 0
 240 705 272 666 260 621 c 0
 248 578 196 541 152 542 c 0
 107 543 75 582 87 627 c 0
EndSplineSet
EndChar

StartChar: ntilde
Encoding: 241 241 232
Width: 542
VWidth: 0
Flags: HMW
LayerCount: 2
Fore
SplineSet
307 460 m 1
 149 0 l 1
 -3 0 l 1
 156 460 l 1
 307 460 l 1
378 280 m 1
 387 311 395 355 351 361 c 0
 303 367 267 315 245 281 c 1
 212 275 l 1
 249 370 317 469 430 470 c 0
 537 471 561 387 536 297 c 1
 435 0 l 1
 279 0 l 1
 378 280 l 1
234 601 m 1
 266 645 312 695 372 692 c 0
 416 690 439 639 483 642 c 0
 516 644 543 673 566 693 c 1
 616 614 l 1
 579 575 525 528 467 533 c 0
 424 537 397 590 353 584 c 0
 324 580 305 556 288 535 c 1
 234 601 l 1
EndSplineSet
EndChar

StartChar: ograve
Encoding: 242 242 233
Width: 555
VWidth: 0
Flags: HMW
LayerCount: 2
Fore
SplineSet
51 231 m 0
 92 368 232 470 375 470 c 0
 511 470 594 360 554 229 c 0
 513 92 373 -10 230 -10 c 0
 94 -10 11 100 51 231 c 0
204 229 m 0
 186 182 196 120 256 118 c 0
 319 116 380 176 401 231 c 0
 419 278 409 341 349 343 c 0
 286 345 225 284 204 229 c 0
309 692 m 1
 431 741 l 1
 522 575 l 1
 434 538 l 1
 309 692 l 1
EndSplineSet
EndChar

StartChar: oacute
Encoding: 243 243 234
Width: 555
VWidth: 0
Flags: HMW
LayerCount: 2
Fore
SplineSet
51 231 m 0
 92 368 232 470 375 470 c 0
 511 470 594 360 554 229 c 0
 513 92 373 -10 230 -10 c 0
 94 -10 11 100 51 231 c 0
204 229 m 0
 186 182 196 120 256 118 c 0
 319 116 380 176 401 231 c 0
 419 278 409 341 349 343 c 0
 286 345 225 284 204 229 c 0
611 681 m 1
 397 539 l 1
 318 586 l 1
 509 739 l 1
 611 681 l 1
EndSplineSet
EndChar

StartChar: ocircumflex
Encoding: 244 244 235
Width: 555
VWidth: 0
Flags: HMW
LayerCount: 2
Fore
SplineSet
51 231 m 0
 92 368 232 470 375 470 c 0
 511 470 594 360 554 229 c 0
 513 92 373 -10 230 -10 c 0
 94 -10 11 100 51 231 c 0
204 229 m 0
 186 182 196 120 256 118 c 0
 319 116 380 176 401 231 c 0
 419 278 409 341 349 343 c 0
 286 345 225 284 204 229 c 0
444 621 m 1
 330 538 l 1
 245 616 l 1
 472 750 l 1
 620 605 l 1
 500 537 l 1
 444 621 l 1
EndSplineSet
EndChar

StartChar: otilde
Encoding: 245 245 236
Width: 555
VWidth: 0
Flags: HMW
LayerCount: 2
Fore
SplineSet
51 231 m 0
 92 368 232 470 375 470 c 0
 511 470 594 360 554 229 c 0
 513 92 373 -10 230 -10 c 0
 94 -10 11 100 51 231 c 0
204 229 m 0
 186 182 196 120 256 118 c 0
 319 116 380 176 401 231 c 0
 419 278 409 341 349 343 c 0
 286 345 225 284 204 229 c 0
240 601 m 1
 230 649 344 693 379 692 c 0
 423 691 445 639 489 642 c 0
 522 644 549 673 572 693 c 1
 623 614 l 1
 587 575 532 528 474 533 c 0
 431 537 404 590 360 584 c 0
 331 580 312 556 295 535 c 1
 240 601 l 1
EndSplineSet
EndChar

StartChar: odieresis
Encoding: 246 246 237
Width: 555
VWidth: 0
Flags: HMW
LayerCount: 2
Fore
SplineSet
51 231 m 0
 92 368 232 470 375 470 c 0
 511 470 594 360 554 229 c 0
 513 92 373 -10 230 -10 c 0
 94 -10 11 100 51 231 c 0
204 229 m 0
 186 182 196 120 256 118 c 0
 319 116 380 176 401 231 c 0
 419 278 409 341 349 343 c 0
 286 345 225 284 204 229 c 0
466 627 m 0
 478 670 530 707 574 706 c 0
 619 705 650 666 638 621 c 0
 626 578 574 541 530 542 c 0
 485 543 454 582 466 627 c 0
235 627 m 0
 247 670 299 707 343 706 c 0
 388 705 419 666 407 621 c 0
 395 578 343 541 299 542 c 0
 254 543 223 582 235 627 c 0
EndSplineSet
EndChar

StartChar: ugrave
Encoding: 249 249 238
Width: 542
VWidth: 0
Flags: HMW
LayerCount: 2
Fore
SplineSet
284 0 m 1
 443 460 l 1
 594 460 l 1
 436 0 l 1
 284 0 l 1
214 180 m 1
 205 149 196 105 240 99 c 0
 288 93 325 145 347 179 c 1
 380 185 l 1
 343 90 274 -9 161 -10 c 0
 54 -11 30 73 55 163 c 1
 156 460 l 1
 312 460 l 1
 214 180 l 1
315 692 m 1
 437 741 l 1
 528 575 l 1
 440 538 l 1
 315 692 l 1
EndSplineSet
EndChar

StartChar: uacute
Encoding: 250 250 239
Width: 542
VWidth: 0
Flags: HMW
LayerCount: 2
Fore
SplineSet
284 0 m 1
 443 460 l 1
 594 460 l 1
 436 0 l 1
 284 0 l 1
214 180 m 1
 205 149 196 105 240 99 c 0
 288 93 325 145 347 179 c 1
 380 185 l 1
 343 90 274 -9 161 -10 c 0
 54 -11 30 73 55 163 c 1
 156 460 l 1
 312 460 l 1
 214 180 l 1
591 681 m 1
 377 539 l 1
 299 586 l 1
 489 739 l 1
 591 681 l 1
EndSplineSet
EndChar

StartChar: ucircumflex
Encoding: 251 251 240
Width: 542
VWidth: 0
Flags: HMW
LayerCount: 2
Fore
SplineSet
284 0 m 1
 443 460 l 1
 594 460 l 1
 436 0 l 1
 284 0 l 1
214 180 m 1
 205 149 196 105 240 99 c 0
 288 93 325 145 347 179 c 1
 380 185 l 1
 343 90 274 -9 161 -10 c 0
 54 -11 30 73 55 163 c 1
 156 460 l 1
 312 460 l 1
 214 180 l 1
437 621 m 1
 322 538 l 1
 237 616 l 1
 465 750 l 1
 613 605 l 1
 492 537 l 1
 437 621 l 1
EndSplineSet
EndChar

StartChar: udieresis
Encoding: 252 252 241
Width: 542
VWidth: 0
Flags: HMW
LayerCount: 2
Fore
SplineSet
284 0 m 1
 443 460 l 1
 594 460 l 1
 436 0 l 1
 284 0 l 1
214 180 m 1
 205 149 196 105 240 99 c 0
 288 93 325 145 347 179 c 1
 380 185 l 1
 343 90 274 -9 161 -10 c 0
 54 -11 30 73 55 163 c 1
 156 460 l 1
 312 460 l 1
 214 180 l 1
459 623 m 0
 471 666 522 704 566 703 c 0
 611 702 644 663 632 618 c 0
 620 575 567 538 523 539 c 0
 477 540 447 578 459 623 c 0
228 623 m 0
 240 666 291 704 335 703 c 0
 380 702 412 663 400 618 c 0
 388 575 336 538 292 539 c 0
 246 540 216 578 228 623 c 0
EndSplineSet
EndChar

StartChar: yacute
Encoding: 253 253 242
Width: 492
VWidth: 0
Flags: HMW
LayerCount: 2
Fore
SplineSet
613 459 m 1
 97 -219 l 1
 -62 -219 l 1
 139 45 l 1
 96 460 l 1
 253 460 l 1
 266 90 l 1
 186 93 l 1
 451 459 l 1
 613 459 l 1
582 681 m 1
 367 539 l 1
 290 586 l 1
 480 739 l 1
 582 681 l 1
EndSplineSet
EndChar

StartChar: thorn
Encoding: 254 254 243
Width: 581
VWidth: 0
Flags: HMW
LayerCount: 2
Fore
SplineSet
73 -220 m 1
 -79 -220 l 1
 264 780 l 1
 414 780 l 1
 73 -220 l 1
579 229 m 0
 543 110 432 -11 300 -10 c 0
 168 -9 150 130 181 231 c 0
 216 345 314 469 444 469 c 0
 577 469 612 337 579 229 c 0
424 231 m 0
 442 279 430 343 369 345 c 0
 306 347 245 283 224 229 c 0
 207 183 215 118 275 115 c 0
 339 112 403 176 424 231 c 0
EndSplineSet
EndChar

StartChar: ydieresis
Encoding: 255 255 244
Width: 492
VWidth: 0
Flags: HMW
LayerCount: 2
Fore
SplineSet
613 459 m 1
 97 -219 l 1
 -62 -219 l 1
 139 45 l 1
 96 460 l 1
 253 460 l 1
 266 90 l 1
 186 93 l 1
 451 459 l 1
 613 459 l 1
432 616 m 0
 444 659 496 697 540 696 c 0
 585 695 616 656 604 611 c 0
 592 568 540 531 496 532 c 0
 451 533 420 571 432 616 c 0
201 616 m 0
 213 659 264 697 308 696 c 0
 353 695 385 656 373 611 c 0
 361 568 309 531 265 532 c 0
 220 533 189 571 201 616 c 0
EndSplineSet
EndChar

StartChar: Amacron
Encoding: 256 256 245
Width: 693
VWidth: 0
Flags: HMW
LayerCount: 2
Fore
SplineSet
163 133 m 1
 218 262 l 1
 552 263 l 1
 516 132 l 1
 163 133 l 1
449 438 m 1
 279 215 l 1
 275 175 l 1
 134 0 l 1
 -63 0 l 1
 545 749 l 1
 640 0 l 1
 459 0 l 1
 436 170 l 1
 459 214 l 1
 449 438 l 1
390 805 m 1
 436 938 l 1
 792 938 l 1
 745 805 l 1
 390 805 l 1
EndSplineSet
EndChar

StartChar: amacron
Encoding: 257 257 246
Width: 513
VWidth: 0
Flags: HMW
LayerCount: 2
Fore
SplineSet
161 136 m 0
 153 108 174 93 199 91 c 0
 261 87 303 139 333 186 c 1
 332 128 l 1
 294 47 225 -9 132 -9 c 0
 50 -9 -16 43 9 129 c 0
 37 227 146 278 241 278 c 0
 295 279 340 263 381 229 c 1
 360 159 l 1
 331 182 303 197 264 195 c 0
 228 193 173 175 161 136 c 0
169 316 m 1
 148 423 l 1
 215 450 286 473 359 473 c 0
 449 473 548 429 522 323 c 1
 412 0 l 1
 266 0 l 1
 372 293 l 1
 378 330 362 350 323 354 c 0
 271 359 216 335 169 316 c 1
213 541 m 1
 259 674 l 1
 616 674 l 1
 570 540 l 1
 213 541 l 1
EndSplineSet
Substitution2: "alt a" amacron.alt
EndChar

StartChar: breve
Encoding: 728 728 247
Width: 513
VWidth: 0
Flags: HMW
LayerCount: 2
Fore
SplineSet
326 850 m 1
 419 850 l 1
 420 822 423 795 457 792 c 0
 494 789 521 823 539 849 c 1
 639 848 l 1
 605 767 540 705 447 704 c 0
 356 703 317 765 326 850 c 1
EndSplineSet
EndChar

StartChar: Abreve
Encoding: 258 258 248
Width: 693
VWidth: 0
Flags: HMW
LayerCount: 2
Fore
SplineSet
163 133 m 1
 218 262 l 1
 552 263 l 1
 516 132 l 1
 163 133 l 1
449 438 m 1
 279 215 l 1
 275 175 l 1
 134 0 l 1
 -63 0 l 1
 545 749 l 1
 640 0 l 1
 459 0 l 1
 436 170 l 1
 459 214 l 1
 449 438 l 1
460 951 m 1
 553 951 l 1
 553 923 554 897 588 894 c 0
 625 891 651 924 671 950 c 1
 773 949 l 1
 737 868 670 807 577 806 c 0
 485 805 449 867 460 951 c 1
EndSplineSet
EndChar

StartChar: abreve
Encoding: 259 259 249
Width: 513
VWidth: 0
Flags: HMW
LayerCount: 2
Fore
SplineSet
161 136 m 0
 153 108 174 93 199 91 c 0
 261 87 303 139 333 186 c 1
 332 128 l 1
 294 47 225 -9 132 -9 c 0
 50 -9 -16 43 9 129 c 0
 37 227 146 278 241 278 c 0
 295 279 340 263 381 229 c 1
 360 159 l 1
 331 182 303 197 264 195 c 0
 228 193 173 175 161 136 c 0
169 316 m 1
 148 423 l 1
 215 450 286 473 359 473 c 0
 449 473 548 429 522 323 c 1
 412 0 l 1
 266 0 l 1
 372 293 l 1
 378 330 362 350 323 354 c 0
 271 359 216 335 169 316 c 1
280 680 m 1
 373 679 l 1
 373 651 375 625 409 622 c 0
 446 619 472 653 492 679 c 1
 594 677 l 1
 558 596 491 535 398 534 c 0
 306 533 269 596 280 680 c 1
EndSplineSet
Substitution2: "alt a" abreve.alt
EndChar

StartChar: Aogonek
Encoding: 260 260 250
Width: 693
VWidth: 0
Flags: HMW
LayerCount: 2
Fore
SplineSet
163 133 m 1
 218 262 l 1
 552 263 l 1
 516 132 l 1
 163 133 l 1
449 438 m 1
 279 215 l 1
 275 175 l 1
 134 0 l 1
 -63 0 l 1
 545 749 l 1
 640 0 l 1
 459 0 l 1
 436 170 l 1
 459 214 l 1
 449 438 l 1
557 -110 m 1
 568 -183 l 1
 536 -204 503 -220 465 -220 c 0
 407 -219 365 -178 381 -118 c 0
 402 -42 491 -5 555 25 c 1
 595 0 l 1
 559 -24 500 -48 486 -94 c 0
 482 -109 483 -126 501 -129 c 0
 518 -132 542 -117 557 -110 c 1
EndSplineSet
EndChar

StartChar: aogonek
Encoding: 261 261 251
Width: 513
VWidth: 0
Flags: HMW
LayerCount: 2
Fore
SplineSet
161 136 m 0
 154 108 175 93 199 91 c 0
 261 86 303 139 333 186 c 1
 332 128 l 1
 294 47 225 -9 132 -9 c 0
 49 -9 -15 46 10 132 c 0
 39 229 146 278 241 278 c 0
 295 278 340 263 381 229 c 1
 360 159 l 1
 331 182 303 197 264 195 c 0
 228 193 172 175 161 136 c 0
169 316 m 1
 148 423 l 1
 215 450 286 473 359 473 c 0
 449 473 548 429 522 323 c 1
 412 0 l 1
 266 0 l 1
 372 293 l 1
 378 330 362 350 323 354 c 0
 271 359 216 335 169 316 c 1
344 -110 m 1
 355 -183 l 1
 323 -204 290 -220 252 -220 c 0
 194 -219 151 -178 167 -118 c 0
 188 -42 278 -5 342 25 c 1
 381 0 l 1
 345 -24 287 -48 273 -94 c 0
 269 -109 270 -126 288 -129 c 0
 305 -132 329 -117 344 -110 c 1
EndSplineSet
Substitution2: "alt a" aogonek.alt
EndChar

StartChar: Cacute
Encoding: 262 262 252
Width: 659
VWidth: 0
Flags: HMW
LayerCount: 2
Fore
SplineSet
276 350 m 0
 240 252 277 152 391 149 c 0
 477 147 556 192 625 238 c 1
 570 54 l 1
 501 13 426 -17 345 -17 c 0
 138 -16 34 160 94 350 c 0
 158 554 358 717 575 717 c 0
 649 717 710 692 766 645 c 1
 709 460 l 1
 671 518 619 551 548 551 c 0
 429 550 317 459 276 350 c 0
781 920 m 1
 566 778 l 1
 488 825 l 1
 679 978 l 1
 781 920 l 1
EndSplineSet
EndChar

StartChar: cacute
Encoding: 263 263 253
Width: 464
VWidth: 0
Flags: HMW
LayerCount: 2
Fore
SplineSet
203 229 m 0
 182 173 203 117 268 114 c 0
 326 111 379 145 423 178 c 1
 380 30 l 1
 334 6 285 -10 232 -10 c 0
 96 -10 10 98 50 231 c 0
 92 370 232 470 376 470 c 0
 426 470 469 456 510 430 c 1
 465 280 l 1
 444 321 415 348 366 347 c 0
 298 346 226 292 203 229 c 0
583 674 m 1
 368 532 l 1
 290 579 l 1
 480 732 l 1
 583 674 l 1
EndSplineSet
EndChar

StartChar: Ccircumflex
Encoding: 264 264 254
Width: 659
VWidth: 0
Flags: HMW
LayerCount: 2
Fore
SplineSet
276 350 m 0
 240 252 277 152 391 149 c 0
 477 147 556 192 625 238 c 1
 570 54 l 1
 501 13 426 -17 345 -17 c 0
 138 -16 34 160 94 350 c 0
 158 554 358 717 575 717 c 0
 649 717 710 692 766 645 c 1
 709 460 l 1
 671 518 619 551 548 551 c 0
 429 550 317 459 276 350 c 0
642 859 m 1
 527 777 l 1
 442 855 l 1
 670 989 l 1
 818 844 l 1
 697 776 l 1
 642 859 l 1
EndSplineSet
EndChar

StartChar: ccircumflex
Encoding: 265 265 255
Width: 464
VWidth: 0
Flags: HMW
LayerCount: 2
Fore
SplineSet
203 229 m 0
 182 173 203 117 268 114 c 0
 326 111 379 145 423 178 c 1
 380 30 l 1
 334 6 285 -10 232 -10 c 0
 96 -10 10 98 50 231 c 0
 92 370 232 470 376 470 c 0
 426 470 469 456 510 430 c 1
 465 280 l 1
 444 321 415 348 366 347 c 0
 298 346 226 292 203 229 c 0
412 614 m 1
 298 531 l 1
 213 609 l 1
 441 743 l 1
 589 598 l 1
 468 530 l 1
 412 614 l 1
EndSplineSet
EndChar

StartChar: Cdotaccent
Encoding: 266 266 256
Width: 659
VWidth: 0
Flags: HMW
LayerCount: 2
Fore
SplineSet
276 350 m 0
 240 252 277 152 391 149 c 0
 477 147 556 192 625 238 c 1
 570 54 l 1
 501 13 426 -17 345 -17 c 0
 138 -16 34 160 94 350 c 0
 158 554 358 717 575 717 c 0
 649 717 710 692 766 645 c 1
 709 460 l 1
 671 518 619 551 548 551 c 0
 429 550 317 459 276 350 c 0
523 862 m 0
 535 905 587 943 631 942 c 0
 676 941 707 902 695 857 c 0
 683 814 631 777 587 778 c 0
 542 779 511 817 523 862 c 0
EndSplineSet
EndChar

StartChar: cdotaccent
Encoding: 267 267 257
Width: 464
VWidth: 0
Flags: HMW
LayerCount: 2
Fore
SplineSet
203 229 m 0
 182 173 203 117 268 114 c 0
 326 111 379 145 423 178 c 1
 380 30 l 1
 334 6 285 -10 232 -10 c 0
 96 -10 10 98 50 231 c 0
 92 370 232 470 376 470 c 0
 426 470 469 456 510 430 c 1
 465 280 l 1
 444 321 415 348 366 347 c 0
 298 346 226 292 203 229 c 0
327 623 m 0
 339 666 391 703 435 702 c 0
 480 701 511 663 499 618 c 0
 487 575 435 537 391 538 c 0
 346 539 315 578 327 623 c 0
EndSplineSet
EndChar

StartChar: Ccaron
Encoding: 268 268 258
Width: 659
VWidth: 0
Flags: HMW
LayerCount: 2
Fore
SplineSet
276 350 m 0
 240 252 277 152 391 149 c 0
 477 147 556 192 625 238 c 1
 570 54 l 1
 501 13 426 -17 345 -17 c 0
 138 -16 34 160 94 350 c 0
 158 554 358 717 575 717 c 0
 649 717 710 692 766 645 c 1
 709 460 l 1
 671 518 619 551 548 551 c 0
 429 550 317 459 276 350 c 0
641 906 m 1
 756 989 l 1
 841 911 l 1
 613 777 l 1
 465 922 l 1
 586 990 l 1
 641 906 l 1
EndSplineSet
EndChar

StartChar: ccaron
Encoding: 269 269 259
Width: 464
VWidth: 0
Flags: HMW
LayerCount: 2
Fore
SplineSet
203 229 m 0
 182 173 203 117 268 114 c 0
 326 111 379 145 423 178 c 1
 380 30 l 1
 334 6 285 -10 232 -10 c 0
 96 -10 10 98 50 231 c 0
 92 370 232 470 376 470 c 0
 426 470 469 456 510 430 c 1
 465 280 l 1
 444 321 415 348 366 347 c 0
 298 346 226 292 203 229 c 0
413 660 m 1
 526 743 l 1
 612 665 l 1
 384 531 l 1
 236 676 l 1
 357 744 l 1
 413 660 l 1
EndSplineSet
EndChar

StartChar: Dcaron
Encoding: 270 270 260
Width: 690
VWidth: 0
Flags: HMW
LayerCount: 2
Fore
SplineSet
251 700 m 1
 426 700 l 1
 185 0 l 1
 13 0 l 1
 251 700 l 1
262 0 m 0
 120 0 l 1
 174 153 l 1
 289 153 l 0
 411 158 512 236 555 350 c 0
 594 454 559 540 442 546 c 1
 306 547 l 1
 360 700 l 1
 481 700 l 0
 683 694 789 543 728 350 c 0
 664 146 475 5 262 0 c 0
602 906 m 1
 716 989 l 1
 801 911 l 1
 574 777 l 1
 426 922 l 1
 546 990 l 1
 602 906 l 1
EndSplineSet
EndChar

StartChar: dcaron
Encoding: 271 271 261
Width: 581
VWidth: 0
Flags: HMW
LayerCount: 2
Fore
SplineSet
592 780 m 1
 745 780 l 1
 476 0 l 1
 326 0 l 1
 592 780 l 1
51 231 m 0
 87 350 200 471 332 470 c 0
 464 469 481 330 450 229 c 0
 415 115 318 -9 188 -9 c 0
 55 -9 18 123 51 231 c 0
208 229 m 0
 190 181 200 117 261 115 c 0
 324 113 386 177 407 231 c 0
 424 277 416 342 356 345 c 0
 292 348 229 284 208 229 c 0
846 778 m 1
 992 743 l 1
 788 499 l 1
 676 524 l 1
 846 778 l 1
EndSplineSet
EndChar

StartChar: Dcroat
Encoding: 272 272 262
Width: 690
VWidth: 0
Flags: HMW
LayerCount: 2
Fore
SplineSet
49 297 m 1
 85 398 l 1
 415 398 l 1
 380 297 l 1
 49 297 l 1
251 700 m 1
 426 700 l 1
 185 0 l 1
 13 0 l 1
 251 700 l 1
262 0 m 0
 120 0 l 1
 174 153 l 1
 289 153 l 0
 411 158 512 236 555 350 c 0
 594 454 559 540 442 546 c 1
 306 547 l 1
 360 700 l 1
 481 700 l 0
 683 694 789 543 728 350 c 0
 664 146 475 5 262 0 c 0
EndSplineSet
EndChar

StartChar: dcroat
Encoding: 273 273 263
Width: 581
VWidth: 0
Flags: HMW
LayerCount: 2
Fore
SplineSet
413 564 m 1
 449 665 l 1
 792 665 l 1
 756 564 l 1
 413 564 l 1
592 780 m 1
 745 780 l 1
 476 0 l 1
 326 0 l 1
 592 780 l 1
51 231 m 0
 87 350 200 471 332 470 c 0
 464 469 481 330 450 229 c 0
 415 115 318 -9 188 -9 c 0
 55 -9 18 123 51 231 c 0
208 229 m 0
 190 181 200 117 261 115 c 0
 324 113 386 177 407 231 c 0
 424 277 416 342 356 345 c 0
 292 348 229 284 208 229 c 0
EndSplineSet
EndChar

StartChar: Emacron
Encoding: 274 274 264
Width: 568
VWidth: 0
Flags: HMW
LayerCount: 2
Fore
SplineSet
121 0 m 1
 170 142 l 1
 508 142 l 1
 458 0 l 1
 121 0 l 1
312 558 m 1
 361 700 l 1
 698 700 l 1
 649 558 l 1
 312 558 l 1
222 298 m 1
 271 436 l 1
 589 436 l 1
 541 298 l 1
 222 298 l 1
251 700 m 1
 414 700 l 1
 173 0 l 1
 13 0 l 1
 251 700 l 1
322 777 m 1
 369 910 l 1
 725 910 l 1
 678 777 l 1
 322 777 l 1
EndSplineSet
EndChar

StartChar: emacron
Encoding: 275 275 265
Width: 541
VWidth: 0
Flags: HMW
LayerCount: 2
Fore
SplineSet
126 198 m 1
 153 281 l 1
 393 283 l 1
 398 322 399 363 350 366 c 0
 284 371 239 304 213 253 c 2
 201 229 l 1
 182 178 178 108 246 102 c 0
 294 98 338 130 373 158 c 1
 502 123 l 1
 431 44 339 -11 230 -10 c 0
 90 -9 13 96 52 230 c 0
 57 247 63 263 70 279 c 0
 125 394 244 470 371 470 c 0
 511 470 575 368 540 237 c 0
 537 224 531 211 527 198 c 1
 126 198 l 1
224 531 m 1
 270 664 l 1
 627 664 l 1
 580 531 l 1
 224 531 l 1
EndSplineSet
EndChar

StartChar: Ebreve
Encoding: 276 276 266
Width: 568
VWidth: 0
Flags: HMW
LayerCount: 2
Fore
SplineSet
121 0 m 1
 170 142 l 1
 508 142 l 1
 458 0 l 1
 121 0 l 1
312 558 m 1
 361 700 l 1
 698 700 l 1
 649 558 l 1
 312 558 l 1
222 298 m 1
 271 436 l 1
 589 436 l 1
 541 298 l 1
 222 298 l 1
251 700 m 1
 414 700 l 1
 173 0 l 1
 13 0 l 1
 251 700 l 1
391 923 m 1
 485 923 l 1
 485 895 486 868 520 865 c 0
 557 862 584 896 604 922 c 1
 705 920 l 1
 669 839 602 779 509 778 c 0
 417 777 380 839 391 923 c 1
EndSplineSet
EndChar

StartChar: ebreve
Encoding: 277 277 267
Width: 541
VWidth: 0
Flags: HMW
LayerCount: 2
Fore
SplineSet
126 198 m 1
 153 281 l 1
 393 283 l 1
 398 322 399 363 350 366 c 0
 284 371 239 304 213 253 c 2
 201 229 l 1
 182 178 178 108 246 102 c 0
 294 98 338 130 373 158 c 1
 502 123 l 1
 431 44 339 -11 230 -10 c 0
 90 -9 13 96 52 230 c 0
 57 247 63 263 70 279 c 0
 125 394 244 470 371 470 c 0
 511 470 575 368 540 237 c 0
 537 224 531 211 527 198 c 1
 126 198 l 1
293 677 m 1
 387 677 l 1
 387 649 388 622 422 619 c 0
 459 616 486 650 506 676 c 1
 607 675 l 1
 571 594 504 533 411 532 c 0
 319 531 282 593 293 677 c 1
EndSplineSet
EndChar

StartChar: Edotaccent
Encoding: 278 278 268
Width: 568
VWidth: 0
Flags: HMW
LayerCount: 2
Fore
SplineSet
121 0 m 1
 170 142 l 1
 508 142 l 1
 458 0 l 1
 121 0 l 1
312 558 m 1
 361 700 l 1
 698 700 l 1
 649 558 l 1
 312 558 l 1
222 298 m 1
 271 436 l 1
 589 436 l 1
 541 298 l 1
 222 298 l 1
251 700 m 1
 414 700 l 1
 173 0 l 1
 13 0 l 1
 251 700 l 1
442 862 m 0
 454 905 506 943 550 942 c 0
 595 941 626 902 614 857 c 0
 602 814 551 777 507 778 c 0
 462 779 430 817 442 862 c 0
EndSplineSet
EndChar

StartChar: edotaccent
Encoding: 279 279 269
Width: 541
VWidth: 0
Flags: HMW
LayerCount: 2
Fore
SplineSet
126 198 m 1
 153 281 l 1
 393 283 l 1
 398 322 399 363 350 366 c 0
 284 371 239 304 213 253 c 2
 201 229 l 1
 182 178 178 108 246 102 c 0
 294 98 338 130 373 158 c 1
 502 123 l 1
 431 44 339 -11 230 -10 c 0
 90 -9 13 96 52 230 c 0
 57 247 63 263 70 279 c 0
 125 394 244 470 371 470 c 0
 511 470 575 368 540 237 c 0
 537 224 531 211 527 198 c 1
 126 198 l 1
344 616 m 0
 356 659 408 697 452 696 c 0
 497 695 528 656 516 611 c 0
 504 568 452 531 408 532 c 0
 363 533 332 571 344 616 c 0
EndSplineSet
EndChar

StartChar: Eogonek
Encoding: 280 280 270
Width: 568
VWidth: 0
Flags: HMW
LayerCount: 2
Fore
SplineSet
121 0 m 1
 170 142 l 1
 508 142 l 1
 458 0 l 1
 121 0 l 1
312 558 m 1
 361 700 l 1
 698 700 l 1
 649 558 l 1
 312 558 l 1
222 298 m 1
 271 436 l 1
 589 436 l 1
 541 298 l 1
 222 298 l 1
251 700 m 1
 414 700 l 1
 173 0 l 1
 13 0 l 1
 251 700 l 1
283 -110 m 1
 294 -183 l 1
 262 -204 229 -220 191 -220 c 0
 133 -219 90 -178 106 -118 c 0
 127 -42 217 -5 281 25 c 1
 320 0 l 1
 284 -24 226 -48 212 -94 c 0
 208 -109 208 -126 226 -129 c 0
 243 -132 268 -117 283 -110 c 1
EndSplineSet
EndChar

StartChar: eogonek
Encoding: 281 281 271
Width: 541
VWidth: 0
Flags: HMW
LayerCount: 2
Fore
SplineSet
126 198 m 1
 153 281 l 1
 393 283 l 1
 398 322 399 363 350 366 c 0
 284 371 239 304 213 253 c 2
 201 229 l 1
 182 178 178 108 246 102 c 0
 294 98 338 130 373 158 c 1
 502 123 l 1
 431 44 339 -11 230 -10 c 0
 90 -9 13 96 52 230 c 0
 57 247 63 263 70 279 c 0
 125 394 244 470 371 470 c 0
 511 470 575 368 540 237 c 0
 537 224 531 211 527 198 c 1
 126 198 l 1
217 -102 m 1
 228 -175 l 1
 197 -196 163 -211 125 -211 c 0
 67 -210 25 -170 41 -110 c 0
 62 -34 151 3 215 33 c 1
 254 3 l 1
 217 -17 160 -41 146 -85 c 0
 141 -100 143 -118 161 -121 c 0
 178 -124 202 -109 217 -102 c 1
EndSplineSet
EndChar

StartChar: Ecaron
Encoding: 282 282 272
Width: 568
VWidth: 0
Flags: HMW
LayerCount: 2
Fore
SplineSet
121 0 m 1
 170 142 l 1
 508 142 l 1
 458 0 l 1
 121 0 l 1
312 558 m 1
 361 700 l 1
 698 700 l 1
 649 558 l 1
 312 558 l 1
222 298 m 1
 271 436 l 1
 589 436 l 1
 541 298 l 1
 222 298 l 1
251 700 m 1
 414 700 l 1
 173 0 l 1
 13 0 l 1
 251 700 l 1
536 906 m 1
 651 989 l 1
 735 911 l 1
 508 777 l 1
 360 922 l 1
 480 990 l 1
 536 906 l 1
EndSplineSet
EndChar

StartChar: ecaron
Encoding: 283 283 273
Width: 541
VWidth: 0
Flags: HMW
LayerCount: 2
Fore
SplineSet
126 198 m 1
 153 281 l 1
 393 283 l 1
 398 322 399 363 350 366 c 0
 284 371 239 304 213 253 c 2
 201 229 l 1
 182 178 178 108 246 102 c 0
 294 98 338 130 373 158 c 1
 502 123 l 1
 431 44 339 -11 230 -10 c 0
 90 -9 13 96 52 230 c 0
 57 247 63 263 70 279 c 0
 125 394 244 470 371 470 c 0
 511 470 575 368 540 237 c 0
 537 224 531 211 527 198 c 1
 126 198 l 1
438 660 m 1
 552 743 l 1
 637 665 l 1
 410 531 l 1
 262 676 l 1
 382 744 l 1
 438 660 l 1
EndSplineSet
EndChar

StartChar: Gcircumflex
Encoding: 284 284 274
Width: 766
VWidth: 0
Flags: HMW
LayerCount: 2
Fore
SplineSet
424 252 m 1
 471 384 l 1
 806 383 l 1
 746 174 573 -22 341 -23 c 0
 131 -23 34 161 94 350 c 0
 159 555 361 718 579 717 c 0
 699 717 783 653 833 547 c 1
 666 471 l 1
 647 529 612 564 548 565 c 0
 423 568 311 461 269 350 c 0
 232 251 254 130 379 128 c 0
 473 126 545 188 603 254 c 1
 424 252 l 1
646 859 m 1
 532 777 l 1
 447 855 l 1
 675 989 l 1
 822 844 l 1
 702 776 l 1
 646 859 l 1
EndSplineSet
EndChar

StartChar: gcircumflex
Encoding: 285 285 275
Width: 575
VWidth: 0
Flags: HMW
LayerCount: 2
Fore
SplineSet
-31 -33 m 1
 109 -34 l 1
 108 -81 119 -114 173 -115 c 0
 246 -117 303 -51 328 11 c 1
 483 460 l 1
 629 460 l 1
 475 9 l 2
 425 -130 311 -238 157 -239 c 0
 25 -240 -45 -163 -31 -33 c 1
54 237 m 0
 90 356 201 471 332 470 c 0
 463 469 484 339 452 236 c 0
 417 122 321 3 192 3 c 0
 61 3 21 128 54 237 c 0
210 235 m 0
 192 185 207 131 266 128 c 0
 327 125 390 184 409 238 c 0
 426 286 414 341 356 345 c 0
 294 349 230 290 210 235 c 0
466 614 m 1
 351 531 l 1
 267 609 l 1
 495 743 l 1
 642 598 l 1
 521 530 l 1
 466 614 l 1
EndSplineSet
EndChar

StartChar: Gbreve
Encoding: 286 286 276
Width: 766
VWidth: 0
Flags: HMW
LayerCount: 2
Fore
SplineSet
424 252 m 1
 471 384 l 1
 806 383 l 1
 746 174 573 -22 341 -23 c 0
 131 -23 34 161 94 350 c 0
 159 555 361 718 579 717 c 0
 699 717 783 653 833 547 c 1
 666 471 l 1
 647 529 612 564 548 565 c 0
 423 568 311 461 269 350 c 0
 232 251 254 130 379 128 c 0
 473 126 545 188 603 254 c 1
 424 252 l 1
501 923 m 1
 595 923 l 1
 595 895 596 868 630 865 c 0
 667 862 694 896 714 922 c 1
 815 920 l 1
 779 839 712 779 619 778 c 0
 527 777 490 839 501 923 c 1
EndSplineSet
EndChar

StartChar: gbreve
Encoding: 287 287 277
Width: 575
VWidth: 0
Flags: HMW
LayerCount: 2
Fore
SplineSet
-31 -33 m 1
 109 -34 l 1
 108 -81 119 -114 173 -115 c 0
 246 -117 303 -51 328 11 c 1
 483 460 l 1
 629 460 l 1
 475 9 l 2
 425 -130 311 -238 157 -239 c 0
 25 -240 -45 -163 -31 -33 c 1
54 237 m 0
 90 356 201 471 332 470 c 0
 463 469 484 339 452 236 c 0
 417 122 321 3 192 3 c 0
 61 3 21 128 54 237 c 0
210 235 m 0
 192 185 207 131 266 128 c 0
 327 125 390 184 409 238 c 0
 426 286 414 341 356 345 c 0
 294 349 230 290 210 235 c 0
321 677 m 1
 415 677 l 1
 415 649 416 622 450 619 c 0
 487 616 513 650 533 676 c 1
 635 675 l 1
 599 594 531 533 438 532 c 0
 346 531 310 593 321 677 c 1
EndSplineSet
EndChar

StartChar: Gdotaccent
Encoding: 288 288 278
Width: 766
VWidth: 0
Flags: HMW
LayerCount: 2
Fore
SplineSet
424 252 m 1
 471 384 l 1
 806 383 l 1
 746 174 573 -22 341 -23 c 0
 131 -23 34 161 94 350 c 0
 159 555 361 718 579 717 c 0
 699 717 783 653 833 547 c 1
 666 471 l 1
 647 529 612 564 548 565 c 0
 423 568 311 461 269 350 c 0
 232 251 254 130 379 128 c 0
 473 126 545 188 603 254 c 1
 424 252 l 1
553 862 m 0
 565 905 616 943 660 942 c 0
 705 941 736 902 724 857 c 0
 712 814 661 777 617 778 c 0
 572 779 541 817 553 862 c 0
EndSplineSet
EndChar

StartChar: gdotaccent
Encoding: 289 289 279
Width: 575
VWidth: 0
Flags: HMW
LayerCount: 2
Fore
SplineSet
-31 -33 m 1
 109 -34 l 1
 108 -81 119 -114 173 -115 c 0
 246 -117 303 -51 328 11 c 1
 483 460 l 1
 629 460 l 1
 475 9 l 2
 425 -130 311 -238 157 -239 c 0
 25 -240 -45 -163 -31 -33 c 1
54 237 m 0
 90 356 201 471 332 470 c 0
 463 469 484 339 452 236 c 0
 417 122 321 3 192 3 c 0
 61 3 21 128 54 237 c 0
210 235 m 0
 192 185 207 131 266 128 c 0
 327 125 390 184 409 238 c 0
 426 286 414 341 356 345 c 0
 294 349 230 290 210 235 c 0
365 630 m 0
 377 673 429 711 473 710 c 0
 518 709 549 670 537 625 c 0
 525 582 473 545 429 546 c 0
 384 547 353 585 365 630 c 0
EndSplineSet
EndChar

StartChar: uni0122
Encoding: 290 290 280
Width: 766
VWidth: 0
Flags: HMW
LayerCount: 2
Fore
SplineSet
424 252 m 1
 471 384 l 1
 806 383 l 1
 746 174 573 -22 341 -23 c 0
 131 -23 34 161 94 350 c 0
 159 555 361 718 579 717 c 0
 699 717 783 653 833 547 c 1
 666 471 l 1
 647 529 612 564 548 565 c 0
 423 568 311 461 269 350 c 0
 232 251 254 130 379 128 c 0
 473 126 545 188 603 254 c 1
 424 252 l 1
243 -85 m 1
 389 -120 l 1
 185 -364 l 1
 73 -339 l 1
 243 -85 l 1
EndSplineSet
EndChar

StartChar: Hcircumflex
Encoding: 292 292 281
Width: 742
VWidth: 0
Flags: HMW
LayerCount: 2
Fore
SplineSet
156 292 m 1
 209 446 l 1
 716 446 l 1
 662 291 l 1
 156 292 l 1
693 700 m 1
 863 700 l 1
 622 0 l 1
 455 0 l 1
 693 700 l 1
251 700 m 1
 420 700 l 1
 179 0 l 1
 13 0 l 1
 251 700 l 1
619 859 m 1
 505 777 l 1
 419 855 l 1
 647 989 l 1
 795 844 l 1
 675 776 l 1
 619 859 l 1
EndSplineSet
EndChar

StartChar: hcircumflex
Encoding: 293 293 282
Width: 535
VWidth: 0
Flags: HMW
LayerCount: 2
Fore
SplineSet
417 780 m 1
 149 0 l 1
 -2 0 l 1
 265 780 l 1
 417 780 l 1
378 280 m 1
 387 311 396 355 352 361 c 0
 304 367 267 315 245 281 c 1
 213 282 l 1
 250 377 319 476 432 477 c 0
 540 478 557 391 532 303 c 0
 429 0 l 1
 279 0 l 1
 378 280 l 1
491 923 m 1
 377 840 l 1
 292 918 l 1
 520 1053 l 1
 667 907 l 1
 547 839 l 1
 491 923 l 1
EndSplineSet
EndChar

StartChar: Itilde
Encoding: 296 296 283
Width: 303
VWidth: 0
Flags: HMW
LayerCount: 2
Fore
SplineSet
251 700 m 1
 423 700 l 1
 182 0 l 1
 13 0 l 1
 251 700 l 1
198 847 m 1
 230 891 276 940 336 937 c 0
 380 935 403 885 447 888 c 0
 480 890 507 919 530 939 c 1
 581 860 l 1
 544 821 489 774 431 779 c 0
 388 783 362 836 318 830 c 0
 289 826 270 802 253 781 c 1
 198 847 l 1
EndSplineSet
EndChar

StartChar: itilde
Encoding: 297 297 284
Width: 260
VWidth: 0
Flags: HMW
LayerCount: 2
Fore
SplineSet
159 460 m 1
 307 460 l 1
 148 0 l 1
 3 0 l 1
 159 460 l 1
92 601 m 1
 124 645 170 695 230 692 c 0
 274 690 297 639 341 642 c 0
 374 644 401 673 424 693 c 1
 475 614 l 1
 438 575 383 528 325 533 c 0
 282 537 256 590 212 584 c 0
 183 580 164 556 147 535 c 1
 92 601 l 1
EndSplineSet
EndChar

StartChar: Imacron
Encoding: 298 298 285
Width: 303
VWidth: 0
Flags: HMW
LayerCount: 2
Fore
SplineSet
251 700 m 1
 423 700 l 1
 182 0 l 1
 13 0 l 1
 251 700 l 1
185 777 m 1
 231 910 l 1
 588 910 l 1
 541 777 l 1
 185 777 l 1
EndSplineSet
EndChar

StartChar: imacron
Encoding: 299 299 286
Width: 260
VWidth: 0
Flags: HMW
LayerCount: 2
Fore
SplineSet
159 460 m 1
 307 460 l 1
 148 0 l 1
 3 0 l 1
 159 460 l 1
79 531 m 1
 126 664 l 1
 482 664 l 1
 435 531 l 1
 79 531 l 1
EndSplineSet
EndChar

StartChar: Ibreve
Encoding: 300 300 287
Width: 303
VWidth: 0
Flags: HMW
LayerCount: 2
Fore
SplineSet
251 700 m 1
 423 700 l 1
 182 0 l 1
 13 0 l 1
 251 700 l 1
255 923 m 1
 348 923 l 1
 348 895 349 868 383 865 c 0
 420 862 447 896 467 922 c 1
 568 920 l 1
 532 839 465 779 372 778 c 0
 280 777 244 839 255 923 c 1
EndSplineSet
EndChar

StartChar: ibreve
Encoding: 301 301 288
Width: 260
VWidth: 0
Flags: HMW
LayerCount: 2
Fore
SplineSet
159 460 m 1
 307 460 l 1
 148 0 l 1
 3 0 l 1
 159 460 l 1
148 677 m 1
 241 677 l 1
 241 649 243 622 277 619 c 0
 314 616 340 650 360 676 c 1
 462 675 l 1
 426 594 359 533 266 532 c 0
 174 531 137 593 148 677 c 1
EndSplineSet
EndChar

StartChar: Iogonek
Encoding: 302 302 289
Width: 303
VWidth: 0
Flags: HMW
LayerCount: 2
Fore
SplineSet
251 700 m 1
 423 700 l 1
 182 0 l 1
 13 0 l 1
 251 700 l 1
120 -108 m 1
 132 -181 l 1
 100 -202 67 -218 29 -218 c 0
 -29 -217 -72 -176 -56 -116 c 0
 -36 -40 54 -3 118 27 c 1
 158 -1 l 1
 120 -22 63 -47 49 -92 c 0
 44 -107 46 -125 64 -128 c 0
 81 -131 105 -115 120 -108 c 1
EndSplineSet
EndChar

StartChar: iogonek
Encoding: 303 303 290
Width: 260
VWidth: 0
Flags: HMW
LayerCount: 2
Fore
SplineSet
206 634 m 0
 218 677 269 715 313 714 c 0
 358 713 390 674 378 629 c 0
 366 586 314 549 270 550 c 0
 225 551 194 589 206 634 c 0
159 460 m 1
 307 460 l 1
 148 0 l 1
 3 0 l 1
 159 460 l 1
86 -110 m 1
 97 -183 l 1
 65 -204 33 -220 -5 -220 c 0
 -63 -219 -106 -178 -90 -118 c 0
 -69 -42 20 -5 84 25 c 1
 123 0 l 1
 87 -24 29 -48 15 -94 c 0
 11 -109 12 -126 30 -129 c 0
 47 -132 71 -117 86 -110 c 1
EndSplineSet
EndChar

StartChar: Idotaccent
Encoding: 304 304 291
Width: 303
VWidth: 0
Flags: HMW
LayerCount: 2
Fore
SplineSet
251 700 m 1
 423 700 l 1
 182 0 l 1
 13 0 l 1
 251 700 l 1
305 862 m 0
 317 905 369 943 413 942 c 0
 458 941 489 902 477 857 c 0
 465 814 413 777 369 778 c 0
 324 779 293 817 305 862 c 0
EndSplineSet
EndChar

StartChar: uni0136
Encoding: 310 310 292
Width: 662
VWidth: 0
Flags: HMW
LayerCount: 2
Fore
SplineSet
251 700 m 1
 426 700 l 1
 186 0 l 1
 13 0 l 1
 251 700 l 1
637 699 m 1
 845 699 l 1
 456 365 l 1
 607 0 l 1
 418 0 l 1
 262 375 l 1
 637 699 l 1
231 -62 m 1
 377 -97 l 1
 173 -341 l 1
 60 -316 l 1
 231 -62 l 1
EndSplineSet
EndChar

StartChar: uni0137
Encoding: 311 311 293
Width: 547
VWidth: 0
Flags: HMW
LayerCount: 2
Fore
SplineSet
263 780 m 1
 409 780 l 1
 141 0 l 1
 -3 0 l 1
 263 780 l 1
445 459 m 1
 636 459 l 1
 375 263 l 1
 484 0 l 1
 322 0 l 1
 204 278 l 1
 445 459 l 1
162 -62 m 1
 308 -97 l 1
 104 -341 l 1
 -9 -316 l 1
 162 -62 l 1
EndSplineSet
EndChar

StartChar: Lacute
Encoding: 313 313 294
Width: 499
VWidth: 0
Flags: HMW
LayerCount: 2
Fore
SplineSet
252 700 m 1
 420 700 l 1
 231 148 l 1
 496 148 l 1
 444 0 l 1
 12 0 l 1
 252 700 l 1
700 920 m 1
 486 778 l 1
 407 825 l 1
 598 978 l 1
 700 920 l 1
EndSplineSet
EndChar

StartChar: lacute
Encoding: 314 314 295
Width: 255
VWidth: 0
Flags: HMW
LayerCount: 2
Fore
SplineSet
264 780 m 1
 417 780 l 1
 148 0 l 1
 -1 0 l 1
 264 780 l 1
567 984 m 1
 353 841 l 1
 274 889 l 1
 465 1041 l 1
 567 984 l 1
EndSplineSet
EndChar

StartChar: uni013B
Encoding: 315 315 296
Width: 499
VWidth: 0
Flags: HMW
LayerCount: 2
Fore
SplineSet
252 700 m 1
 420 700 l 1
 231 148 l 1
 496 148 l 1
 444 0 l 1
 12 0 l 1
 252 700 l 1
171 -62 m 1
 317 -97 l 1
 114 -341 l 1
 1 -316 l 1
 171 -62 l 1
EndSplineSet
EndChar

StartChar: uni013C
Encoding: 316 316 297
Width: 255
VWidth: 0
Flags: HMW
LayerCount: 2
Fore
SplineSet
264 780 m 1
 417 780 l 1
 148 0 l 1
 -1 0 l 1
 264 780 l 1
16 -62 m 1
 162 -97 l 1
 -42 -341 l 1
 -154 -316 l 1
 16 -62 l 1
EndSplineSet
EndChar

StartChar: Lcaron
Encoding: 317 317 298
Width: 499
VWidth: 0
Flags: HMW
LayerCount: 2
Fore
SplineSet
252 700 m 1
 420 700 l 1
 231 148 l 1
 496 148 l 1
 444 0 l 1
 12 0 l 1
 252 700 l 1
576 715 m 1
 721 680 l 1
 519 436 l 1
 406 461 l 1
 576 715 l 1
EndSplineSet
EndChar

StartChar: lcaron
Encoding: 318 318 299
Width: 255
VWidth: 0
Flags: HMW
LayerCount: 2
Fore
SplineSet
264 780 m 1
 417 780 l 1
 148 0 l 1
 -1 0 l 1
 264 780 l 1
537 778 m 1
 683 743 l 1
 480 499 l 1
 367 524 l 1
 537 778 l 1
EndSplineSet
EndChar

StartChar: Ldot
Encoding: 319 319 300
Width: 499
VWidth: 0
Flags: HMW
LayerCount: 2
Fore
SplineSet
252 700 m 1
 420 700 l 1
 231 148 l 1
 496 148 l 1
 444 0 l 1
 12 0 l 1
 252 700 l 1
398 433 m 0
 411 480 465 525 515 524 c 0
 566 523 596 476 583 429 c 0
 570 382 515 337 465 338 c 0
 414 339 385 386 398 433 c 0
EndSplineSet
EndChar

StartChar: ldot
Encoding: 320 320 301
Width: 452
VWidth: 0
Flags: HMW
LayerCount: 2
Fore
SplineSet
264 780 m 1
 417 780 l 1
 148 0 l 1
 -1 0 l 1
 264 780 l 1
322 410 m 0
 335 457 390 503 440 502 c 0
 491 501 520 453 507 406 c 0
 494 359 439 314 389 315 c 0
 338 316 309 363 322 410 c 0
EndSplineSet
EndChar

StartChar: eth
Encoding: 240 240 302
Width: 633
VWidth: 0
Flags: HMW
LayerCount: 2
Fore
SplineSet
455 247 m 0
 475 299 459 361 395 363 c 0
 328 365 261 306 239 246 c 0
 219 193 236 134 299 132 c 0
 365 130 433 187 455 247 c 0
499 697 m 1
 602 443 l 2
 628 379 639 313 619 246 c 0
 573 95 425 -16 267 -16 c 0
 116 -16 29 103 74 247 c 0
 111 363 223 471 349 474 c 0
 395 475 425 456 457 426 c 1
 431 444 l 1
 303 697 l 1
 499 697 l 1
252 521 m 1
 276 598 l 1
 698 598 l 1
 673 521 l 1
 252 521 l 1
EndSplineSet
EndChar

StartChar: racute
Encoding: 341 341 303
Width: 389
VWidth: 0
Flags: HMW
LayerCount: 2
Fore
SplineSet
304 460 m 1
 145 0 l 1
 -3 0 l 1
 156 460 l 1
 304 460 l 1
379 301 m 1
 366 313 353 326 333 327 c 0
 278 329 245 266 223 225 c 1
 204 282 l 1
 238 363 306 474 407 471 c 0
 440 470 460 452 481 429 c 1
 379 301 l 1
554 675 m 1
 339 532 l 1
 261 580 l 1
 452 733 l 1
 554 675 l 1
EndSplineSet
EndChar

StartChar: rcaron
Encoding: 345 345 304
Width: 389
VWidth: 0
Flags: HMW
LayerCount: 2
Fore
SplineSet
304 460 m 1
 145 0 l 1
 -3 0 l 1
 156 460 l 1
 304 460 l 1
379 301 m 1
 366 313 353 326 333 327 c 0
 278 329 245 266 223 225 c 1
 203 282 l 1
 237 363 306 474 407 471 c 0
 440 470 460 452 481 429 c 1
 379 301 l 1
384 661 m 1
 498 744 l 1
 583 666 l 1
 355 531 l 1
 208 677 l 1
 328 745 l 1
 384 661 l 1
EndSplineSet
EndChar

StartChar: Rcaron
Encoding: 344 344 305
Width: 611
VWidth: 0
Flags: HMW
LayerCount: 2
Fore
SplineSet
291 316 m 1
 455 316 l 1
 552 0 l 1
 367 0 l 1
 291 316 l 1
251 700 m 1
 420 700 l 1
 179 0 l 1
 13 0 l 1
 251 700 l 1
305 554 m 1
 354 700 l 1
 487 700 l 0
 622 696 722 612 679 470 c 0
 635 325 495 245 350 241 c 0
 196 241 l 1
 244 375 l 1
 364 375 l 1
 421 379 483 408 504 465 c 0
 523 517 493 548 442 552 c 1
 305 554 l 1
544 906 m 1
 658 989 l 1
 743 911 l 1
 515 777 l 1
 367 922 l 1
 489 990 l 1
 544 906 l 1
EndSplineSet
EndChar

StartChar: uni0213
Encoding: 531 531 306
Width: 389
VWidth: 0
Flags: HMW
LayerCount: 2
Fore
SplineSet
304 460 m 1
 145 0 l 1
 -3 0 l 1
 156 460 l 1
 304 460 l 1
379 301 m 1
 366 313 353 326 333 327 c 0
 278 329 245 266 223 225 c 1
 203 282 l 1
 237 363 306 474 407 471 c 0
 440 470 460 452 481 429 c 1
 379 301 l 1
191 530 m 1
 282 532 l 1
 301 558 326 592 363 590 c 0
 400 588 405 561 407 530 c 1
 498 531 l 1
 518 609 499 675 407 677 c 0
 308 679 237 610 191 530 c 1
EndSplineSet
EndChar

StartChar: uni0212
Encoding: 530 530 307
Width: 611
VWidth: 0
Flags: HMW
LayerCount: 2
Fore
SplineSet
291 316 m 1
 455 316 l 1
 552 0 l 1
 367 0 l 1
 291 316 l 1
251 700 m 1
 420 700 l 1
 179 0 l 1
 13 0 l 1
 251 700 l 1
305 554 m 1
 354 700 l 1
 487 700 l 0
 622 696 722 612 679 470 c 0
 635 325 495 245 350 241 c 0
 196 241 l 1
 244 375 l 1
 364 375 l 1
 421 379 483 408 504 465 c 0
 523 517 493 548 442 552 c 1
 305 554 l 1
363 775 m 1
 455 777 l 1
 474 803 498 836 535 834 c 0
 572 832 577 807 579 776 c 1
 670 777 l 1
 690 855 672 920 580 922 c 0
 481 924 409 855 363 775 c 1
EndSplineSet
EndChar

StartChar: OE
Encoding: 338 338 308
Width: 926
VWidth: 0
Flags: HMW
LayerCount: 2
Fore
SplineSet
573 298 m 1
 622 436 l 1
 974 436 l 1
 926 298 l 1
 573 298 l 1
625 670 m 1
 789 670 l 1
 568 30 l 1
 407 30 l 1
 625 670 l 1
888 141 m 1
 843 0 l 1
 323 0 l 0
 128 7 38 172 94 350 c 0
 155 543 337 694 541 700 c 0
 1083 700 l 1
 1033 558 l 1
 681 558 l 1
 661 548 l 1
 541 548 l 0
 416 543 311 467 267 350 c 0
 227 243 266 158 385 152 c 0
 504 152 l 1
 523 142 l 1
 888 141 l 1
EndSplineSet
EndChar

StartChar: oe
Encoding: 339 339 309
Width: 846
VWidth: 0
Flags: HMW
LayerCount: 2
Fore
SplineSet
693 250 m 2
 706 292 720 360 659 366 c 0
 596 372 547 308 523 259 c 2
 509 230 l 1
 490 181 481 103 552 99 c 0
 600 96 643 131 678 159 c 1
 806 123 l 1
 743 53 655 -11 556 -10 c 0
 423 -9 394 124 426 230 c 0
 431 247 438 263 445 279 c 0
 494 380 598 471 715 470 c 0
 844 469 872 337 843 234 c 0
 840 222 834 210 830 198 c 1
 687 232 l 1
 693 250 l 2
467 198 m 1
 493 281 l 1
 838 281 l 1
 829 197 l 1
 467 198 l 1
54 231 m 0
 92 354 209 471 344 470 c 0
 479 469 498 336 466 230 c 0
 429 113 333 -8 200 -9 c 0
 66 -10 19 118 54 231 c 0
202 229 m 0
 184 181 193 120 254 118 c 0
 317 116 371 177 391 231 c 0
 408 276 407 339 346 342 c 0
 282 345 223 284 202 229 c 0
EndSplineSet
EndChar

StartChar: a.alt
Encoding: 65536 -1 310
Width: 581
VWidth: 0
Flags: HMW
LayerCount: 2
Fore
SplineSet
484 460 m 1
 636 460 l 1
 476 0 l 1
 328 0 l 1
 484 460 l 1
51 231 m 0
 87 350 200 471 332 470 c 0
 464 469 479 330 448 229 c 0
 413 115 318 -9 188 -9 c 0
 55 -9 18 123 51 231 c 0
208 229 m 0
 190 181 200 117 261 115 c 0
 324 113 384 177 405 231 c 0
 422 277 416 342 356 345 c 0
 292 348 229 284 208 229 c 0
EndSplineSet
EndChar

StartChar: Jcircumflex
Encoding: 308 308 312
Width: 314
VWidth: 0
Flags: HMW
LayerCount: 2
Fore
SplineSet
-152 -63 m 1
 -134 -79 -114 -96 -88 -95 c 0
 -44 -93 -10 -51 6 -14 c 1
 252 700 l 1
 434 700 l 1
 177 -54 l 2
 133 -172 22 -240 -102 -239 c 0
 -167 -239 -222 -216 -275 -180 c 1
 -152 -63 l 1
404 859 m 1
 290 777 l 1
 205 855 l 1
 432 989 l 1
 580 844 l 1
 460 776 l 1
 404 859 l 1
EndSplineSet
EndChar

StartChar: jcircumflex
Encoding: 309 309 313
Width: 256
VWidth: 0
Flags: HMW
LayerCount: 2
Fore
SplineSet
-120 -77 m 1
 -112 -88 -102 -101 -85 -102 c 0
 -50 -102 -25 -60 -13 -33 c 1
 157 460 l 1
 303 460 l 1
 122 -74 l 2
 87 -166 9 -241 -95 -239 c 0
 -143 -239 -177 -217 -210 -185 c 1
 -120 -77 l 1
289 614 m 1
 176 531 l 1
 91 609 l 1
 318 743 l 1
 466 598 l 1
 345 530 l 1
 289 614 l 1
EndSplineSet
EndChar

StartChar: Nacute
Encoding: 323 323 314
Width: 746
VWidth: 0
Flags: HMW
LayerCount: 2
Fore
SplineSet
705 700 m 1
 866 700 l 1
 616 -32 l 1
 308 390 l 1
 174 0 l 1
 11 0 l 1
 262 732 l 1
 570 310 l 1
 705 700 l 1
774 905 m 1
 559 763 l 1
 481 810 l 1
 672 963 l 1
 774 905 l 1
EndSplineSet
EndChar

StartChar: nacute
Encoding: 324 324 315
Width: 542
VWidth: 0
Flags: HMW
LayerCount: 2
Fore
SplineSet
307 460 m 1
 149 0 l 1
 -3 0 l 1
 156 460 l 1
 307 460 l 1
378 280 m 1
 387 311 395 355 351 361 c 0
 303 367 267 315 245 281 c 1
 215 275 l 1
 251 370 317 469 430 470 c 0
 537 471 561 387 536 297 c 1
 435 0 l 1
 279 0 l 1
 378 280 l 1
607 674 m 1
 393 532 l 1
 315 579 l 1
 506 732 l 1
 607 674 l 1
EndSplineSet
EndChar

StartChar: uni0145
Encoding: 325 325 316
Width: 746
VWidth: 0
Flags: HMW
LayerCount: 2
Fore
SplineSet
262 -57 m 1
 407 -91 l 1
 204 -335 l 1
 92 -310 l 1
 262 -57 l 1
705 700 m 1
 866 700 l 1
 616 -32 l 1
 308 390 l 1
 174 0 l 1
 11 0 l 1
 262 732 l 1
 570 310 l 1
 705 700 l 1
EndSplineSet
EndChar

StartChar: uni0146
Encoding: 326 326 317
Width: 542
VWidth: 0
Flags: HMW
LayerCount: 2
Fore
SplineSet
307 460 m 1
 149 0 l 1
 -3 0 l 1
 156 460 l 1
 307 460 l 1
378 280 m 1
 387 311 395 355 351 361 c 0
 303 367 267 315 245 281 c 1
 212 275 l 1
 249 370 317 469 430 470 c 0
 537 471 561 387 536 297 c 1
 435 0 l 1
 279 0 l 1
 378 280 l 1
160 -62 m 1
 305 -97 l 1
 102 -341 l 1
 -11 -316 l 1
 160 -62 l 1
EndSplineSet
EndChar

StartChar: Ncaron
Encoding: 327 327 318
Width: 746
VWidth: 0
Flags: HMW
LayerCount: 2
Fore
SplineSet
599 905 m 1
 713 988 l 1
 798 910 l 1
 570 775 l 1
 423 921 l 1
 543 989 l 1
 599 905 l 1
705 700 m 1
 866 700 l 1
 616 -32 l 1
 308 390 l 1
 174 0 l 1
 11 0 l 1
 262 732 l 1
 570 310 l 1
 705 700 l 1
EndSplineSet
EndChar

StartChar: ncaron
Encoding: 328 328 319
Width: 542
VWidth: 0
Flags: HMW
LayerCount: 2
Fore
SplineSet
307 460 m 1
 149 0 l 1
 -3 0 l 1
 156 460 l 1
 307 460 l 1
378 280 m 1
 387 311 395 355 351 361 c 0
 303 367 267 315 245 281 c 1
 212 275 l 1
 249 370 317 469 430 470 c 0
 537 471 561 387 536 297 c 1
 435 0 l 1
 279 0 l 1
 378 280 l 1
434 660 m 1
 549 743 l 1
 634 665 l 1
 406 531 l 1
 258 676 l 1
 378 744 l 1
 434 660 l 1
EndSplineSet
EndChar

StartChar: Omacron
Encoding: 332 332 320
Width: 773
VWidth: 0
Flags: HMW
LayerCount: 2
Fore
SplineSet
271 350 m 0
 237 259 255 146 372 143 c 0
 491 140 594 245 634 350 c 0
 668 441 650 555 533 557 c 0
 414 559 310 455 271 350 c 0
94 350 m 0
 157 549 354 717 567 717 c 0
 773 717 869 535 811 350 c 0
 748 150 551 -24 335 -23 c 0
 126 -22 36 165 94 350 c 0
420 777 m 1
 466 910 l 1
 822 910 l 1
 775 777 l 1
 420 777 l 1
EndSplineSet
EndChar

StartChar: omacron
Encoding: 333 333 321
Width: 555
VWidth: 0
Flags: HMW
LayerCount: 2
Fore
SplineSet
51 231 m 0
 92 368 232 470 375 470 c 0
 511 470 594 360 554 229 c 0
 513 92 373 -10 230 -10 c 0
 94 -10 11 100 51 231 c 0
204 229 m 0
 186 182 196 120 256 118 c 0
 319 116 380 176 401 231 c 0
 419 278 409 341 349 343 c 0
 286 345 225 284 204 229 c 0
228 531 m 1
 274 664 l 1
 630 664 l 1
 583 531 l 1
 228 531 l 1
EndSplineSet
EndChar

StartChar: Obreve
Encoding: 334 334 322
Width: 773
VWidth: 0
Flags: HMW
LayerCount: 2
Fore
SplineSet
271 350 m 0
 237 259 255 146 372 143 c 0
 491 140 594 245 634 350 c 0
 668 441 650 555 533 557 c 0
 414 559 310 455 271 350 c 0
94 350 m 0
 157 549 354 717 567 717 c 0
 773 717 869 535 811 350 c 0
 748 150 551 -24 335 -23 c 0
 126 -22 36 165 94 350 c 0
490 923 m 1
 583 923 l 1
 583 895 584 868 618 865 c 0
 655 862 681 896 701 922 c 1
 803 920 l 1
 767 839 699 779 606 778 c 0
 514 777 479 839 490 923 c 1
EndSplineSet
EndChar

StartChar: obreve
Encoding: 335 335 323
Width: 555
VWidth: 0
Flags: HMW
LayerCount: 2
Fore
SplineSet
51 231 m 0
 92 368 232 470 375 470 c 0
 511 470 594 360 554 229 c 0
 513 92 373 -10 230 -10 c 0
 94 -10 11 100 51 231 c 0
204 229 m 0
 186 182 196 120 256 118 c 0
 319 116 380 176 401 231 c 0
 419 278 409 341 349 343 c 0
 286 345 225 284 204 229 c 0
297 677 m 1
 390 677 l 1
 390 649 391 622 425 619 c 0
 462 616 489 650 509 676 c 1
 610 675 l 1
 574 594 507 533 414 532 c 0
 322 531 286 593 297 677 c 1
EndSplineSet
EndChar

StartChar: Racute
Encoding: 340 340 324
Width: 611
VWidth: 0
Flags: HMW
LayerCount: 2
Fore
SplineSet
291 316 m 1
 455 316 l 1
 552 0 l 1
 367 0 l 1
 291 316 l 1
251 700 m 1
 420 700 l 1
 179 0 l 1
 13 0 l 1
 251 700 l 1
305 554 m 1
 354 700 l 1
 487 700 l 0
 622 696 722 612 679 470 c 0
 635 325 495 245 350 241 c 0
 196 241 l 1
 244 375 l 1
 364 375 l 1
 421 379 483 408 504 465 c 0
 523 517 493 548 442 552 c 1
 305 554 l 1
708 920 m 1
 494 778 l 1
 415 825 l 1
 606 978 l 1
 708 920 l 1
EndSplineSet
EndChar

StartChar: uni0156
Encoding: 342 342 325
Width: 611
VWidth: 0
Flags: HMW
LayerCount: 2
Fore
SplineSet
291 316 m 1
 455 316 l 1
 552 0 l 1
 367 0 l 1
 291 316 l 1
251 700 m 1
 420 700 l 1
 179 0 l 1
 13 0 l 1
 251 700 l 1
305 554 m 1
 354 700 l 1
 487 700 l 0
 622 696 722 612 679 470 c 0
 635 325 495 245 350 241 c 0
 196 241 l 1
 244 375 l 1
 364 375 l 1
 421 379 483 408 504 465 c 0
 523 517 493 548 442 552 c 1
 305 554 l 1
228 -62 m 1
 373 -97 l 1
 170 -341 l 1
 57 -316 l 1
 228 -62 l 1
EndSplineSet
EndChar

StartChar: uni0157
Encoding: 343 343 326
Width: 389
VWidth: 0
Flags: HMW
LayerCount: 2
Fore
SplineSet
304 460 m 1
 145 0 l 1
 -3 0 l 1
 156 460 l 1
 304 460 l 1
379 301 m 1
 366 313 353 326 333 327 c 0
 278 329 245 266 223 225 c 1
 203 282 l 1
 237 363 306 474 407 471 c 0
 440 470 460 452 481 429 c 1
 379 301 l 1
15 -62 m 1
 160 -97 l 1
 -43 -341 l 1
 -155 -316 l 1
 15 -62 l 1
EndSplineSet
EndChar

StartChar: Scedilla
Encoding: 350 350 327
Width: 591
VWidth: 0
Flags: HMW
LayerCount: 2
Fore
SplineSet
171 252 m 1
 187 192 212 128 286 128 c 0
 329 128 378 153 395 195 c 0
 418 254 346 280 305 300 c 0
 217 342 160 417 190 518 c 0
 228 642 359 716 484 716 c 0
 589 716 662 662 686 560 c 1
 544 489 l 1
 528 532 507 569 456 569 c 0
 420 569 372 546 358 511 c 0
 335 455 432 431 467 414 c 0
 557 373 600 292 571 196 c 0
 530 58 388 -24 249 -23 c 0
 130 -22 53 56 32 169 c 1
 171 252 l 1
233 60 m 1
 352 56 l 1
 219 -66 l 1
 229 -64 239 -61 249 -62 c 0
 301 -67 326 -114 312 -162 c 0
 293 -227 221 -266 157 -269 c 0
 107 -271 65 -252 23 -227 c 1
 84 -162 l 1
 104 -174 125 -188 151 -187 c 0
 170 -186 217 -171 221 -148 c 0
 225 -127 195 -120 181 -119 c 0
 152 -117 120 -126 91 -132 c 1
 233 60 l 1
EndSplineSet
EndChar

StartChar: scedilla
Encoding: 351 351 328
Width: 430
VWidth: 0
Flags: HMW
LayerCount: 2
Fore
SplineSet
75 174 m 1
 104 138 142 90 195 95 c 0
 215 96 246 110 253 131 c 0
 265 169 215 183 190 194 c 0
 129 221 87 270 108 340 c 0
 134 425 227 468 310 469 c 0
 379 470 435 440 484 400 c 1
 404 304 l 1
 379 334 349 365 306 364 c 0
 287 364 252 354 244 333 c 0
 229 295 298 281 321 271 c 0
 380 245 420 196 402 129 c 0
 377 35 287 -17 194 -18 c 0
 108 -19 42 22 -13 76 c 1
 75 174 l 1
173 63 m 1
 291 59 l 1
 159 -62 l 1
 168 -60 179 -58 188 -59 c 0
 240 -64 267 -110 253 -159 c 0
 235 -224 160 -263 96 -265 c 0
 46 -267 5 -248 -37 -223 c 1
 23 -159 l 1
 43 -171 64 -184 90 -183 c 0
 109 -182 156 -168 160 -145 c 0
 164 -124 133 -116 119 -115 c 0
 90 -113 59 -123 30 -129 c 1
 173 63 l 1
EndSplineSet
EndChar

StartChar: Zcaron
Encoding: 381 381 329
Width: 585
VWidth: 0
Flags: HMW
LayerCount: 2
Fore
SplineSet
183 545 m 1
 237 700 l 1
 766 699 l 1
 268 149 l 1
 540 148 l 1
 487 0 l 1
 -54 0 l 1
 438 544 l 1
 183 545 l 1
561 906 m 1
 675 989 l 1
 760 911 l 1
 533 777 l 1
 385 922 l 1
 505 990 l 1
 561 906 l 1
EndSplineSet
EndChar

StartChar: zcaron
Encoding: 382 382 330
Width: 486
VWidth: 0
Flags: HMW
LayerCount: 2
Fore
SplineSet
430 660 m 1
 544 742 l 1
 629 664 l 1
 402 530 l 1
 254 675 l 1
 374 744 l 1
 430 660 l 1
288 319 m 1
 106 321 l 1
 155 460 l 1
 591 459 l 1
 266 141 l 1
 446 140 l 1
 397 0 l 1
 -48 0 l 1
 288 319 l 1
EndSplineSet
EndChar

StartChar: Ydieresis
Encoding: 376 376 331
Width: 624
VWidth: 0
Flags: HMW
LayerCount: 2
Fore
SplineSet
336 873 m 0
 348 916 400 954 444 953 c 0
 489 952 520 913 508 868 c 0
 496 825 444 788 400 789 c 0
 354 790 324 828 336 873 c 0
603 873 m 0
 615 916 667 954 711 953 c 0
 756 952 788 913 776 868 c 0
 764 825 711 788 667 789 c 0
 621 790 591 828 603 873 c 0
618 699 m 1
 819 699 l 1
 439 276 l 1
 344 0 l 1
 172 0 l 1
 274 293 l 1
 186 700 l 1
 369 700 l 1
 405 445 l 1
 618 699 l 1
EndSplineSet
EndChar

StartChar: Scaron
Encoding: 352 352 332
Width: 591
VWidth: 0
Flags: HMW
LayerCount: 2
Fore
SplineSet
171 252 m 1
 187 192 212 128 286 128 c 0
 329 128 378 153 395 195 c 0
 418 254 346 280 305 300 c 0
 218 343 160 421 190 520 c 0
 227 643 360 716 484 716 c 0
 588 716 663 662 686 560 c 1
 544 489 l 1
 529 531 511 568 460 569 c 0
 423 569 373 547 358 511 c 0
 335 456 432 431 467 414 c 0
 557 373 599 292 570 196 c 0
 529 57 389 -24 249 -23 c 0
 130 -22 53 56 32 169 c 1
 171 252 l 1
551 906 m 1
 665 989 l 1
 750 911 l 1
 522 777 l 1
 375 922 l 1
 495 990 l 1
 551 906 l 1
EndSplineSet
EndChar

StartChar: scaron
Encoding: 353 353 333
Width: 430
VWidth: 0
Flags: HMW
LayerCount: 2
Fore
SplineSet
76 174 m 1
 104 137 140 98 194 99 c 0
 214 99 246 110 253 131 c 0
 264 165 189 183 166 195 c 0
 112 223 78 277 96 338 c 0
 123 427 224 468 310 469 c 0
 379 469 437 441 484 400 c 1
 405 304 l 1
 375 334 343 358 298 358 c 0
 279 358 243 350 237 329 c 0
 227 296 301 279 321 269 c 0
 379 243 420 195 402 129 c 0
 377 34 284 -18 190 -19 c 0
 104 -20 37 19 -13 75 c 1
 76 174 l 1
371 647 m 1
 486 730 l 1
 571 652 l 1
 342 518 l 1
 195 663 l 1
 315 731 l 1
 371 647 l 1
EndSplineSet
EndChar

StartChar: Lslash
Encoding: 321 321 334
Width: 505
VWidth: 0
Flags: HMW
LayerCount: 2
Fore
SplineSet
61 308 m 1
 45 389 l 1
 472 632 l 1
 489 553 l 1
 61 308 l 1
252 700 m 1
 420 700 l 1
 231 148 l 1
 496 148 l 1
 444 0 l 1
 12 0 l 1
 252 700 l 1
EndSplineSet
EndChar

StartChar: lslash
Encoding: 322 322 335
Width: 255
VWidth: 0
Flags: HMW
LayerCount: 2
Fore
SplineSet
49 308 m 1
 33 389 l 1
 420 605 l 1
 436 526 l 1
 49 308 l 1
264 780 m 1
 417 780 l 1
 148 0 l 1
 -1 0 l 1
 264 780 l 1
EndSplineSet
EndChar

StartChar: uni0218
Encoding: 536 536 336
Width: 591
VWidth: 0
Flags: HMW
LayerCount: 2
Fore
SplineSet
171 252 m 1
 187 192 212 128 286 128 c 0
 329 128 378 153 395 195 c 0
 418 254 346 280 305 300 c 0
 218 343 160 421 190 520 c 0
 227 643 360 716 484 716 c 0
 588 716 663 662 686 560 c 1
 544 489 l 1
 529 531 511 568 460 569 c 0
 423 569 373 547 358 511 c 0
 335 456 432 431 467 414 c 0
 557 373 600 292 571 196 c 0
 530 57 389 -24 249 -23 c 0
 130 -22 53 56 32 169 c 1
 171 252 l 1
161 -72 m 1
 307 -107 l 1
 103 -351 l 1
 -10 -326 l 1
 161 -72 l 1
EndSplineSet
EndChar

StartChar: uni0219
Encoding: 537 537 337
Width: 430
VWidth: 0
Flags: HMW
LayerCount: 2
Fore
SplineSet
76 174 m 1
 104 137 140 98 194 99 c 0
 214 99 246 110 253 131 c 0
 264 165 189 183 166 195 c 0
 112 223 78 277 96 338 c 0
 123 427 224 468 310 469 c 0
 379 469 437 441 484 400 c 1
 405 304 l 1
 375 334 343 358 298 358 c 0
 279 358 243 350 237 329 c 0
 227 296 301 279 321 269 c 0
 379 243 420 195 402 129 c 0
 377 34 284 -18 190 -19 c 0
 104 -20 37 19 -13 75 c 1
 76 174 l 1
104 -69 m 1
 249 -103 l 1
 46 -347 l 1
 -67 -322 l 1
 104 -69 l 1
EndSplineSet
EndChar

StartChar: pi
Encoding: 960 960 338
Width: 568
VWidth: 0
Flags: HMW
LayerCount: 2
Fore
SplineSet
175 430 m 1
 318 430 l 1
 168 0 l 1
 28 0 l 1
 175 430 l 1
129 460 m 1
 639 460 l 1
 593 333 l 1
 84 333 l 1
 129 460 l 1
411 430 m 1
 553 430 l 1
 464 179 l 1
 452 139 454 125 492 110 c 1
 454 -8 l 1
 363 -6 276 9 306 121 c 1
 411 430 l 1
EndSplineSet
EndChar

StartChar: trademark
Encoding: 8482 8482 339
Width: 704
VWidth: 0
Flags: HMW
LayerCount: 2
Fore
SplineSet
183 623 m 1
 210 700 l 1
 478 700 l 1
 451 623 l 1
 361 622 l 1
 267 350 l 1
 180 350 l 1
 274 622 l 1
 183 623 l 1
716 599 m 1
 824 730 l 1
 747 350 l 1
 659 350 l 1
 716 599 l 1
534 719 m 1
 554 583 l 1
 445 351 l 1
 352 351 l 1
 534 719 l 1
829 732 m 1
 779 593 l 1
 566 379 l 1
 496 611 l 1
 534 716 l 1
 599 509 l 1
 829 732 l 1
EndSplineSet
EndChar

StartChar: uni2219
Encoding: 8729 8729 340
Width: 303
VWidth: 0
Flags: HMW
LayerCount: 2
Fore
SplineSet
157 446 m 0
 170 493 225 538 275 537 c 0
 326 536 355 489 342 442 c 0
 329 395 274 350 224 351 c 0
 173 352 144 399 157 446 c 0
EndSplineSet
EndChar

StartChar: agrave.alt
Encoding: 65537 -1 341
Width: 581
VWidth: 0
Flags: HMW
LayerCount: 2
Fore
SplineSet
484 460 m 1
 636 460 l 1
 476 0 l 1
 328 0 l 1
 484 460 l 1
51 231 m 0
 87 350 200 471 332 470 c 0
 464 469 479 330 448 229 c 0
 413 115 318 -9 188 -9 c 0
 55 -9 18 123 51 231 c 0
208 229 m 0
 190 181 200 117 261 115 c 0
 324 113 384 177 405 231 c 0
 422 277 416 342 356 345 c 0
 292 348 229 284 208 229 c 0
304 685 m 1
 426 734 l 1
 517 568 l 1
 428 531 l 1
 304 685 l 1
EndSplineSet
EndChar

StartChar: aacute.alt
Encoding: 65538 -1 342
Width: 581
VWidth: 0
Flags: HMW
LayerCount: 2
Fore
SplineSet
484 460 m 1
 636 460 l 1
 476 0 l 1
 328 0 l 1
 484 460 l 1
51 231 m 0
 87 350 200 471 332 470 c 0
 464 469 479 330 448 229 c 0
 413 115 318 -9 188 -9 c 0
 55 -9 18 123 51 231 c 0
208 229 m 0
 190 181 200 117 261 115 c 0
 324 113 384 177 405 231 c 0
 422 277 416 342 356 345 c 0
 292 348 229 284 208 229 c 0
605 674 m 1
 390 532 l 1
 313 579 l 1
 503 732 l 1
 605 674 l 1
EndSplineSet
EndChar

StartChar: acircumflex.alt
Encoding: 65539 -1 343
Width: 581
VWidth: 0
Flags: HMW
LayerCount: 2
Fore
SplineSet
484 460 m 1
 636 460 l 1
 476 0 l 1
 328 0 l 1
 484 460 l 1
51 231 m 0
 87 350 200 471 332 470 c 0
 464 469 479 330 448 229 c 0
 413 115 318 -9 188 -9 c 0
 55 -9 18 123 51 231 c 0
208 229 m 0
 190 181 200 117 261 115 c 0
 324 113 384 177 405 231 c 0
 422 277 416 342 356 345 c 0
 292 348 229 284 208 229 c 0
460 614 m 1
 346 531 l 1
 261 609 l 1
 489 743 l 1
 636 598 l 1
 516 530 l 1
 460 614 l 1
EndSplineSet
EndChar

StartChar: atilde.alt
Encoding: 65540 -1 344
Width: 581
VWidth: 0
Flags: HMW
LayerCount: 2
Fore
SplineSet
484 460 m 1
 636 460 l 1
 476 0 l 1
 328 0 l 1
 484 460 l 1
51 231 m 0
 87 350 200 471 332 470 c 0
 464 469 479 330 448 229 c 0
 413 115 318 -9 188 -9 c 0
 55 -9 18 123 51 231 c 0
208 229 m 0
 190 181 200 117 261 115 c 0
 324 113 384 177 405 231 c 0
 422 277 416 342 356 345 c 0
 292 348 229 284 208 229 c 0
265 601 m 1
 295 649 342 693 404 692 c 0
 448 691 470 639 514 642 c 0
 547 644 574 673 597 693 c 1
 648 614 l 1
 612 575 557 528 499 533 c 0
 456 537 429 590 385 584 c 0
 356 580 337 556 320 535 c 1
 265 601 l 1
EndSplineSet
EndChar

StartChar: adieresis.alt
Encoding: 65541 -1 345
Width: 581
VWidth: 0
Flags: HMW
LayerCount: 2
Fore
SplineSet
484 460 m 1
 636 460 l 1
 476 0 l 1
 328 0 l 1
 484 460 l 1
51 231 m 0
 87 350 200 471 332 470 c 0
 464 469 479 330 448 229 c 0
 413 115 318 -9 188 -9 c 0
 55 -9 18 123 51 231 c 0
208 229 m 0
 190 181 200 117 261 115 c 0
 324 113 384 177 405 231 c 0
 422 277 416 342 356 345 c 0
 292 348 229 284 208 229 c 0
475 616 m 0
 487 659 539 697 583 696 c 0
 628 695 660 656 648 611 c 0
 636 568 584 531 540 532 c 0
 495 533 463 571 475 616 c 0
244 616 m 0
 256 659 308 697 352 696 c 0
 397 695 428 656 416 611 c 0
 404 568 352 531 308 532 c 0
 263 533 232 571 244 616 c 0
EndSplineSet
EndChar

StartChar: aring.alt
Encoding: 65542 -1 346
Width: 581
VWidth: 0
Flags: HMW
LayerCount: 2
Fore
SplineSet
484 460 m 1
 636 460 l 1
 476 0 l 1
 328 0 l 1
 484 460 l 1
51 231 m 0
 87 350 200 471 332 470 c 0
 464 469 479 330 448 229 c 0
 413 115 318 -9 188 -9 c 0
 55 -9 18 123 51 231 c 0
208 229 m 0
 190 181 200 117 261 115 c 0
 324 113 384 177 405 231 c 0
 422 277 416 342 356 345 c 0
 292 348 229 284 208 229 c 0
318 648 m 0
 336 710 405 762 470 762 c 0
 535 762 578 708 560 645 c 0
 542 582 473 531 407 531 c 0
 342 531 300 585 318 648 c 0
395 645 m 0
 390 628 397 601 417 600 c 0
 440 599 475 628 482 648 c 0
 487 665 480 692 460 693 c 0
 437 694 402 665 395 645 c 0
EndSplineSet
EndChar

StartChar: amacron.alt
Encoding: 65543 -1 347
Width: 581
VWidth: 0
Flags: HMW
LayerCount: 2
Fore
SplineSet
484 460 m 1
 636 460 l 1
 476 0 l 1
 328 0 l 1
 484 460 l 1
51 231 m 0
 87 350 200 471 332 470 c 0
 464 469 479 330 448 229 c 0
 413 115 318 -9 188 -9 c 0
 55 -9 18 123 51 231 c 0
208 229 m 0
 190 181 200 117 261 115 c 0
 324 113 384 177 405 231 c 0
 422 277 416 342 356 345 c 0
 292 348 229 284 208 229 c 0
243 538 m 1
 289 671 l 1
 645 671 l 1
 599 538 l 1
 243 538 l 1
EndSplineSet
EndChar

StartChar: abreve.alt
Encoding: 65544 -1 348
Width: 581
VWidth: 0
Flags: HMW
LayerCount: 2
Fore
SplineSet
484 460 m 1
 636 460 l 1
 476 0 l 1
 328 0 l 1
 484 460 l 1
51 231 m 0
 87 350 200 471 332 470 c 0
 464 469 479 330 448 229 c 0
 413 115 318 -9 188 -9 c 0
 55 -9 18 123 51 231 c 0
208 229 m 0
 190 181 200 117 261 115 c 0
 324 113 384 177 405 231 c 0
 422 277 416 342 356 345 c 0
 292 348 229 284 208 229 c 0
288 677 m 1
 382 676 l 1
 383 648 384 622 418 619 c 0
 455 616 482 650 501 676 c 1
 602 674 l 1
 567 593 500 532 407 531 c 0
 315 530 278 593 288 677 c 1
EndSplineSet
EndChar

StartChar: aogonek.alt
Encoding: 65545 -1 349
Width: 581
VWidth: 0
Flags: HMW
LayerCount: 2
Fore
SplineSet
484 460 m 1
 636 460 l 1
 476 0 l 1
 328 0 l 1
 484 460 l 1
51 231 m 0
 87 350 200 471 332 470 c 0
 464 469 479 330 448 229 c 0
 413 115 318 -9 188 -9 c 0
 55 -9 18 123 51 231 c 0
208 229 m 0
 190 181 200 117 261 115 c 0
 324 113 384 177 405 231 c 0
 422 277 416 342 356 345 c 0
 292 348 229 284 208 229 c 0
408 -110 m 1
 420 -183 l 1
 388 -204 354 -220 316 -220 c 0
 258 -219 216 -178 232 -118 c 0
 253 -42 343 -5 407 25 c 1
 445 0 l 1
 409 -24 351 -48 337 -94 c 0
 333 -109 335 -126 353 -129 c 0
 370 -132 393 -117 408 -110 c 1
EndSplineSet
EndChar

StartChar: dagger
Encoding: 8224 8224 350
Width: 596
VWidth: 0
Flags: HMW
LayerCount: 2
Fore
SplineSet
215 540 m 1
 649 540 l 1
 607 413 l 1
 174 413 l 1
 215 540 l 1
409 700 m 1
 552 700 l 1
 288 -150 l 1
 148 -150 l 1
 409 700 l 1
EndSplineSet
EndChar

StartChar: daggerdbl
Encoding: 8225 8225 351
Width: 596
VWidth: 0
Flags: HMW
LayerCount: 2
Fore
SplineSet
97 159 m 1
 531 159 l 1
 491 32 l 1
 57 32 l 1
 97 159 l 1
215 540 m 1
 649 540 l 1
 607 413 l 1
 174 413 l 1
 215 540 l 1
409 700 m 1
 552 700 l 1
 288 -150 l 1
 148 -150 l 1
 409 700 l 1
EndSplineSet
EndChar

StartChar: ellipsis
Encoding: 8230 8230 352
Width: 870
VWidth: 0
Flags: HMW
LayerCount: 2
Fore
SplineSet
29 71 m 0
 42 118 97 163 147 162 c 0
 198 161 227 114 214 67 c 0
 201 20 146 -25 96 -24 c 0
 45 -23 16 24 29 71 c 0
311 71 m 0
 324 118 379 163 429 162 c 0
 480 161 510 114 497 67 c 0
 484 20 428 -25 378 -24 c 0
 327 -23 298 24 311 71 c 0
594 71 m 0
 607 118 661 163 711 162 c 0
 762 161 792 114 779 67 c 0
 766 20 711 -25 661 -24 c 0
 610 -23 581 24 594 71 c 0
EndSplineSet
EndChar

StartChar: uniFF10
Encoding: 65296 65296 353
Width: 593
VWidth: 0
Flags: HMW
LayerCount: 2
Fore
SplineSet
245 350 m 0
 225 294 179 140 279 136 c 0
 382 132 450 270 479 350 c 0
 499 406 545 560 445 564 c 0
 342 568 274 430 245 350 c 0
84 350 m 0
 139 521 278 713 476 713 c 0
 679 713 688 499 640 350 c 0
 585 178 447 -14 248 -13 c 0
 47 -12 36 202 84 350 c 0
EndSplineSet
EndChar

StartChar: uniFF11
Encoding: 65297 65297 354
Width: 593
VWidth: 0
Flags: HMW
LayerCount: 2
Fore
SplineSet
212 493 m 1
 267 647 l 1
 616 716 l 1
 371 0 l 1
 209 0 l 1
 392 534 l 1
 212 493 l 1
EndSplineSet
EndChar

StartChar: uniFF12
Encoding: 65298 65298 355
Width: 593
VWidth: 0
Flags: HMW
LayerCount: 2
Fore
SplineSet
-50 0 m 1
 352 322 l 2
 405 364 478 412 500 480 c 0
 514 521 499 562 451 565 c 0
 380 569 333 496 305 441 c 1
 140 442 l 1
 194 590 321 715 488 714 c 0
 615 714 711 616 672 487 c 0
 648 408 585 347 520 300 c 2
 320 159 l 1
 578 157 l 1
 523 0 l 1
 -50 0 l 1
EndSplineSet
EndChar

StartChar: uniFF13
Encoding: 65299 65299 356
Width: 593
VWidth: 0
Flags: HMW
LayerCount: 2
Fore
SplineSet
319 339 m 1
 342 415 l 1
 397 424 480 446 498 509 c 0
 508 544 494 573 456 575 c 0
 404 578 365 534 340 494 c 1
 185 495 l 1
 234 620 346 713 484 713 c 0
 595 713 702 640 665 518 c 0
 622 373 449 343 319 339 c 1
248 -16 m 0
 105 -15 34 89 59 224 c 1
 221 223 l 1
 214 171 220 126 282 123 c 0
 336 121 393 158 412 209 c 0
 440 284 362 299 306 305 c 1
 332 391 l 1
 452 386 618 348 572 191 c 0
 532 56 381 -17 248 -16 c 0
EndSplineSet
EndChar

StartChar: uniFF14
Encoding: 65300 65300 357
Width: 593
VWidth: 0
Flags: HMW
LayerCount: 2
Fore
SplineSet
-11 125 m 1
 166 247 l 1
 425 248 l 1
 449 270 l 1
 618 270 l 1
 567 124 l 1
 -11 125 l 1
175 176 m 1
 -17 118 l 1
 542 699 l 1
 673 700 l 1
 433 0 l 1
 258 0 l 1
 313 159 l 1
 335 170 l 1
 428 435 l 1
 175 176 l 1
EndSplineSet
EndChar

StartChar: uniFF15
Encoding: 65301 65301 358
Width: 593
VWidth: 0
Flags: HMW
LayerCount: 2
Fore
SplineSet
583 223 m 0
 538 79 389 -12 242 -13 c 0
 145 -14 65 22 -3 77 c 1
 100 218 l 1
 136 178 181 146 241 145 c 0
 306 144 386 177 408 244 c 0
 428 305 378 335 324 337 c 0
 252 340 182 318 115 297 c 1
 248 380 l 1
 308 420 374 454 448 452 c 0
 573 449 616 330 583 223 c 0
420 549 m 1
 303 376 l 1
 102 287 l 1
 340 699 l 1
 732 700 l 1
 681 550 l 1
 420 549 l 1
EndSplineSet
EndChar

StartChar: uniFF16
Encoding: 65302 65302 359
Width: 593
VWidth: 0
Flags: HMW
LayerCount: 2
Fore
SplineSet
218 246 m 0
 198 193 216 134 279 132 c 0
 345 130 413 187 435 247 c 0
 455 299 439 361 375 363 c 0
 308 365 240 306 218 246 c 0
470 696 m 1
 692 696 l 1
 391 448 l 1
 345 434 l 1
 381 456 418 473 461 473 c 0
 584 472 630 350 599 245 c 0
 554 93 404 -16 247 -16 c 0
 96 -16 9 102 54 246 c 0
 78 324 136 388 195 443 c 2
 470 696 l 1
EndSplineSet
EndChar

StartChar: uniFF17
Encoding: 65303 65303 360
Width: 593
VWidth: 0
Flags: HMW
LayerCount: 2
Fore
SplineSet
162 539 m 1
 218 700 l 1
 768 699 l 1
 209 0 l 1
 21 0 l 1
 461 538 l 1
 162 539 l 1
EndSplineSet
EndChar

StartChar: uniFF18
Encoding: 65304 65304 361
Width: 593
VWidth: 0
Flags: HMW
LayerCount: 2
Fore
SplineSet
210 532 m 0
 245 649 374 716 490 716 c 0
 597 716 698 647 664 530 c 0
 630 412 499 342 382 342 c 0
 274 342 176 415 210 532 c 0
359 513 m 0
 348 480 358 440 398 437 c 0
 440 433 490 479 503 516 c 0
 515 549 505 589 464 592 c 0
 421 595 372 551 359 513 c 0
70 191 m 0
 108 321 252 396 381 396 c 0
 499 396 609 318 571 189 c 0
 533 61 387 -16 259 -16 c 0
 142 -16 33 64 70 191 c 0
243 215 m 0
 228 174 242 128 291 125 c 0
 342 122 398 171 415 218 c 0
 428 258 414 302 367 305 c 0
 317 308 260 259 243 215 c 0
EndSplineSet
EndChar

StartChar: uniFF19
Encoding: 65305 65305 362
Width: 593
VWidth: 0
Flags: HMW
LayerCount: 2
Fore
SplineSet
506 454 m 0
 526 507 508 566 445 568 c 0
 379 570 311 513 289 453 c 0
 269 401 286 339 350 337 c 0
 417 335 484 394 506 454 c 0
255 4 m 1
 32 4 l 1
 333 252 l 1
 379 266 l 1
 343 244 306 227 263 227 c 0
 140 228 94 350 125 455 c 0
 170 607 320 716 477 716 c 0
 628 716 715 598 670 454 c 0
 646 376 589 312 530 257 c 2
 255 4 l 1
EndSplineSet
EndChar

StartChar: caron
Encoding: 711 711 363
Width: 451
VWidth: 0
Flags: HMW
LayerCount: 2
Fore
SplineSet
396 679 m 1
 509 762 l 1
 595 684 l 1
 367 550 l 1
 220 695 l 1
 340 763 l 1
 396 679 l 1
EndSplineSet
EndChar

StartChar: napostrophe
Encoding: 329 329 364
Width: 706
VWidth: 0
Flags: HMW
LayerCount: 2
Fore
SplineSet
472 460 m 1
 314 0 l 1
 162 0 l 1
 321 460 l 1
 472 460 l 1
542 280 m 1
 551 311 560 355 516 361 c 0
 468 367 432 315 410 281 c 1
 377 275 l 1
 414 370 482 469 595 470 c 0
 702 471 726 387 701 297 c 1
 600 0 l 1
 444 0 l 1
 542 280 l 1
284 700 m 1
 447 699 l 1
 260 445 l 1
 146 445 l 1
 284 700 l 1
EndSplineSet
EndChar

StartChar: IJ
Encoding: 306 306 365
Width: 591
VWidth: 0
Flags: HMW
LayerCount: 2
Fore
SplineSet
126 -63 m 1
 144 -79 164 -96 190 -95 c 0
 234 -93 268 -51 284 -14 c 1
 530 700 l 1
 712 700 l 1
 455 -54 l 2
 411 -172 301 -240 177 -239 c 0
 112 -239 56 -216 3 -180 c 1
 126 -63 l 1
251 700 m 1
 423 700 l 1
 182 0 l 1
 13 0 l 1
 251 700 l 1
EndSplineSet
EndChar

StartChar: ij
Encoding: 307 307 366
Width: 513
VWidth: 0
Flags: HMW
LayerCount: 2
Fore
SplineSet
459 634 m 0
 471 677 523 715 567 714 c 0
 612 713 643 674 631 629 c 0
 619 586 567 549 523 550 c 0
 478 551 447 589 459 634 c 0
138 -77 m 1
 146 -76 161 -101 172 -102 c 0
 206 -106 232 -58 243 -33 c 1
 415 460 l 1
 560 460 l 1
 378 -74 l 2
 343 -166 265 -241 161 -239 c 0
 113 -239 81 -217 47 -185 c 1
 138 -77 l 1
206 634 m 0
 218 677 269 715 313 714 c 0
 358 713 390 674 378 629 c 0
 366 586 314 549 270 550 c 0
 225 551 194 589 206 634 c 0
159 460 m 1
 307 460 l 1
 148 0 l 1
 3 0 l 1
 159 460 l 1
EndSplineSet
EndChar

StartChar: uni0237
Encoding: 567 567 367
Width: 256
VWidth: 0
Flags: HMW
LayerCount: 2
Fore
SplineSet
-120 -77 m 1
 -112 -88 -102 -101 -85 -102 c 0
 -50 -102 -25 -60 -13 -33 c 1
 157 460 l 1
 303 460 l 1
 122 -74 l 2
 87 -166 9 -241 -95 -239 c 0
 -143 -239 -177 -217 -210 -185 c 1
 -120 -77 l 1
EndSplineSet
EndChar

StartChar: Sacute
Encoding: 346 346 368
Width: 591
VWidth: 0
Flags: HMW
LayerCount: 2
Fore
SplineSet
171 252 m 1
 187 192 212 128 286 128 c 0
 329 128 378 153 395 195 c 0
 418 254 346 280 305 300 c 0
 218 343 160 421 190 520 c 0
 227 643 360 716 484 716 c 0
 588 716 663 662 686 560 c 1
 544 489 l 1
 529 531 511 568 460 569 c 0
 423 569 373 547 358 511 c 0
 335 456 432 431 467 414 c 0
 557 373 600 292 571 196 c 0
 530 57 389 -24 249 -23 c 0
 130 -22 53 56 32 169 c 1
 171 252 l 1
738 920 m 1
 523 778 l 1
 444 825 l 1
 635 978 l 1
 738 920 l 1
EndSplineSet
EndChar

StartChar: sacute
Encoding: 347 347 369
Width: 430
VWidth: 0
Flags: HMW
LayerCount: 2
Fore
SplineSet
76 174 m 1
 104 137 140 98 194 99 c 0
 214 99 246 110 253 131 c 0
 264 165 189 183 166 195 c 0
 112 223 78 277 96 338 c 0
 123 427 224 468 310 469 c 0
 379 469 437 441 484 400 c 1
 405 304 l 1
 375 334 343 358 298 358 c 0
 279 358 243 350 237 329 c 0
 227 296 301 279 321 269 c 0
 379 243 420 195 402 129 c 0
 377 34 284 -18 190 -19 c 0
 104 -20 37 19 -13 75 c 1
 76 174 l 1
562 674 m 1
 347 532 l 1
 269 579 l 1
 459 732 l 1
 562 674 l 1
EndSplineSet
EndChar

StartChar: Scircumflex
Encoding: 348 348 370
Width: 591
VWidth: 0
Flags: HMW
LayerCount: 2
Fore
SplineSet
171 252 m 1
 187 192 212 128 286 128 c 0
 329 128 378 153 395 195 c 0
 418 254 346 280 305 300 c 0
 218 343 160 421 190 520 c 0
 227 643 360 716 484 716 c 0
 588 716 663 662 686 560 c 1
 544 489 l 1
 529 531 511 568 460 569 c 0
 423 569 373 547 358 511 c 0
 335 456 432 431 467 414 c 0
 557 373 599 292 570 196 c 0
 529 57 389 -24 249 -23 c 0
 130 -22 53 56 32 169 c 1
 171 252 l 1
551 859 m 1
 436 777 l 1
 352 855 l 1
 579 989 l 1
 727 844 l 1
 607 776 l 1
 551 859 l 1
EndSplineSet
EndChar

StartChar: scircumflex
Encoding: 349 349 371
Width: 430
VWidth: 0
Flags: HMW
LayerCount: 2
Fore
SplineSet
76 174 m 1
 104 137 140 98 194 99 c 0
 214 99 246 110 253 131 c 0
 264 165 189 183 166 195 c 0
 112 223 78 277 96 338 c 0
 123 427 224 468 310 469 c 0
 379 469 437 441 484 400 c 1
 405 304 l 1
 375 334 343 358 298 358 c 0
 279 358 243 350 237 329 c 0
 227 296 301 279 321 269 c 0
 379 243 420 195 402 129 c 0
 377 34 284 -18 190 -19 c 0
 104 -20 37 19 -13 75 c 1
 76 174 l 1
388 614 m 1
 274 531 l 1
 189 609 l 1
 416 743 l 1
 564 598 l 1
 444 530 l 1
 388 614 l 1
EndSplineSet
EndChar

StartChar: uni1E9E
Encoding: 7838 7838 372
Width: 844
VWidth: 0
Flags: HMW
LayerCount: 2
Fore
SplineSet
480 -16 m 0
 336 -15 278 93 304 224 c 1
 448 223 l 1
 441 172 448 127 509 123 c 0
 563 120 620 158 638 209 c 0
 665 285 590 299 533 305 c 1
 554 379 l 1
 670 375 841 338 796 184 c 0
 758 54 607 -17 480 -16 c 0
548 346 m 1
 569 416 l 1
 625 423 695 441 715 502 c 0
 736 565 657 578 612 577 c 0
 465 576 351 465 301 334 c 1
 186 0 l 1
 17 0 l 1
 141 360 l 2
 214 568 411 709 632 710 c 0
 743 711 937 673 892 520 c 0
 850 377 674 351 548 346 c 1
EndSplineSet
EndChar

StartChar: Zacute
Encoding: 377 377 373
Width: 585
VWidth: 0
Flags: HW
LayerCount: 2
Fore
SplineSet
183 545 m 1
 237 700 l 1
 766 699 l 1
 268 149 l 1
 540 148 l 1
 487 0 l 1
 -54 0 l 1
 438 544 l 1
 183 545 l 1
741 920 m 1
 526 778 l 1
 448 825 l 1
 638 978 l 1
 741 920 l 1
EndSplineSet
EndChar

StartChar: zacute
Encoding: 378 378 374
Width: 492
VWidth: 0
Flags: HW
LayerCount: 2
Fore
SplineSet
287 319 m 1
 106 321 l 1
 155 460 l 1
 591 459 l 1
 267 141 l 1
 446 139 l 1
 397 0 l 1
 -48 0 l 1
 287 319 l 1
613 681 m 1
 398 539 l 1
 319 586 l 1
 510 739 l 1
 613 681 l 1
EndSplineSet
EndChar

StartChar: Zdotaccent
Encoding: 379 379 375
Width: 585
VWidth: 0
Flags: HW
LayerCount: 2
Fore
SplineSet
183 545 m 1
 237 700 l 1
 766 699 l 1
 268 149 l 1
 540 148 l 1
 487 0 l 1
 -54 0 l 1
 438 544 l 1
 183 545 l 1
467 862 m 0
 479 905 531 943 575 942 c 0
 620 941 651 902 639 857 c 0
 627 814 575 777 531 778 c 0
 486 779 455 817 467 862 c 0
EndSplineSet
EndChar

StartChar: zdotaccent
Encoding: 380 380 376
Width: 492
VWidth: 0
Flags: HW
LayerCount: 2
Fore
SplineSet
287 319 m 1
 106 321 l 1
 155 460 l 1
 591 459 l 1
 267 141 l 1
 446 139 l 1
 397 0 l 1
 -48 0 l 1
 287 319 l 1
340 627 m 0
 352 670 404 707 448 706 c 0
 493 705 524 666 512 621 c 0
 500 578 449 541 405 542 c 0
 360 543 328 582 340 627 c 0
EndSplineSet
EndChar

StartChar: Tcaron
Encoding: 356 356 377
Width: 531
VWidth: 0
Flags: HW
LayerCount: 2
Fore
SplineSet
131 545 m 1
 186 700 l 1
 717 700 l 1
 663 545 l 1
 482 545 l 1
 296 0 l 1
 127 0 l 1
 314 545 l 1
 131 545 l 1
514 906 m 1
 627 989 l 1
 712 911 l 1
 485 777 l 1
 337 922 l 1
 457 990 l 1
 514 906 l 1
EndSplineSet
EndChar

StartChar: tcaron
Encoding: 357 357 378
Width: 459
VWidth: 0
Flags: HW
LayerCount: 2
Fore
SplineSet
106 460 m 1
 404 460 l 1
 359 333 l 1
 60 333 l 1
 106 460 l 1
236 620 m 1
 382 620 l 1
 168 0 l 1
 25 0 l 1
 236 620 l 1
570 783 m 1
 715 749 l 1
 512 505 l 1
 399 530 l 1
 570 783 l 1
EndSplineSet
EndChar

StartChar: Uring
Encoding: 366 366 379
Width: 661
VWidth: 0
Flags: HW
LayerCount: 2
Fore
SplineSet
247 700 m 1
 415 700 l 1
 256 243 l 2
 240 190 243 129 311 126 c 0
 381 123 435 184 460 244 c 1
 618 700 l 1
 786 700 l 1
 626 230 l 2
 572 81 440 -29 277 -29 c 0
 123 -29 44 84 87 230 c 0
 247 700 l 1
461 895 m 0
 479 957 548 1008 613 1008 c 0
 678 1008 721 954 703 891 c 0
 685 828 615 778 549 778 c 0
 484 778 443 832 461 895 c 0
538 891 m 0
 533 874 540 849 560 847 c 0
 583 844 618 874 625 894 c 0
 630 911 623 938 603 940 c 0
 580 943 545 911 538 891 c 0
EndSplineSet
EndChar

StartChar: uring
Encoding: 367 367 380
Width: 542
VWidth: 0
Flags: HW
LayerCount: 2
Fore
SplineSet
284 0 m 1
 443 460 l 1
 594 460 l 1
 436 0 l 1
 284 0 l 1
214 180 m 1
 205 149 196 105 240 99 c 0
 288 93 325 145 347 179 c 1
 376 185 l 1
 340 90 274 -9 161 -10 c 0
 54 -11 30 73 55 163 c 1
 156 460 l 1
 312 460 l 1
 214 180 l 1
317 649 m 0
 335 711 404 762 469 762 c 0
 534 762 577 708 559 645 c 0
 541 582 472 532 406 532 c 0
 341 532 299 586 317 649 c 0
394 645 m 0
 389 628 396 603 416 601 c 0
 439 598 474 629 481 649 c 0
 486 666 479 692 459 694 c 0
 436 697 401 665 394 645 c 0
EndSplineSet
EndChar

StartChar: Utilde
Encoding: 360 360 381
Width: 661
VWidth: 0
Flags: HW
LayerCount: 2
Fore
SplineSet
247 700 m 1
 415 700 l 1
 256 243 l 2
 240 190 243 128 311 126 c 0
 388 124 437 184 460 244 c 1
 618 700 l 1
 786 700 l 1
 626 230 l 2
 573 80 451 -29 278 -29 c 0
 124 -29 42 84 87 230 c 1
 247 700 l 1
377.360351562 845.3671875 m 1
 408.360351562 890.3671875 454.360351562 939.3671875 513.360351562 936.3671875 c 0
 557.360351562 934.3671875 583.360351562 883.3671875 627.360351562 886.3671875 c 0
 659.360351562 888.3671875 685.360351562 918.3671875 707.360351562 938.3671875 c 1
 760.360351562 859.3671875 l 1
 724.360351562 819.3671875 671.360351562 772.3671875 613.360351562 777.3671875 c 0
 570.360351562 781.3671875 541.360351562 834.3671875 497.360351562 828.3671875 c 0
 468.360351562 824.3671875 451.360351562 800.3671875 435.360351562 779.3671875 c 1
 377.360351562 845.3671875 l 1
EndSplineSet
EndChar

StartChar: utilde
Encoding: 361 361 382
Width: 542
VWidth: 0
Flags: HW
LayerCount: 2
Fore
SplineSet
284 0 m 1
 443 460 l 1
 594 460 l 1
 436 0 l 1
 284 0 l 1
214 180 m 1
 205 149 196 105 240 99 c 0
 288 93 325 145 347 179 c 1
 376 185 l 1
 340 90 274 -9 161 -10 c 0
 54 -11 30 73 55 163 c 1
 156 460 l 1
 312 460 l 1
 214 180 l 1
233.48046875 598.3671875 m 1
 264.48046875 643.3671875 310.48046875 692.3671875 369.48046875 689.3671875 c 0
 413.48046875 687.3671875 439.48046875 636.3671875 483.48046875 639.3671875 c 0
 515.48046875 641.3671875 541.48046875 671.3671875 563.48046875 691.3671875 c 1
 616.48046875 612.3671875 l 1
 580.48046875 572.3671875 527.48046875 525.3671875 469.48046875 530.3671875 c 0
 426.48046875 534.3671875 397.48046875 587.3671875 353.48046875 581.3671875 c 0
 324.48046875 577.3671875 307.48046875 553.3671875 291.48046875 532.3671875 c 1
 233.48046875 598.3671875 l 1
EndSplineSet
EndChar

StartChar: Umacron
Encoding: 362 362 383
Width: 661
VWidth: 0
Flags: HW
LayerCount: 2
Fore
SplineSet
247 700 m 1
 415 700 l 1
 256 243 l 2
 240 190 243 128 311 126 c 0
 388 124 437 184 460 244 c 1
 618 700 l 1
 786 700 l 1
 626 230 l 2
 573 80 451 -29 278 -29 c 0
 124 -29 42 84 87 230 c 1
 247 700 l 1
366.629882812 777 m 1
 408.629882812 910 l 1
 764.629882812 910 l 1
 722.629882812 777 l 1
 366.629882812 777 l 1
EndSplineSet
EndChar

StartChar: umacron
Encoding: 363 363 384
Width: 542
VWidth: 0
Flags: HW
LayerCount: 2
Fore
SplineSet
284 0 m 1
 443 460 l 1
 594 460 l 1
 436 0 l 1
 284 0 l 1
214 180 m 1
 205 149 196 105 240 99 c 0
 288 93 325 145 347 179 c 1
 376 185 l 1
 340 90 274 -9 161 -10 c 0
 54 -11 30 73 55 163 c 1
 156 460 l 1
 312 460 l 1
 214 180 l 1
222.75 530 m 1
 264.75 663 l 1
 620.75 663 l 1
 578.75 530 l 1
 222.75 530 l 1
EndSplineSet
EndChar

StartChar: Ubreve
Encoding: 364 364 385
Width: 661
VWidth: 0
Flags: HW
LayerCount: 2
Fore
SplineSet
247 700 m 1
 415 700 l 1
 256 243 l 2
 240 190 243 128 311 126 c 0
 388 124 437 184 460 244 c 1
 618 700 l 1
 786 700 l 1
 626 230 l 2
 573 80 451 -29 278 -29 c 0
 124 -29 42 84 87 230 c 1
 247 700 l 1
436.16015625 923.01171875 m 1
 529.16015625 923.01171875 l 1
 530.16015625 895.01171875 533.16015625 868.01171875 567.16015625 865.01171875 c 0
 604.16015625 862.01171875 631.16015625 896.01171875 649.16015625 922.01171875 c 1
 749.16015625 921.01171875 l 1
 715.16015625 840.01171875 650.16015625 778.01171875 557.16015625 777.01171875 c 0
 466.16015625 776.01171875 427.16015625 838.01171875 436.16015625 923.01171875 c 1
EndSplineSet
EndChar

StartChar: ubreve
Encoding: 365 365 386
Width: 542
VWidth: 0
Flags: HW
LayerCount: 2
Fore
SplineSet
284 0 m 1
 443 460 l 1
 594 460 l 1
 436 0 l 1
 284 0 l 1
214 180 m 1
 205 149 196 105 240 99 c 0
 288 93 325 145 347 179 c 1
 376 185 l 1
 340 90 274 -9 161 -10 c 0
 54 -11 30 73 55 163 c 1
 156 460 l 1
 312 460 l 1
 214 180 l 1
292.280273438 676.01171875 m 1
 385.280273438 676.01171875 l 1
 386.280273438 648.01171875 389.280273438 621.01171875 423.280273438 618.01171875 c 0
 460.280273438 615.01171875 487.280273438 649.01171875 505.280273438 675.01171875 c 1
 605.280273438 674.01171875 l 1
 571.280273438 593.01171875 506.280273438 531.01171875 413.280273438 530.01171875 c 0
 322.280273438 529.01171875 283.280273438 591.01171875 292.280273438 676.01171875 c 1
EndSplineSet
EndChar

StartChar: Wcircumflex
Encoding: 372 372 387
Width: 1004
VWidth: 0
Flags: HW
LayerCount: 2
Fore
SplineSet
734 296 m 1
 986 700 l 1
 1191 699 l 1
 663 -46 l 1
 587 370 l 1
 236 -48 l 1
 187 700 l 1
 380 700 l 1
 366 300 l 1
 695 741 l 1
 734 296 l 1
753 883 m 1
 639 801 l 1
 553 879 l 1
 780 1013 l 1
 928 867 l 1
 809 799 l 1
 753 883 l 1
EndSplineSet
EndChar

StartChar: wcircumflex
Encoding: 373 373 388
Width: 718
VWidth: 0
Flags: HW
LayerCount: 2
Fore
SplineSet
98 460 m 1
 247 460 l 1
 254 235 l 1
 471 500 l 1
 504 232 l 1
 672 459 l 1
 838 459 l 1
 441 -33 l 1
 392 236 l 1
 155 -34 l 1
 98 460 l 1
529 642 m 1
 415 560 l 1
 330 638 l 1
 556 772 l 1
 705 627 l 1
 585 558 l 1
 529 642 l 1
EndSplineSet
EndChar

StartChar: Ycircumflex
Encoding: 374 374 389
Width: 624
VWidth: 0
Flags: HW
LayerCount: 2
Fore
SplineSet
618 699 m 1
 820 699 l 1
 439 275 l 1
 344 0 l 1
 172 0 l 1
 274 294 l 1
 186 700 l 1
 369 700 l 1
 404 446 l 1
 618 699 l 1
553 860 m 1
 439 778 l 1
 353 856 l 1
 580 990 l 1
 728 845 l 1
 609 777 l 1
 553 860 l 1
EndSplineSet
EndChar

StartChar: ycircumflex
Encoding: 375 375 390
Width: 492
VWidth: 0
Flags: HW
LayerCount: 2
Fore
SplineSet
614 459 m 1
 98 -219 l 1
 -63 -219 l 1
 139 46 l 1
 96 460 l 1
 253 460 l 1
 266 90 l 1
 186 93 l 1
 450 459 l 1
 614 459 l 1
403 615 m 1
 289 532 l 1
 203 610 l 1
 430 745 l 1
 579 599 l 1
 459 531 l 1
 403 615 l 1
EndSplineSet
EndChar

StartChar: uni0123
Encoding: 291 291 391
Width: 536
VWidth: 0
Flags: HW
LayerCount: 2
Fore
SplineSet
-131 -33 m 1
 9 -34 l 1
 8 -80 18 -113 71 -115 c 0
 144 -117 202 -51 228 11 c 1
 384 460 l 1
 533 460 l 1
 380 10 l 2
 331 -129 218 -238 64 -239 c 0
 -69 -240 -141 -164 -131 -33 c 1
-46 237 m 0
 -12 356 98 470 229 470 c 0
 360 470 386 341 356 236 c 0
 323 122 227 5 99 4 c 0
 -32 3 -78 126 -46 237 c 0
113 235 m 0
 95 187 106 131 165 128 c 0
 226 125 287 184 307 238 c 0
 324 284 319 341 261 345 c 0
 199 349 134 290 113 235 c 0
337 543 m 1
 200 606 l 1
 425 823 l 1
 533 776 l 1
 337 543 l 1
EndSplineSet
EndChar

StartChar: Hbar
Encoding: 294 294 392
Width: 742
VWidth: 0
Flags: HW
LayerCount: 2
Fore
SplineSet
57 292 m 1
 110 446 l 1
 620 446 l 1
 566 292 l 1
 57 292 l 1
593 700 m 1
 767 700 l 1
 526 0 l 1
 356 0 l 1
 593 700 l 1
151 700 m 1
 325 700 l 1
 83 0 l 1
 -87 0 l 1
 151 700 l 1
32 537 m 1
 69 644 l 1
 812 644 l 1
 775 537 l 1
 32 537 l 1
EndSplineSet
EndChar

StartChar: hbar
Encoding: 295 295 393
Width: 535
VWidth: 0
Flags: HW
LayerCount: 2
Fore
SplineSet
321 780 m 1
 53 0 l 1
 -102 0 l 1
 166 780 l 1
 321 780 l 1
280 280 m 1
 289 310 300 355 257 361 c 0
 209 368 171 316 150 282 c 1
 119 283 l 1
 153 378 218 475 330 477 c 0
 438 479 460 393 435 303 c 1
 333 0 l 1
 180 0 l 1
 280 280 l 1
52 596 m 1
 98 729 l 1
 420 729 l 1
 374 596 l 1
 52 596 l 1
EndSplineSet
EndChar

StartChar: uni0400
Encoding: 1024 1024 394
Width: 517
VWidth: 0
Flags: HW
LayerCount: 2
Fore
SplineSet
120 0 m 1
 168 142 l 1
 510 142 l 1
 461 0 l 1
 120 0 l 1
310 558 m 1
 359 700 l 1
 700 700 l 1
 651 558 l 1
 310 558 l 1
221 298 m 1
 269 436 l 1
 592 436 l 1
 544 298 l 1
 221 298 l 1
248 700 m 1
 416 700 l 1
 175 0 l 1
 11 0 l 1
 248 700 l 1
389 933 m 1
 507 980 l 1
 602 812 l 1
 517 776 l 1
 389 933 l 1
EndSplineSet
EndChar

StartChar: uni0401
Encoding: 1025 1025 395
Width: 517
VWidth: 0
Flags: HW
LayerCount: 2
Fore
SplineSet
120 0 m 1
 168 142 l 1
 510 142 l 1
 461 0 l 1
 120 0 l 1
310 558 m 1
 359 700 l 1
 700 700 l 1
 651 558 l 1
 310 558 l 1
221 298 m 1
 269 436 l 1
 592 436 l 1
 544 298 l 1
 221 298 l 1
248 700 m 1
 416 700 l 1
 175 0 l 1
 11 0 l 1
 248 700 l 1
566 863 m 0
 576 906 627 942 671 941 c 0
 717 940 750 902 739 856 c 0
 729 813 678 776 634 777 c 0
 588 778 555 817 566 863 c 0
335 863 m 0
 345 906 396 942 440 941 c 0
 486 940 519 902 508 856 c 0
 498 813 447 776 403 777 c 0
 357 778 324 817 335 863 c 0
EndSplineSet
EndChar

StartChar: uni0403
Encoding: 1027 1027 396
Width: 479
VWidth: 0
Flags: HW
LayerCount: 2
Fore
SplineSet
255 700 m 1
 660 700 l 1
 606 545 l 1
 375 545 l 1
 187 0 l 1
 17 0 l 1
 255 700 l 1
696 918 m 1
 485 777 l 1
 403 827 l 1
 589 978 l 1
 696 918 l 1
EndSplineSet
EndChar

StartChar: uni040C
Encoding: 1036 1036 397
Width: 531
VWidth: 0
Flags: HW
LayerCount: 2
Fore
SplineSet
248 700 m 1
 428 700 l 1
 187 0 l 1
 11 0 l 1
 248 700 l 1
632 699 m 1
 849 699 l 1
 455 360 l 1
 605 0 l 1
 420 0 l 1
 262 379 l 1
 632 699 l 1
731 905 m 1
 521 764 l 1
 437 815 l 1
 625 966 l 1
 731 905 l 1
EndSplineSet
EndChar

StartChar: uni040D
Encoding: 1037 1037 398
Width: 746
VWidth: 0
Flags: HW
LayerCount: 2
Fore
SplineSet
799 512 m 1
 -10 -53 l 1
 79 188 l 1
 889 754 l 1
 799 512 l 1
416 700 m 1
 219 124 l 1
 -10 -53 l 1
 250 700 l 1
 416 700 l 1
889 754 m 1
 628 0 l 1
 462 0 l 1
 657 569 l 1
 889 754 l 1
470 915 m 1
 588 963 l 1
 682 793 l 1
 598 757 l 1
 470 915 l 1
EndSplineSet
EndChar

StartChar: uni040E
Encoding: 1038 1038 399
Width: 570
VWidth: 0
Flags: HW
LayerCount: 2
Fore
SplineSet
776 699 m 1
 226 0 l 1
 46 0 l 1
 221 227 l 1
 178 700 l 1
 349 700 l 1
 355 285 l 1
 278 288 l 1
 593 699 l 1
 776 699 l 1
383 923 m 1
 476 922 l 1
 477 896 478 869 511 866 c 0
 548 862 575 896 594 922 c 1
 698 920 l 1
 666 838 599 778 507 777 c 0
 415 776 375 837 383 923 c 1
EndSplineSet
EndChar

StartChar: uni0410
Encoding: 1040 1040 400
Width: 693
VWidth: 0
Flags: HW
LayerCount: 2
Fore
SplineSet
162 133 m 1
 216 262 l 1
 553 263 l 1
 518 132 l 1
 162 133 l 1
452 439 m 1
 282 214 l 1
 277 174 l 1
 138 0 l 1
 -67 0 l 1
 545 753 l 1
 639 0 l 1
 459 0 l 1
 436 171 l 1
 459 214 l 1
 452 439 l 1
EndSplineSet
EndChar

StartChar: uni0411
Encoding: 1041 1041 401
Width: 637
VWidth: 0
Flags: HW
LayerCount: 2
Fore
SplineSet
168 298 m 1
 211 436 l 1
 456 436 l 1
 577 434 659 341 625 219 c 0
 590 93 465 2 337 0 c 1
 60 0 l 1
 110 142 l 1
 327 142 l 2
 380 143 432 168 454 221 c 0
 474 269 442 295 397 297 c 1
 168 298 l 1
255 700 m 1
 740 700 l 1
 691 558 l 1
 382 558 l 1
 190 0 l 1
 17 0 l 1
 255 700 l 1
EndSplineSet
EndChar

StartChar: uni0412
Encoding: 1042 1042 402
Width: 629
VWidth: 0
Flags: HW
LayerCount: 2
Fore
SplineSet
252 348 m 1
 279 421 l 1
 376 422 l 1
 424 424 479 449 497 497 c 0
 513 540 489 564 448 566 c 1
 381 567 l 1
 225 132 l 1
 293 133 l 1
 352 136 420 161 442 222 c 0
 461 277 423 298 375 301 c 1
 236 303 l 1
 270 396 l 1
 399 397 l 1
 516 394 644 333 607 196 c 0
 570 55 426 3 294 0 c 1
 11 0 l 1
 251 700 l 1
 486 700 l 1
 590 697 714 647 680 521 c 0
 647 398 510 351 396 348 c 2
 252 348 l 1
EndSplineSet
EndChar

StartChar: uni0413
Encoding: 1043 1043 403
Width: 479
VWidth: 0
Flags: HW
LayerCount: 2
Fore
SplineSet
255 700 m 1
 660 700 l 1
 606 545 l 1
 375 545 l 1
 187 0 l 1
 17 0 l 1
 255 700 l 1
EndSplineSet
EndChar

StartChar: uni0414
Encoding: 1044 1044 404
Width: 832
VWidth: 0
Flags: HW
LayerCount: 2
Fore
SplineSet
508 415 m 1
 245 31 l 1
 36 31 l 1
 609 743 l 1
 691 30 l 1
 507 30 l 1
 508 415 l 1
573 0 m 1
 152 0 l 1
 112 -110 l 1
 -59 -110 l 1
 30 148 l 1
 794 148 l 1
 703 -110 l 1
 533 -110 l 1
 573 0 l 1
EndSplineSet
EndChar

StartChar: uni0415
Encoding: 1045 1045 405
Width: 571
VWidth: 0
Flags: HW
LayerCount: 2
Fore
SplineSet
122 0 m 1
 170 142 l 1
 512 142 l 1
 463 0 l 1
 122 0 l 1
312 558 m 1
 361 700 l 1
 702 700 l 1
 653 558 l 1
 312 558 l 1
223 298 m 1
 271 436 l 1
 594 436 l 1
 546 298 l 1
 223 298 l 1
250 700 m 1
 418 700 l 1
 177 0 l 1
 13 0 l 1
 250 700 l 1
EndSplineSet
EndChar

StartChar: uni0416
Encoding: 1046 1046 406
Width: 1028
VWidth: 0
Flags: HW
LayerCount: 2
Fore
SplineSet
381 700 m 1
 546 358 l 1
 147 0 l 1
 -68 0 l 1
 360 384 l 1
 204 700 l 1
 381 700 l 1
611 700 m 1
 791 700 l 1
 550 0 l 1
 374 0 l 1
 611 700 l 1
992 699 m 1
 1214 699 l 1
 814 360 l 1
 970 0 l 1
 785 0 l 1
 630 383 l 1
 992 699 l 1
EndSplineSet
EndChar

StartChar: uni0417
Encoding: 1047 1047 407
Width: 630
VWidth: 0
Flags: HW
LayerCount: 2
Fore
SplineSet
346 338 m 1
 366 415 l 1
 427 421 519 436 542 503 c 0
 557 548 527 573 484 575 c 0
 424 578 379 542 347 494 c 1
 188 495 l 1
 236 632 360 713 504 713 c 0
 617 713 749 652 712 518 c 0
 670 366 477 342 346 338 c 1
290 -16 m 0
 140 -15 35 69 59 224 c 1
 221 222 l 1
 215 160 236 125 302 123 c 0
 363 121 433 149 458 209 c 0
 492 291 393 302 337 306 c 1
 360 392 l 1
 481 389 662 353 619 191 c 0
 581 48 426 -16 290 -16 c 0
EndSplineSet
EndChar

StartChar: uni0418
Encoding: 1048 1048 408
Width: 746
VWidth: 0
Flags: HW
LayerCount: 2
Fore
SplineSet
799 512 m 1
 -10 -53 l 1
 79 188 l 1
 889 754 l 1
 799 512 l 1
416 700 m 1
 219 124 l 1
 -10 -53 l 1
 250 700 l 1
 416 700 l 1
889 754 m 1
 628 0 l 1
 462 0 l 1
 657 569 l 1
 889 754 l 1
EndSplineSet
EndChar

StartChar: uni0419
Encoding: 1049 1049 409
Width: 746
VWidth: 0
Flags: HW
LayerCount: 2
Fore
SplineSet
799 512 m 1
 -10 -53 l 1
 79 188 l 1
 889 754 l 1
 799 512 l 1
416 700 m 1
 219 124 l 1
 -10 -53 l 1
 250 700 l 1
 416 700 l 1
889 754 m 1
 628 0 l 1
 462 0 l 1
 657 569 l 1
 889 754 l 1
469 926 m 1
 562 926 l 1
 563 898 566 871 600 868 c 0
 637 865 664 899 682 925 c 1
 782 924 l 1
 748 843 683 781 590 780 c 0
 499 779 460 841 469 926 c 1
EndSplineSet
EndChar

StartChar: uni041A
Encoding: 1050 1050 410
Width: 666
VWidth: 0
Flags: HW
LayerCount: 2
Fore
SplineSet
248 700 m 1
 428 700 l 1
 187 0 l 1
 11 0 l 1
 248 700 l 1
632 699 m 1
 849 699 l 1
 455 360 l 1
 605 0 l 1
 420 0 l 1
 262 379 l 1
 632 699 l 1
EndSplineSet
EndChar

StartChar: uni041B
Encoding: 1051 1051 411
Width: 728
VWidth: 0
Flags: HW
LayerCount: 2
Fore
SplineSet
844 700 m 1
 604 0 l 1
 429 0 l 1
 616 545 l 1
 410 545 l 1
 327 298 l 2
 265 119 150 14 -42 1 c 1
 -3 145 l 1
 73 163 119 217 147 288 c 1
 289 700 l 1
 844 700 l 1
EndSplineSet
EndChar

StartChar: uni041C
Encoding: 1052 1052 412
Width: 841
VWidth: 0
Flags: HW
LayerCount: 2
Fore
SplineSet
315 349 m 1
 155 0 l 1
 -30 0 l 1
 331 737 l 1
 465 317 l 1
 907 751 l 1
 758 0 l 1
 580 0 l 1
 659 331 l 1
 395 60 l 1
 315 349 l 1
EndSplineSet
EndChar

StartChar: uni041D
Encoding: 1053 1053 413
Width: 743
VWidth: 0
Flags: HW
LayerCount: 2
Fore
SplineSet
155 292 m 1
 208 446 l 1
 718 446 l 1
 664 292 l 1
 155 292 l 1
691 700 m 1
 864 700 l 1
 623 0 l 1
 454 0 l 1
 691 700 l 1
248 700 m 1
 422 700 l 1
 181 0 l 1
 11 0 l 1
 248 700 l 1
EndSplineSet
EndChar

StartChar: uni041E
Encoding: 1054 1054 414
Width: 772
VWidth: 0
Flags: HW
LayerCount: 2
Fore
SplineSet
273 350 m 0
 238 262 250 146 367 143 c 0
 486 140 591 246 632 350 c 0
 667 439 654 554 537 557 c 0
 418 560 314 454 273 350 c 0
92 350 m 0
 153 549 349 717 562 717 c 0
 767 717 868 537 812 350 c 0
 751 149 555 -23 340 -23 c 0
 132 -23 35 163 92 350 c 0
EndSplineSet
EndChar

StartChar: uni041F
Encoding: 1055 1055 415
Width: 726
VWidth: 0
Flags: HW
LayerCount: 2
Fore
SplineSet
617 545 m 1
 378 545 l 1
 191 0 l 1
 16 0 l 1
 256 700 l 1
 842 700 l 1
 602 0 l 1
 429 0 l 1
 617 545 l 1
EndSplineSet
EndChar

StartChar: uni0420
Encoding: 1056 1056 416
Width: 594
VWidth: 0
Flags: HW
LayerCount: 2
Fore
SplineSet
250 700 m 1
 424 700 l 1
 183 0 l 1
 13 0 l 1
 250 700 l 1
308 559 m 1
 354 700 l 1
 472 700 l 1
 609 696 712 614 670 469 c 0
 628 323 491 245 345 241 c 1
 196 241 l 1
 247 382 l 1
 365 383 l 2
 423 384 484 415 507 472 c 0
 527 523 500 555 449 557 c 1
 308 559 l 1
EndSplineSet
EndChar

StartChar: uni0421
Encoding: 1057 1057 417
Width: 656
VWidth: 0
Flags: HW
LayerCount: 2
Fore
SplineSet
278 350 m 0
 240 255 272 153 386 150 c 0
 472 148 553 194 623 239 c 1
 572 54 l 1
 504 12 430 -17 350 -17 c 0
 143 -17 34 158 92 350 c 0
 154 555 353 717 570 717 c 0
 645 717 707 692 765 645 c 1
 712 459 l 1
 675 518 624 551 553 551 c 0
 434 550 321 459 278 350 c 0
EndSplineSet
EndChar

StartChar: uni0422
Encoding: 1058 1058 418
Width: 534
VWidth: 0
Flags: HW
LayerCount: 2
Fore
SplineSet
131 545 m 1
 185 700 l 1
 721 700 l 1
 666 545 l 1
 485 545 l 1
 298 0 l 1
 127 0 l 1
 314 545 l 1
 131 545 l 1
EndSplineSet
EndChar

StartChar: uni0423
Encoding: 1059 1059 419
Width: 582
VWidth: 0
Flags: HW
LayerCount: 2
Fore
SplineSet
788 699 m 1
 239 0 l 1
 52 0 l 1
 227 227 l 1
 178 700 l 1
 354 700 l 1
 361 285 l 1
 285 288 l 1
 599 699 l 1
 788 699 l 1
EndSplineSet
EndChar

StartChar: uni0424
Encoding: 1060 1060 420
Width: 882
VWidth: 0
Flags: HW
LayerCount: 2
Fore
SplineSet
539 700 m 1
 715 700 l 1
 474 0 l 1
 301 0 l 1
 539 700 l 1
744 351 m 0
 781 440 703 467 628 469 c 1
 496 470 l 2
 407 468 308 440 271 349 c 0
 234 260 311 233 386 231 c 1
 518 230 l 2
 607 232 707 260 744 351 c 0
915 349 m 0
 866 181 694 82 527 80 c 1
 333 80 l 1
 179 81 52 187 99 351 c 0
 148 519 320 618 487 620 c 1
 681 620 l 1
 835 619 962 513 915 349 c 0
EndSplineSet
EndChar

StartChar: uni0425
Encoding: 1061 1061 421
Width: 711
VWidth: 0
Flags: HW
LayerCount: 2
Fore
SplineSet
624 699 m 1
 847 699 l 1
 510 346 l 1
 606 0 l 1
 412 0 l 1
 374 222 l 1
 177 0 l 1
 -46 0 l 1
 317 371 l 1
 232 700 l 1
 427 700 l 1
 457 509 l 1
 624 699 l 1
EndSplineSet
EndChar

StartChar: uni0426
Encoding: 1062 1062 422
Width: 812
VWidth: 0
Flags: HW
LayerCount: 2
Fore
SplineSet
236 155 m 1
 505 155 l 1
 692 700 l 1
 867 700 l 1
 680 155 l 1
 786 155 l 1
 685 -136 l 1
 520 -136 l 1
 567 0 l 1
 10 0 l 1
 250 700 l 1
 424 700 l 1
 236 155 l 1
EndSplineSet
EndChar

StartChar: uni0427
Encoding: 1063 1063 423
Width: 678
VWidth: 0
Flags: HW
LayerCount: 2
Fore
SplineSet
322 220 m 1
 414 369 l 1
 574 371 l 1
 520 218 l 1
 322 220 l 1
615 700 m 1
 795 700 l 1
 554 0 l 1
 378 0 l 1
 615 700 l 1
424 699 m 1
 346 488 l 1
 324 418 346 369 414 369 c 1
 322 220 l 1
 189 220 135 339 171 466 c 1
 250 700 l 1
 424 699 l 1
EndSplineSet
EndChar

StartChar: uni0428
Encoding: 1064 1064 424
Width: 1020
VWidth: 0
Flags: HW
LayerCount: 2
Fore
SplineSet
777 155 m 1
 964 700 l 1
 1136 700 l 1
 896 0 l 1
 16 0 l 1
 256 700 l 1
 428 700 l 1
 241 155 l 1
 426 155 l 1
 613 700 l 1
 779 700 l 1
 592 155 l 1
 777 155 l 1
EndSplineSet
EndChar

StartChar: uni0429
Encoding: 1065 1065 425
Width: 1088
VWidth: 0
Flags: HW
LayerCount: 2
Fore
SplineSet
777 155 m 1
 964 700 l 1
 1136 700 l 1
 949 155 l 1
 1055 155 l 1
 955 -136 l 1
 789 -136 l 1
 837 0 l 1
 16 0 l 1
 256 700 l 1
 428 700 l 1
 241 155 l 1
 426 155 l 1
 613 700 l 1
 779 700 l 1
 592 155 l 1
 777 155 l 1
EndSplineSet
EndChar

StartChar: uni042A
Encoding: 1066 1066 426
Width: 695
VWidth: 0
Flags: HW
LayerCount: 2
Fore
SplineSet
330 318 m 1
 377 459 l 1
 494 459 l 2
 631 456 735 374 693 229 c 0
 651 83 513 3 367 0 c 2
 218 0 l 1
 269 141 l 1
 387 142 l 2
 445 143 507 174 530 231 c 0
 550 282 523 315 472 316 c 2
 330 318 l 1
308 546 m 1
 136 546 l 1
 190 700 l 1
 532 700 l 1
 291 0 l 1
 121 0 l 1
 308 546 l 1
EndSplineSet
EndChar

StartChar: uni042B
Encoding: 1067 1067 427
Width: 859
VWidth: 0
Flags: HW
LayerCount: 2
Fore
SplineSet
805 700 m 1
 982 700 l 1
 741 0 l 1
 568 0 l 1
 805 700 l 1
248 700 m 1
 422 700 l 1
 181 0 l 1
 11 0 l 1
 248 700 l 1
224 318 m 1
 270 459 l 1
 387 459 l 2
 524 456 628 374 586 229 c 0
 544 83 407 3 261 0 c 2
 111 0 l 1
 162 141 l 1
 281 142 l 2
 339 143 400 174 423 231 c 0
 443 282 416 315 365 316 c 2
 224 318 l 1
EndSplineSet
EndChar

StartChar: uni042C
Encoding: 1068 1068 428
Width: 588
VWidth: 0
Flags: HW
LayerCount: 2
Fore
SplineSet
248 700 m 1
 422 700 l 1
 181 0 l 1
 11 0 l 1
 248 700 l 1
224 318 m 1
 270 459 l 1
 387 459 l 2
 524 456 628 374 586 229 c 0
 544 83 407 3 261 0 c 2
 111 0 l 1
 162 141 l 1
 281 142 l 2
 339 143 400 174 423 231 c 0
 443 282 416 315 365 316 c 2
 224 318 l 1
EndSplineSet
EndChar

StartChar: uni042D
Encoding: 1069 1069 429
Width: 659
VWidth: 0
Flags: HW
LayerCount: 2
Fore
SplineSet
167 281 m 1
 214 419 l 1
 573 419 l 1
 524 281 l 1
 167 281 l 1
531 350 m 0
 572 451 521 554 406 557 c 0
 323 559 244 519 173 481 c 1
 218 646 l 1
 285 688 360 717 440 717 c 0
 647 717 756 542 698 350 c 0
 636 145 438 -17 221 -17 c 0
 146 -17 83 9 25 56 c 1
 71 221 l 1
 114 171 167 141 235 142 c 0
 358 143 486 237 531 350 c 0
EndSplineSet
EndChar

StartChar: uni042E
Encoding: 1070 1070 430
Width: 1078
VWidth: 0
Flags: HW
LayerCount: 2
Fore
SplineSet
155 292 m 1
 208 446 l 1
 540 446 l 1
 487 292 l 1
 155 292 l 1
248 700 m 1
 422 700 l 1
 181 0 l 1
 11 0 l 1
 248 700 l 1
578 350 m 0
 543 262 556 146 673 143 c 0
 792 140 896 246 937 350 c 0
 972 439 960 554 843 557 c 0
 724 560 619 454 578 350 c 0
398 350 m 0
 459 549 654 717 867 717 c 0
 1072 717 1174 537 1118 350 c 0
 1057 149 860 -23 645 -23 c 0
 437 -23 341 163 398 350 c 0
EndSplineSet
EndChar

StartChar: uni042F
Encoding: 1071 1071 431
Width: 611
VWidth: 0
Flags: HW
LayerCount: 2
Fore
SplineSet
442 315 m 1
 150 0 l 1
 -63 0 l 1
 251 315 l 1
 442 315 l 1
734 700 m 1
 493 0 l 1
 321 0 l 1
 562 700 l 1
 734 700 l 1
579 554 m 1
 461 553 l 2
 403 553 340 520 317 463 c 0
 296 412 323 379 374 376 c 1
 521 374 l 1
 473 242 l 1
 343 241 l 0
 208 245 104 328 145 471 c 0
 186 616 326 697 470 700 c 1
 632 700 l 1
 579 554 l 1
EndSplineSet
EndChar

StartChar: uni0430
Encoding: 1072 1072 432
Width: 513
VWidth: 0
Flags: HW
LayerCount: 2
Fore
SplineSet
161 136 m 0
 153 110 173 92 197 91 c 0
 259 86 302 139 332 186 c 1
 332 127 l 1
 295 46 227 -10 135 -10 c 0
 52 -10 -14 45 9 132 c 0
 36 230 144 277 238 278 c 0
 293 278 339 263 381 229 c 1
 362 158 l 1
 333 182 305 198 266 196 c 0
 229 195 172 176 161 136 c 0
172 316 m 1
 147 423 l 1
 213 450 283 473 355 473 c 0
 445 473 557 427 522 323 c 2
 414 0 l 1
 264 0 l 1
 372 293 l 2
 385 328 366 350 327 354 c 0
 274 360 219 335 172 316 c 1
EndSplineSet
Substitution2: "alt a" a.alt
EndChar

StartChar: uni0431
Encoding: 1073 1073 433
Width: 573
VWidth: 0
Flags: HW
LayerCount: 2
Fore
SplineSet
363 344 m 1
 416 468 l 1
 547 468 617 361 583 229 c 0
 547 91 412 -9 270 -10 c 0
 101 -11 76 131 76 198 c 1
 225 189 l 1
 225 161 232 118 284 118 c 0
 347 118 406 175 426 231 c 0
 448 294 422 344 363 344 c 1
165 232 m 1
 206 359 278 468 416 468 c 1
 363 344 l 1
 299 344 225 292 225 189 c 1
 165 232 l 1
76 198 m 1
 76 397 215 593 374 663 c 0
 442 693 505 718 552 779 c 1
 703 778 l 1
 656 673 565 616 463 571 c 0
 364 528 234 429 223 309 c 1
 225 189 l 1
 76 198 l 1
EndSplineSet
EndChar

StartChar: uni0432
Encoding: 1074 1074 434
Width: 496
VWidth: 0
Flags: HW
LayerCount: 2
Fore
SplineSet
176 239 m 1
 325 240 l 2
 398 238 481 213 460 123 c 0
 441 45 364 0 289 0 c 2
 96 0 l 1
 130 95 l 1
 246 95 l 2
 274 95 313 114 324 143 c 0
 333 168 316 185 294 185 c 2
 162 186 l 1
 176 239 l 1
175 221 m 1
 192 278 l 1
 302 279 l 2
 328 279 359 298 369 324 c 0
 377 344 365 364 346 364 c 2
 218 365 l 1
 253 460 l 1
 390 460 l 2
 464 458 537 417 514 333 c 0
 493 255 409 224 335 221 c 2
 175 221 l 1
168 460 m 1
 319 460 l 1
 159 0 l 1
 12 0 l 1
 168 460 l 1
EndSplineSet
EndChar

StartChar: uni0433
Encoding: 1075 1075 435
Width: 337
VWidth: 0
Flags: HW
LayerCount: 2
Fore
SplineSet
154 460 m 1
 445 460 l 1
 400 333 l 1
 264 333 l 1
 148 0 l 1
 -1 0 l 1
 154 460 l 1
EndSplineSet
EndChar

StartChar: uni0434
Encoding: 1076 1076 436
Width: 664
VWidth: 0
Flags: HW
LayerCount: 2
Fore
SplineSet
375 268 m 1
 193 32 l 1
 48 68 l 1
 440 501 l 1
 536 59 l 1
 391 27 l 1
 375 268 l 1
431 0 m 1
 130 0 l 1
 97 -90 l 1
 -53 -90 l 1
 21 121 l 1
 615 121 l 1
 541 -90 l 1
 398 -90 l 1
 431 0 l 1
EndSplineSet
EndChar

StartChar: uni0435
Encoding: 1077 1077 437
Width: 543
VWidth: 0
Flags: HW
LayerCount: 2
Fore
SplineSet
131 198 m 1
 156 281 l 1
 396 283 l 1
 404 321 403 363 354 366 c 0
 288 371 242 304 217 253 c 2
 206 229 l 1
 188 180 182 108 250 102 c 0
 297 98 340 130 374 159 c 1
 508 122 l 1
 440 43 348 -11 241 -10 c 0
 102 -9 19 95 55 231 c 0
 59 248 65 263 72 279 c 0
 124 394 243 470 369 470 c 0
 509 470 577 370 546 237 c 0
 543 224 538 211 534 198 c 1
 131 198 l 1
EndSplineSet
EndChar

StartChar: uni0436
Encoding: 1078 1078 438
Width: 836
VWidth: 0
Flags: HW
LayerCount: 2
Fore
SplineSet
741 459 m 1
 935 459 l 1
 668 256 l 1
 777 0 l 1
 622 0 l 1
 502 282 l 1
 741 459 l 1
595 460 m 1
 438 0 l 1
 291 0 l 1
 449 460 l 1
 595 460 l 1
280 460 m 1
 413 258 l 1
 125 0 l 1
 -68 0 l 1
 242 278 l 1
 129 460 l 1
 280 460 l 1
EndSplineSet
EndChar

StartChar: uni0437
Encoding: 1079 1079 439
Width: 507
VWidth: 0
Flags: HW
LayerCount: 2
Fore
SplineSet
281 229 m 1
 298 286 l 1
 321 291 361 299 370 326 c 0
 375 342 363 358 341 358 c 0
 310 359 290 332 277 307 c 1
 135 309 l 1
 172 403 251 468 355 469 c 0
 432 470 535 425 511 332 c 0
 486 237 361 232 281 229 c 1
221 -10 m 0
 113 -10 47 50 50 159 c 1
 186 157 l 1
 191 128 197 100 238 99 c 0
 279 98 315 123 324 154 c 0
 336 192 300 198 273 203 c 1
 291 260 l 1
 365 256 487 237 462 133 c 0
 438 33 312 -10 221 -10 c 0
EndSplineSet
EndChar

StartChar: uni0438
Encoding: 1080 1080 440
Width: 558
VWidth: 0
Flags: HW
LayerCount: 2
Fore
SplineSet
557 321 m 1
 -22 -52 l 1
 51 139 l 1
 629 512 l 1
 557 321 l 1
305 460 m 1
 181 99 l 1
 -22 -52 l 1
 156 460 l 1
 305 460 l 1
629 512 m 1
 451 0 l 1
 303 0 l 1
 427 361 l 1
 629 512 l 1
EndSplineSet
EndChar

StartChar: uni0439
Encoding: 1081 1081 441
Width: 558
VWidth: 0
Flags: HW
LayerCount: 2
Fore
SplineSet
557 321 m 1
 -22 -52 l 1
 51 139 l 1
 629 512 l 1
 557 321 l 1
305 460 m 1
 181 99 l 1
 -22 -52 l 1
 156 460 l 1
 305 460 l 1
629 512 m 1
 451 0 l 1
 303 0 l 1
 427 361 l 1
 629 512 l 1
284 694 m 1
 377 694 l 1
 378 666 381 639 415 636 c 0
 452 633 479 667 497 693 c 1
 597 692 l 1
 563 611 498 549 405 548 c 0
 314 547 275 609 284 694 c 1
EndSplineSet
EndChar

StartChar: uni043A
Encoding: 1082 1082 442
Width: 551
VWidth: 0
Flags: HW
LayerCount: 2
Fore
SplineSet
151 460 m 1
 302 460 l 1
 142 0 l 1
 -5 0 l 1
 151 460 l 1
440 459 m 1
 640 459 l 1
 375 259 l 1
 482 0 l 1
 324 0 l 1
 204 282 l 1
 440 459 l 1
EndSplineSet
EndChar

StartChar: uni043B
Encoding: 1083 1083 443
Width: 588
VWidth: 0
Flags: HW
LayerCount: 2
Fore
SplineSet
622 460 m 1
 463 0 l 1
 315 0 l 1
 426 320 l 1
 278 319 l 1
 224 159 l 1
 180 36 77 8 -43 1 c 1
 -5 136 l 1
 37 143 65 159 85 200 c 1
 177 460 l 1
 622 460 l 1
EndSplineSet
EndChar

StartChar: uni043C
Encoding: 1084 1084 444
Width: 619
VWidth: 0
Flags: HW
LayerCount: 2
Fore
SplineSet
413 0 m 1
 463 327 l 1
 602 510 l 1
 561 0 l 1
 413 0 l 1
272 147 m 1
 602 510 l 1
 539 278 l 1
 247 -34 l 1
 272 147 l 1
247 -34 m 1
 171 304 l 1
 248 498 l 1
 329 119 l 1
 247 -34 l 1
-59 0 m 1
 248 498 l 1
 261 297 l 1
 102 0 l 1
 -59 0 l 1
EndSplineSet
EndChar

StartChar: uni043D
Encoding: 1085 1085 445
Width: 579
VWidth: 0
Flags: HW
LayerCount: 2
Fore
SplineSet
105 186 m 1
 144 300 l 1
 503 300 l 1
 464 186 l 1
 105 186 l 1
484 460 m 1
 634 460 l 1
 475 0 l 1
 328 0 l 1
 484 460 l 1
153 460 m 1
 303 460 l 1
 144 0 l 1
 -3 0 l 1
 153 460 l 1
EndSplineSet
EndChar

StartChar: uni043E
Encoding: 1086 1086 446
Width: 555
VWidth: 0
Flags: HW
LayerCount: 2
Fore
SplineSet
50 231 m 0
 89 369 227 470 370 470 c 0
 506 470 593 362 555 229 c 0
 516 92 379 -10 236 -10 c 0
 100 -10 12 98 50 231 c 0
205 229 m 0
 187 184 192 121 252 118 c 0
 315 115 378 176 400 231 c 0
 418 276 413 340 353 343 c 0
 290 346 227 284 205 229 c 0
EndSplineSet
EndChar

StartChar: uni043F
Encoding: 1087 1087 447
Width: 542
VWidth: 0
Flags: HW
LayerCount: 2
Fore
SplineSet
596 460 m 1
 437 0 l 1
 288 0 l 1
 402 326 l 1
 258 326 l 1
 144 0 l 1
 -5 0 l 1
 154 460 l 1
 596 460 l 1
EndSplineSet
EndChar

StartChar: uni0440
Encoding: 1088 1088 448
Width: 582
VWidth: 0
Flags: HW
LayerCount: 2
Fore
SplineSet
75 -220 m 1
 -82 -220 l 1
 153 460 l 1
 306 460 l 1
 75 -220 l 1
581 229 m 0
 546 108 437 -18 302 -17 c 0
 165 -16 158 128 188 231 c 0
 222 346 308 474 441 476 c 0
 577 478 613 339 581 229 c 0
423 232 m 0
 441 280 429 336 370 339 c 0
 309 342 248 282 228 228 c 0
 211 182 216 125 274 121 c 0
 336 117 402 177 423 232 c 0
EndSplineSet
EndChar

StartChar: uni0441
Encoding: 1089 1089 449
Width: 459
VWidth: 0
Flags: HW
LayerCount: 2
Fore
SplineSet
204 229 m 0
 182 174 201 119 265 115 c 0
 323 112 376 146 421 179 c 1
 382 30 l 1
 337 5 290 -10 237 -10 c 0
 101 -10 11 97 49 231 c 0
 89 371 228 469 371 470 c 0
 422 470 466 456 509 430 c 1
 468 280 l 1
 448 321 419 347 370 347 c 0
 301 346 229 292 204 229 c 0
EndSplineSet
EndChar

StartChar: uni0442
Encoding: 1090 1090 450
Width: 314
VWidth: 0
Flags: HW
LayerCount: 2
Fore
SplineSet
104 460 m 1
 419 460 l 1
 374 333 l 1
 58 333 l 1
 104 460 l 1
179 440 m 1
 329 440 l 1
 176 0 l 1
 30 0 l 1
 179 440 l 1
EndSplineSet
EndChar

StartChar: uni0443
Encoding: 1091 1091 451
Width: 492
VWidth: 0
Flags: HW
LayerCount: 2
Fore
SplineSet
614 459 m 1
 98 -219 l 1
 -63 -219 l 1
 139 46 l 1
 96 460 l 1
 253 460 l 1
 266 90 l 1
 186 93 l 1
 450 459 l 1
 614 459 l 1
EndSplineSet
EndChar

StartChar: uni0444
Encoding: 1092 1092 452
Width: 630
VWidth: 0
Flags: HW
LayerCount: 2
Fore
SplineSet
379 560 m 1
 527 560 l 1
 299 -100 l 1
 155 -100 l 1
 379 560 l 1
50 231 m 0
 93 386 255 471 407 471 c 0
 548 471 672 382 629 229 c 0
 586 74 425 -10 273 -10 c 0
 132 -10 7 78 50 231 c 0
188 229 m 0
 156 152 220 119 288 118 c 0
 368 117 459 152 492 231 c 0
 524 308 460 342 392 343 c 0
 312 344 221 308 188 229 c 0
EndSplineSet
EndChar

StartChar: uni0445
Encoding: 1093 1093 453
Width: 504
VWidth: 0
Flags: HW
LayerCount: 2
Fore
SplineSet
433 460 m 1
 611 460 l 1
 362 229 l 1
 460 0 l 1
 307 0 l 1
 256 134 l 1
 133 0 l 1
 -51 0 l 1
 208 251 l 1
 119 460 l 1
 279 460 l 1
 317 345 l 1
 433 460 l 1
EndSplineSet
EndChar

StartChar: uni0446
Encoding: 1094 1094 454
Width: 585
VWidth: 0
Flags: HW
LayerCount: 2
Fore
SplineSet
486 127 m 1
 564 127 l 1
 484 -103 l 1
 339 -103 l 1
 375 0 l 1
 -4 0 l 1
 154 460 l 1
 310 460 l 1
 194 127 l 1
 332 127 l 1
 448 460 l 1
 601 460 l 1
 486 127 l 1
EndSplineSet
EndChar

StartChar: uni0447
Encoding: 1095 1095 455
Width: 516
VWidth: 0
Flags: HW
LayerCount: 2
Fore
SplineSet
211 116 m 1
 280 240 l 1
 398 241 l 1
 354 116 l 1
 211 116 l 1
408 460 m 1
 565 460 l 1
 406 0 l 1
 252 0 l 1
 408 460 l 1
301 459 m 1
 247 314 l 2
 230 267 243 240 280 240 c 1
 211 116 l 1
 84 116 68 217 102 328 c 2
 146 460 l 1
 301 459 l 1
EndSplineSet
EndChar

StartChar: uni0448
Encoding: 1096 1096 456
Width: 788
VWidth: 0
Flags: HW
LayerCount: 2
Fore
SplineSet
456 127 m 1
 578 127 l 1
 694 460 l 1
 843 460 l 1
 684 0 l 1
 -4 0 l 1
 154 460 l 1
 303 460 l 1
 187 127 l 1
 309 127 l 1
 425 460 l 1
 571 460 l 1
 456 127 l 1
EndSplineSet
EndChar

StartChar: uni0449
Encoding: 1097 1097 457
Width: 825
VWidth: 0
Flags: HW
LayerCount: 2
Fore
SplineSet
456 127 m 1
 577 127 l 1
 693 460 l 1
 842 460 l 1
 728 127 l 1
 803 127 l 1
 724 -103 l 1
 579 -103 l 1
 615 0 l 1
 -4 0 l 1
 154 460 l 1
 303 460 l 1
 187 127 l 1
 309 127 l 1
 425 460 l 1
 571 460 l 1
 456 127 l 1
EndSplineSet
EndChar

StartChar: uni044A
Encoding: 1098 1098 458
Width: 576
VWidth: 0
Flags: HW
LayerCount: 2
Fore
SplineSet
257 207 m 1
 288 305 l 1
 412 306 l 2
 497 307 562 253 538 162 c 0
 514 71 428 2 336 1 c 2
 182 0 l 1
 225 118 l 1
 324 118 l 2
 352 118 386 135 397 164 c 0
 406 187 392 206 371 206 c 2
 257 207 l 1
192 333 m 1
 58 333 l 1
 104 460 l 1
 377 460 l 1
 218 0 l 1
 78 0 l 1
 192 333 l 1
EndSplineSet
EndChar

StartChar: uni044B
Encoding: 1099 1099 459
Width: 722
VWidth: 0
Flags: HW
LayerCount: 2
Fore
SplineSet
620 460 m 1
 777 460 l 1
 617 0 l 1
 464 0 l 1
 620 460 l 1
153 460 m 1
 310 460 l 1
 150 0 l 1
 -3 0 l 1
 153 460 l 1
186 207 m 1
 218 305 l 1
 341 306 l 2
 426 307 491 253 467 162 c 0
 443 71 357 2 265 1 c 2
 111 0 l 1
 153 118 l 1
 253 118 l 2
 281 118 315 135 326 164 c 0
 335 187 321 206 300 206 c 2
 186 207 l 1
EndSplineSet
EndChar

